<svg id="Capa_1" data-name="Capa 1" xmlns="http://www.w3.org/2000/svg" viewBox="0 0 1097.82 1279.5"><path d="M462.4,1.7a69.06,69.06,0,0,0-7.2,5.2c-3.7,3-4.2,3.9-4.2,7.6a21.09,21.09,0,0,0,2.5,8.9c3,5.6,3,5.6.6,5.6a2.77,2.77,0,0,0-2.5,1.7c-2.5,8.5-4.6,68.9-7.2,205-.4,19.4-1.1,35.3-1.6,35.3a49.48,49.48,0,0,1-6.8-3c-11.5-5.8-26.2-8-39.5-6-10.6,1.6-15.1,3.5-29.4,12.5-6.6,4.1-16.7,9.8-22.2,12.5l-10.2,5-20.6-.3c-23.6-.2-26.2.3-33,6.7-2.4,2.2-10.3,11.5-17.6,20.6s-16,19.1-19.4,22.3c-6.3,5.7-7.3,6.3-37.2,20.5-12,5.8-17.2,11.7-33.3,38.3-15.4,25.5-18.9,30.1-33.8,44-10.7,10-25.1,26.9-22.9,26.9a2,2,0,0,0,1.6-1c1-1.5,29.9-24.6,36-28.6a34,34,0,0,1,8.6-4.3c3-.6,3.4-1.3,8.4-14.6,12-31.6,18.8-42.2,33.2-51.6,4.8-3.1,38.9-18.9,40.9-18.9.2,0-1.8,4.5-4.6,10s-4.8,10-4.6,10c.6,0,14.4-21.8,23.7-37.6,11.3-19.1,22-30.1,33.5-34.4,7.3-2.7,29.9-5.2,44-4.8,10.3.3,10.9.4,11.2,2.5.2,1.3-1,3.5-3,5.8l-3.2,3.8,3.4-.8c4.7-.9,7.7-3,9.8-6.6.9-1.6,3.3-5.7,5.2-9.1,6.8-11.9,15.4-19.5,26.4-23.2s32.4-1,38.7,5c9.5,9.1,13.9,37.3,13.9,87.7,0,24.3-1.6,61.3-2.8,68.2-.7,3.5-1.1,4-3.5,4-1.7-.1-2.7.5-2.7,1.4,0,.7,3.1,28.9,7,62.5,12.4,109.1,15.1,138.1,15.2,165.1.2,25.5-1.3,31.7-9.6,40.3-3.3,3.5-21.7,15.2-23.8,15.2-.3,0-.8-.9-1.1-1.9-.6-2.3-4.2-4.3-17.2-9.2-7.3-2.8-9.2-3.9-7-3.9,8.4-.2,29-2.1,32.4-3a11.73,11.73,0,0,0,4.9-2.3c.8-.9-1.7-1-12.1-.4-14,.9-24.4.4-29.3-1.3l-3-1.1.8-8.7a77.05,77.05,0,0,1,2-12.7c.7-2.5,1.2-11.4,1.2-23.5.1-25.9.4-26.4,18.9-29,9.3-1.3,11-2.2,7.7-4-3-1.6-14,.3-20.4,3.4-9.5,4.7-12.5,12.6-15.1,40.1-.8,8.4-1.8,15.1-2.4,15.3-1.6.5-1.3,4.3.3,6.1a29.79,29.79,0,0,1,3.4,6.8c2.7,7.1.2,6-3.5-1.5-2.5-5.1-2.8-6.8-2.8-15.8,0-10.6-1-13.4-4.6-13.4-1.3,0-1.9.7-1.9,2.2,0,4.8-2-.7-9.4-25.7C347.4,585,342.7,562.6,337,514c-9.2-77.3-11-89-13.8-89-1.3,0-7.7,15.5-7.8,19,0,2.1-1.2,5.2-2.8,7.7l-2.8,4.3,2.3,11.1c1.3,6.1,2.9,11.3,3.4,11.4s3.1.9,5.8,1.5,4.7,1.8,4.7,2.4-2.9,3.3-6.5,5.9c-6.1,4.4-6.5,4.9-6.5,8.7,0,4.3-.2,4.1,8.3,5.5,4.9.8,4.8,2.6-.7,8.5l-4.4,4.7,1.2,5.9a49,49,0,0,0,2.4,8.1c.7,1.2,1.2,4.4,1.2,7.2,0,4.8.1,5.1,3.3,5.9,2.8.7,3.2,1.2,3.3,4.4.1,2.5,1.4,5.2,3.8,8.4,2,2.6,3.9,5.9,4.1,7.3s1,4.5,1.5,6.9c1.2,5.1.6,6.4-5.7,13.9l-4.4,5.2,3.8.7c5.1.9,9,3,10.4,5.5,1.2,2.4,1.4,2.1-3.1,4.4-5.2,2.6-7,4.5-7,7.4a30.13,30.13,0,0,1-1.4,7.1,24.66,24.66,0,0,0-.9,7.7c.4,2.6-.7,4.8-7.1,14.1-4.2,6-7.6,11.2-7.6,11.5s3.6-1,8-2.8c8.3-3.5,15.9-5.9,16.6-5.2,1.1,1-51.1,31.7-53.9,31.7-.5,0-.6-.8-.3-1.8a47,47,0,0,0,1.1-6.4c.8-5.5-1-8-7.4-9.9-2.1-.6-3.7-1.7-3.5-2.3s-.2-4.2-.9-8.1c-1.1-6-1.6-7-3.8-7.5-2.8-.7-2.8-.6-1-8.4.9-4.1,1.1-8.8.6-15.3-.6-8.7-.8-9.3-2.9-9.3a4.33,4.33,0,0,1-4.6-4.7c0-1.5-.6-2.3-1.8-2.3-4.2,0-5.1-5.1-3.3-16.5,1.2-7.1.1-8.8-5.5-8.3l-4.3.3.5-3.6c.8-5.1-2-17.8-5.6-24.9a77,77,0,0,1-4.9-14.3c-2.8-11.6-7.5-24-7.9-20.7-.8,5.3,2.2,21.6,9.3,50.5,4.1,16.5,8.8,36.1,10.5,43.5a167.62,167.62,0,0,0,4.6,16.9,18.93,18.93,0,0,1,1.4,6.3c0,7.1,9.7,35.1,12.5,36.2a2.26,2.26,0,0,1,1.5,1.8c0,3.6,2.4,9.1,5.8,13.2,2.6,3.1,4.7,7.4,6.7,13.7,3.1,10,3.3,10.2,8.5,12.7,2.7,1.3,4.2,3.2,6.5,8,1.7,3.4,4.3,7.4,5.8,8.8a29.08,29.08,0,0,1,5.1,7.3c1.9,3.6,3.5,5.2,6.6,6.6a23.67,23.67,0,0,1,7,5.2c2.9,3.3,6,11.5,6,16,0,2,.4,2.3,3.1,2.1,3.4-.3,3.6-.1,6.9,7.2a17.06,17.06,0,0,0,5.5,6.8c2.4,1.5,4.7,4.6,7.4,10.1l4,7.8-9.7,4.5c-16,7.4-20.9,9.1-24.4,8.4-4.1-.8-10,.9-13.6,3.9a16.83,16.83,0,0,1-3.5,2.5c-.4,0-7-4.9-14.9-10.8-13.1-9.9-25.7-18.2-27.7-18.2a6.71,6.71,0,0,0-2.6,2,6,6,0,0,1-3.6,2,29.69,29.69,0,0,0-6.9,2c-6.5,2.6-8,2.5-4.6-.1,3.8-3,2.4-3.9-3.7-2.3-6.5,1.7-6.8,1.7-6.1,0,.3-.9-.5-1.5-2.5-1.9-1.7-.4-3.2-1.4-3.6-2.6-.6-1.9-3-2.7-11.2-3.8-2.4-.3-4.3-.9-4.3-1.4,0-1-6.3-1.2-9.8-.3-3,.8-2.3,2.8,1.1,3.2,1.5.2,2.7,1,2.7,1.8s.4,1.4.9,1.4a11.05,11.05,0,0,1,3.4,2.4,20.7,20.7,0,0,0,7.6,3.6c3.8.9,5.1,1.6,4.9,2.8s.9,1.8,4,2.5c4.7.9,4.7,2-.1,4.1l-3.2,1.4,4.1.1c4.4.1,14.2-2.9,18.3-5.6,6.9-4.4,7.3-4.3,2.5.8a51.44,51.44,0,0,0-6.8,8.6c-1.6,3.1-2,3.3-6.9,3.3-6.8,0-10.7-2.4-25-15.6-16.2-14.9-24.1-21.7-27.7-23.8-1.8-1-3-1.4-2.6-.8.9,1.6-2.8,4.7-7.5,6.2q-9,3,.9,3c6.8,0,7.4.5,9.4,7.5l1.4,4.9,6.9,1.2c12.7,2,14.4,3.6,10.5,10l-2.1,3.2,5.3,1c4.7.8,3.7,1-8.2,1.1-23,.2-62.1,2-71,3.3l-8.5,1.2,8.5.7c4.7.4,17.4,1.2,28.2,1.8,40.2,2.2,52.3,6,34.3,10.7l-8,2.1,16,.7c8.8.3,16.3,1,16.8,1.5.9.9-4.1,3-7.7,3.2-4.8.3,7.5,1.8,15.4,1.8,9.5.1,16,1,16,2.1,0,.4-2.1,1.3-4.7,2.1-5.6,1.5-6.1,1.4,16.1,3.4C263,836,271,837.4,272,839c.3.4,19,1.1,41.5,1.5l41,.7L364,837c9.1-4,10.2-4.2,27.5-5.8l18-1.7-9.3-.8c-11.7-.9-16.5-2.7-16-5.9a5.34,5.34,0,0,1,2.8-3.5c3.5-1.6,15.9-3.1,33-3.9l14.5-.6v10c0,8.3-.3,10.3-1.8,12-2.2,2.5-1.8,4.2,2.8,12.9,3.3,6,3.3,6.1,1.2,6.7a46.27,46.27,0,0,1-8,.6c-5,0-6.7.6-12.3,3.9l-6.6,4,3.4.5c1.8.3,7,.7,11.6,1,10.3.7,13.4,2,14.3,6.3a13.16,13.16,0,0,0,1.8,4.7c.9,1.1.5,1.5-2.6,1.8-4.1.5-78.7-.5-162.8-2.2-125.8-2.5-156.6-3-199-3-41.4,0-70.8,1-74.9,2.6-2.3.9-2.2,6.9.2,7.9,3,1.3,50.7,2.4,147.7,3.5,113.7,1.2,171.1,1.3,173.3.1,1.7-.8,15.7-.1,73.7,3.9,35.6,2.5,46,3.6,49.9,5.5,2.4,1.3,11.9,1.3,66.5.5,65.9-1,79.8-1.5,81.8-3.2.8-.6,9.5-.6,25,.1,13.1.6,34.8,1.5,48.3,2.1,41.6,1.7,56.4,4.3,74.9,13.1,12.8,6.1,20.8,11.7,29.1,20.6,8.1,8.5,12.9,15.8,18.5,27.6,6.4,13.6,8.8,22.9,17.5,70.2,20,107.2,24.2,126,19,84.8-3.8-30.7-12.8-78.5-33.4-177.2-3.7-17.3-6.6-31.7-6.6-32s1.6,2.3,3.5,5.9l3.4,6.5.1-4.1c0-5.1,1-6,9-7.8s9.7-1.2,15.8,6.3l4.4,5.4-.3-5.6c-.5-6.8.4-7.4,1.8-1.5.6,2.4,3.8,13.5,7.1,24.8,9.4,32.3,18.3,72.4,35.7,162,3.8,19.6,23.5,126.3,23.5,127.5,0,.7-11.5-.7-14.3-1.7a5.79,5.79,0,0,1-3.3-3.4c-.3-1.3-1-2.4-1.6-2.4s-6.4,1.8-13.1,4.1c-10.1,3.4-13.1,4-17.1,3.5-2.6-.3-5.4-1-6-1.5-.8-.7-2.5-.7-4.9,0-2.1.5-4.1.8-4.6.5-1.4-.9-2.5-23.1-1.2-25.5,2.2-4,6-2.7,12.4,4.1l5.9,6.2-.4-14c-.3-7.6-.8-14.7-1.3-15.7-1.3-3-3.5-2-3.5,1.5,0,4.6-.9,5.5-6,6.7-14.5,3.2-34.9,3.6-180.2,3.3-96.8-.1-144.9.1-145.3.8s5.1,1,16.1,1c25.7,0,127.4,3,131.4,3.9,2.8.6,1.4.9-7.4,1.6-6.7.5-10.3,1.1-9.5,1.6a9.36,9.36,0,0,0,4.2.9c3.4,0,3.4.7.1,4.1-2.4,2.5-2.5,3.1-1.5,6a23.18,23.18,0,0,1,1.1,6v2.9l7.3.1c12.1.2,20,1.3,20.5,2.8.4,1.1-4.9,1.2-32.9.7-18.4-.3-60.2-1.1-92.9-1.6-84.7-1.5-129.3-2.9-130.1-4.2-.7-1.1-36.6-1.6-272.4-3.8-67.6-.7-125.7-1-128.9-.9-5.5.4-5.8.5-4.4,2,1.9,1.9,18.6,4.9,47.2,8.4,20.5,2.6,25.6,3.8,15.1,3.5-11.6-.3-48.8,0-48.4.4.6.7,115.3,6.5,159.9,8.2,9.6.3,19.1,1,21,1.4,2.2.5.4.6-5,.4-13.5-.7-120.3-2.4-146.9-2.4-14.3,0-24,.4-23.7.9.9,1.4,6.3,2,27.6,3.1,84.4,4.3,120.1,4.8,186.1,2.5,24.4-.8,42.8-1.1,44.5-.5l2.9.8-2.7.1c-1.4.1-19.7.5-40.5,1.1-52.9,1.4-88.4,3-90.2,4s2.3,1.5,24.9,3.5c15.2,1.4,14.9,1.4-22.5.9-52.6-.6-119.1-.5-122,.2-1.4.3-2.5,1-2.5,1.6s3.3,2.5,7.2,4.4l7.3,3.5-13.5-.6c-15.5-.6-23.3.2-23.8,2.6-.3,1.9-5.6,1.6,122.3,5.4,168,5,189.1,5.5,254.5,6.5,79,1.2,172.1,2.7,254,4,130.8,2.1,252,3.3,252.7,2.6.5-.4.8-14.8.7-31.9,0-32.8-.5-38.4-6-71.2-6-35.8-12.9-70.3-15.9-79.3-.8-2.3-1.5-4.5-1.5-4.7,0-.8,82.4-.5,125,.5,22.3.5,54.3,1.3,71.1,1.6l30.7.7.7-16.4c1.1-24.9-.8-33.8-15.5-74.9-13.1-36.7-20.5-59.7-47-147-22.7-75-34.5-108.2-43-121.6l-4.5-7.1-30.5-.6c-16.8-.4-57.3-1.1-90-1.7s-62.2-1.3-65.5-1.6l-6-.5-3.3-16.2c-8-38.6-14.7-69-17.8-80.5L771,614.9l3.6-3.1a55.27,55.27,0,0,0,7.5-8.9,51.53,51.53,0,0,1,8.3-9.4c3.8-3.1,4.6-4.5,6.1-10.3,1.7-6.3,2.2-7.1,10.2-14.7l8.5-8,1-7.8,1.1-7.8,5.8-4c3.2-2.3,6.4-5.5,7.2-7.2,1.2-2.4,3.7-13.1,3.7-15.4,0-.2.9-.3,1.9-.3,3,0,4.8-2.5,6-8a31.4,31.4,0,0,1,4.5-9.7c4-5.7,10.3-17.2,14.2-26.2,2.7-6.1,2.7-6.4.9-7.7a7.81,7.81,0,0,0-4.2-1.4c-1.3,0-2.3-.3-2.3-.6,0-1.3,4.5-8.1,9.2-13.7,3.5-4.2,4.8-6.7,4.8-9,0-1.8,1.4-5.6,3-8.6a30,30,0,0,0,2.8-5.7,32.21,32.21,0,0,0-5.8,1.2c-5.7,1.5-8.4,1.2-11.2-1.3-2.4-2.1-3.5-1-4.3,4.4l-.8,4.8-1.7-5.1c-2.1-6-5-11.8-5.6-11.1-.3.2,0,1.7.6,3.2,1.4,3.8-.5,7.4-5.5,10.2-5.5,3.1-8.2,2.9-14.3-1.3-3-2-5.5-3.4-5.6-3.2s-.7,1.5-1.3,3c-1.3,2.9-14,14.2-21.3,19-3.6,2.4-5.3,2.8-8.4,2.4-2.1-.2-4.8-1.3-5.8-2.4-1.8-1.7-1.8-2.2-.5-5.3a108.74,108.74,0,0,1,7-11.9c3-4.7,5.4-8.6,5.3-8.8a38.31,38.31,0,0,0-6.1,1.8c-10.3,3.5-13.4,2.3-14.8-5.7a23.52,23.52,0,0,0-3.1-7c-1.9-2.9-2.6-5.8-3.2-11.9-.6-8.1-.7-8.2-4.3-10.2-5.1-2.9-7.8-6.1-9-10.9-.9-3.1-2.5-5.3-6.1-8.4-2.8-2.3-5-4.9-5-5.8s1.1-4.2,2.4-7.4,2-5.7,1.5-5.7a1.89,1.89,0,0,0-1.4,1c-.9,1.5-8.7,1.2-13.6-.5s-7.8-4-9-7.3c-1-2.6-5.9-3-9.9-.7-5.9,3.4-10.2-.1-11.6-9.2l-.6-4.2-4.7,2.4c-5.3,2.9-7.8,3.1-10.8,1a34.54,34.54,0,0,0-8.3-2.9c-10.2-2.4-10.9-4.3-6.1-15.1l2.9-6.4-8.1,7.1c-9.6,8.3-15.9,11.8-18.5,10.2a27.8,27.8,0,0,1-4.8-5.6l-3-4.5-6.4,3.8c-7,4.3-15.9,7.9-19.3,7.9-4.8,0-9.7-6.4-9.7-12.6,0-3-.2-3-6.7.6-2.9,1.7-5.3,2.8-5.3,2.5s2.3-5.1,5.1-10.8l5.1-10.2-4.4,4.7c-2.4,2.7-5.2,4.8-6.1,4.8-2.8,0-5.4-3.4-6.6-8.7l-1.2-5-7.2,1.8a53.14,53.14,0,0,1-9.3,1.9c-3.5,0-13.7-6.4-15.7-9.9-1-1.7-2.2-3.1-2.7-3.1-2.5,0-16,5.6-19.8,8.2-2.3,1.6-8.3,7.5-13.2,13.2s-10.8,11.6-13.2,13.3l-4.4,3.1-6.2-8.3a88.22,88.22,0,0,0-12.1-13.2c-3.2-2.6-6.1-5.6-6.4-6.5-.6-1.9.4-42.9,2.9-118.8.9-28.3,1.7-72.3,1.8-97.7l.1-46.1-2.3-2.5-2.4-2.5,2.4-3.2c1.9-2.6,2.4-4.6,2.6-11.9l.4-8.8L477,3C472.8,0,466.4-.6,462.4,1.7ZM472,6.9c2.8,1.4,3.6,2.6,4.2,5.7,1.3,7.1,1,8.4-1.6,8.4-6.8,0-11.6-4.4-11.6-10.8C463,4.9,466.2,3.7,472,6.9Zm.6,35.8c1.4,16.8-5.9,319-7.8,320.8-.2.3-1.9.8-3.8,1.1l-3.3.7.6-43.9C459,273.2,462.4,158,464,124c.6-11.8,1.5-31.2,2-43,2.3-49.4,2.1-47,4-47C471.6,34,471.9,35.3,472.6,42.7ZM546,298.8c0,1.4-4,5.2-5.6,5.2-1.1,0-1.2-.4-.4-2C541.5,299.2,546,296.8,546,298.8Zm35.4,1.7a4.36,4.36,0,0,1-1.9,1.9c-.7.2-1.6,1.9-2,3.6a6.83,6.83,0,0,1-6.1,5c-1.5,0,0-4.2,2.1-5.6a7.85,7.85,0,0,0,3.1-4,3.87,3.87,0,0,1,2.2-2.7C581.1,298.2,582,298.8,581.4,300.5ZM567,305.7c0,1-4.2,5.3-5.1,5.3s-.1-2.9,1.4-4.8C564.3,304.9,567,304.5,567,305.7Zm-85.4,6.5a44.77,44.77,0,0,0,4.7,7.6c1.7,1.8,2.2,3.9,2.5,11.2.4,7.9.7,9,2.3,9,2.5,0,3-1.1,3.8-8.8l.7-6.7,5.2,10.2c2.8,5.6,5.6,10.5,6.3,10.8a29.49,29.49,0,0,1,4,5.3c2.3,3.7,2.9,5.7,2.9,10.4,0,5.5.1,5.8,2.5,5.8,2,0,3,1,5.1,5.2,4.6,9.2,13.3,21.3,22,30.9,3.2,3.5,4.4,5.8,4.9,9.3.7,4.3.9,4.6,2.4,3.1,2.8-2.4,3.9-1.8,7.2,4,1.7,3.1,3.9,5.9,4.8,6.4s2.2,2.6,2.9,4.8c2.4,6.8,3.4,8.3,6,8.3,2.4,0,2.4.1,1.7,6.2-.4,3.5-1.3,9.6-2,13.6-1,6.1-1,7.2.1,6.8,2.3-.9,4.7,3.6,10.3,19.2,4.9,13.5,5.8,15.2,8.3,16.1,1.5.5,5.8,3.8,9.5,7.3s16.9,14.5,29.3,24.4,26.6,21.3,31.6,25.4l9.2,7.5,3,11.5c3.9,14.6,5.1,21.2,5.9,33.1.7,10.9-.1,16.9-2.2,16.9-2.7,0-5.9,7.9-15.5,38l-.8,2.5-.6-2.8c-.3-1.5-.8-3.8-1.1-5.2-.5-2.3-.9-2.5-3.8-2-2.6.5-3.7.2-5.6-1.9A13.45,13.45,0,0,0,646,653c-.4,0-2.4,4.7-4.4,10.4s-5.3,12.8-7.2,15.7c-3.2,5.1-3.4,5.8-3.4,14.6v9.2l-13.2,4.2c-7.3,2.3-18.7,5.5-25.3,7.1-15.5,3.9-24.1,3.6-43.7-1.6-9.1-2.4-16-3.6-20.3-3.6-6.2,0-6.7.2-8.3,2.9-2.1,3.8-6.5,4.9-20,5.2-16.5.3-15.3-.7,10.6-9.1,10.5-3.4,19.5-6.6,19.8-7.1.6-1-3.4-1-16.1,0-4.9.4-9.8.4-10.7-.1-4.3-2.1-5-15.5-2.7-50.6,1.4-22.8-.2-20.8,17.9-21.8,6.6-.4,11.9-.8,11.8-.9s-5.6-1-12-1.9c-15-2.2-18.1-1.7-21.3,3.8-2.7,4.8-3.5,8.8-7,36.5-2.6,21.1-4.8,31.7-7,34.8-1.2,1.7-1.5,1.7-4.9,0a19.18,19.18,0,0,0-5.5-1.7,3.17,3.17,0,0,1-2.6-2.3c-.4-1.2-1-15.4-1.2-31.6l-.5-29.3,4.8-5c6.6-6.7,13.6-11.4,28-18.6,16.1-8,45-20.7,51.9-22.7,6.4-1.9,8.9-3.8,11.3-8.5.9-1.9,3.7-4.9,6.2-6.7,7.8-5.8,10-8,10-10.4,0-2-1-1.4-7.1,4.6-7.9,7.8-7.8,8-2.4-7.2,1.9-5.4,2.9-9.5,2.4-9.9s-4.9,1.6-9.7,4.3c-8,4.4-9,5.3-11.9,10.8l-3.2,6L549,566l-.1-6.5-3.7,6.9c-4.3,8.1-6.2,9.7-9.3,7.8-1.1-.7-2.3-1.1-2.6-.9-.4.5-2.2,11.9-2.3,14.6,0,.8-.3,1.2-.6.8s-1-9.3-1.4-20c-.8-19-1.6-23.7-4.4-23.7-1.9,0-4.3,3-5.4,7-.8,2.8-1,.8-1.1-9.8-.1-7.4-.5-13.2-1-13.2s-1.1,1-1.3,2.2-.7,2.3-1.2,2.3c-1.6,0-2.4-4.7-3.1-18.2-.4-7-.9-13.1-1.1-13.4s-2.9.1-5.9.9l-5.6,1.6.5,11,.6,11.1-1.5-5.5c-2.8-10-6-14.2-8.2-10.8-1,1.8-2-3.1-2.2-10.9-.2-10.2-1.8-8-2.4,3.4-.6,10.1-1,12.3-2.3,11-.9-.9-2.3-19.1-2.4-30.7,0-8.7-.3-10.1-1.3-8.5-1.8,3.1-1.3,25.4,1.2,46.2,1.1,10.1,2.1,19.1,2,20,0,1.5-5.9-18.4-8.3-27.9-.4-1.9-1.1-2.5-2.1-2.2-2.5,1-2.7-2-1-13.8,2.2-14.3,2.1-28.2,0-31.4-1.3-2.1-2.4-2.4-7.8-2.5a34,34,0,0,1-8.1-.8c-1.5-.6-1-1,2.4-2.1s4.6-1.1,6.1-.2c1.7,1.1,2.1.9,3-1.5,1.3-3.4,3.5-21.1,4.3-34.8.8-12.1,4.6-105,4.6-111.8C476,305.3,478.2,305.5,481.6,312.2Zm55.4-1.7c-2.7,1.4-3.6,1.3-2.5-.4.3-.6,1.6-1.1,2.8-1.1C539.4,309.1,539.4,309.1,537,310.5Zm25,3.1c0,2.2-2.4,4.4-4.8,4.4l-2.7-.1,2.8-2.4C560,313.1,562,312.3,562,313.6Zm10,.1c0,1.2-4.3,5.3-5.7,5.3-1.9,0-1.6-1,.9-3.7C569.2,313.1,572,312.2,572,313.7Zm-22,3.2c-1,2-3,2.9-3,1.4,0-1,3.3-4.4,3.7-3.9C551,314.6,550.7,315.8,550,316.9Zm27.6,1.9c-2.5,2.6-2.6,2.6-2.6.5a5.61,5.61,0,0,1,2.2-3.8C580.5,313.2,580.8,315.6,577.6,318.8Zm10.5-.9c-1.3,2.3-5.1,3.5-5.1,1.6,0-1.5,2.7-3.4,4.8-3.5C588.7,316,588.8,316.5,588.1,317.9Zm-56.1,1c0,1.1-2.9,3.5-3.5,2.9-1-.9.7-3.8,2.1-3.8C531.4,318,532,318.4,532,318.9Zm42,6.2c0,1.8-.2,1.9-1.5.9-1.5-1.2-1.2-3,.6-3C573.6,323,574,324,574,325.1Zm9-.1a3.61,3.61,0,0,1-2.5,2c-1.3,0-1.3-.3-.3-2a4.19,4.19,0,0,1,2.6-2C583.8,323,583.8,323.5,583,325Zm11.7,2.4a3.61,3.61,0,0,1-3.2,1.6c-2.2,0-2.4-.3-1.5-1.9C591.8,323.6,596,323.9,594.7,327.4Zm-24.3,3.1c-.7,1.7-3,2-3.8.6-.4-.5,0-1.2.6-1.4C569.7,328.7,570.9,329,570.4,330.5Zm8.4.7a3.45,3.45,0,0,1-2.4,1.7c-1.6.3-1.7.1-.5-1.3C577.5,329.7,579.3,329.5,578.8,331.2Zm12.6,1.3c-.7,1.6-1.4,1.8-3.8.9-2.6-1-1.8-2.4,1.4-2.4C591.2,331,591.8,331.4,591.4,332.5Zm33.6,0c-.7.8-1.6,1.2-2.1.9-1.3-.8-.1-2.4,1.8-2.4C626,331,626,331.3,625,332.5Zm-23.2,2.2c-.2,1.1-1.4,1.9-3.1,2.1-2.9.4-3.5-.6-1.5-2.6S602.2,332.7,601.8,334.7Zm63.8,1c-.8.8-5.6-.6-5.6-1.7,0-.5,1.3-.5,3.1.2C664.7,334.8,665.9,335.5,665.6,335.7Zm-53.1.3c.4.6-.5,1-1.9,1s-2.6-.5-2.6-1,.9-1,1.9-1S612.2,335.4,612.5,336Zm22.3.2c2.1,2.1,1.3,2.7-1.8,1.7-1.6-.6-3-1.5-3-2C630,334.6,633.4,334.8,634.8,336.2Zm-88.8.7c0,1.3-2.9,3.5-3.7,2.8s1.5-3.7,2.8-3.7A.9.9,0,0,1,546,336.9Zm11,.1c1.2.8.9,1-1.3,1-1.6,0-2.6-.4-2.2-1C554.3,335.8,555.1,335.8,557,337Zm28.8,1.9c1.1.7,1.1.9-.2,1.4-2,.8-4.8-.2-4-1.4S584.1,337.8,585.8,338.9Zm36.7.1c.3.5,0,1-.9,1a11.4,11.4,0,0,0-3,.6c-1.1.4-1.6.1-1.6-1C617,337.8,621.5,337.3,622.5,339Zm22.9,3.1c-.7,1.2-4.1,1.1-4.9-.1a2.47,2.47,0,0,1,.6-2.6c1-1.3,1.4-1.2,3,.2C645.1,340.5,645.7,341.7,645.4,342.1ZM672,339c.8.5,1.1,1.2.7,1.6s-1.5,0-2.4-.9C668.5,337.9,669.5,337.4,672,339Zm-76.6,1.5c2.3,1.7,1.3,3.4-1.1,1.9-1.9-1.2-2.9-3.4-1.6-3.4A7.5,7.5,0,0,1,595.4,340.5Zm63.7.3a2.72,2.72,0,0,1-2.3-.6c-.8-.8-.4-.9,1.3-.5C659.4,340.1,659.9,340.5,659.1,340.8Zm-30.6,1.8c2,1.5,2,1.6-.4,1.2a3.86,3.86,0,0,1-2.9-1.6C624.7,340.6,626.1,340.7,628.5,342.6ZM553,344a3,3,0,0,1-4,2.8c-1.2-.4,1.6-4.8,3.1-4.8C552.6,342,553,342.9,553,344Zm54-.5c0,.9-.9,1.5-2.5,1.5s-2.5-.6-2.5-1.5.9-1.5,2.5-1.5S607,342.6,607,343.5Zm-44.7.9c.3,1.2-3,3.2-3.9,2.4-1.1-1.2.5-4,2.1-3.6C561.4,343.4,562.2,343.9,562.3,344.4Zm119.1-.8a2.34,2.34,0,0,1,1.6,2c0,1-.6,1.1-3,.3-1.6-.6-3-1.5-3-2C677,342.9,679.1,342.7,681.4,343.6ZM582.6,346c0,2.4.2,2.3-3.1.8-1.8-.8-2.2-1.4-1.3-2C580.5,343.4,582.6,343.9,582.6,346Zm56.8-1.4c1.6.6,2.3,3.4.9,3.4-1.1-.1-4.3-2.6-4.3-3.4S637.4,343.8,639.4,344.6Zm14.7,1.4c2.1,1.7,2.2,1.9.6,2-2.6,0-5.9-1.9-5.2-3.1C650.4,343.5,651.5,343.8,654.1,346Zm14.9-1c0,.5-.6,1-1.4,1a2.82,2.82,0,0,1-2.1-1c-.3-.6.3-1,1.4-1S669,344.4,669,345Zm-76,2a2.24,2.24,0,0,1-2.5,1.4c-2.8-1.1-1.5-2.7,2.8-3.3C593.7,345.1,593.6,345.9,593,347Zm21.8-.8c-.6,1.8-2.8,2.1-2.8.4a1.58,1.58,0,0,1,1.6-1.6C614.5,345,615,345.5,614.8,346.2Zm61.7,2c3,1.3,3.3,2.8.6,2.8-1.7,0-5.1-2.4-5.1-3.6C672,346.7,673.8,347,676.5,348.2Zm-51,.8c.3.5-.3,1-1.4,1s-2.1-.5-2.1-1,.6-1,1.4-1A2.52,2.52,0,0,1,625.5,349ZM603,350c0,.5-1.3,1-3,1s-3-.5-3-1,1.4-1,3-1S603,349.4,603,350Zm9,1.5c0,.9-.9,1.5-2.5,1.5s-2.5-.6-2.5-1.5.9-1.5,2.5-1.5S612,350.6,612,351.5Zm24,1.6c0,1.3-3.4,1.1-4.8-.3-2.1-2.1-1.3-2.7,1.8-1.7C634.7,351.7,636,352.6,636,353.1Zm70,1.1c0,1.3-1.7.9-3.4-.8-2.3-2.2-.8-3.9,1.5-1.8A5.89,5.89,0,0,1,706,354.2Zm-56.3-2.6a2,2,0,0,1-1.9.1c-.8-.3-.5-.6.6-.6S650.1,351.3,649.7,351.6Zm71.7,2.7c2.5,3.4,1.6,4.3-2.3,2.2-3-1.5-3.9-3.4-2.4-4.9C717.8,350.6,719.2,351.4,721.4,354.3Zm-100.6.4c-.5,2.6-3.8,2.9-3.8.4,0-1.5.6-2.1,2.1-2.1S621,353.5,620.8,354.7Zm-32.5,0a5.28,5.28,0,0,1-2.5,0c-.7-.3-.2-.5,1.2-.5S588.9,354.4,588.3,354.7Zm84.2.3c.7,1.2-.2,1.2-3,0-1.9-.8-1.9-.9.2-.9C670.9,354,672.2,354.4,672.5,355Zm13.1.7c.9.9,1.2,1.9.7,2-1.7.6-6.5-1.6-5.8-2.7C681.4,353.5,683.7,353.8,685.6,355.7Zm-86.6.8c0,.9-.9,1.5-2.5,1.5s-2.5-.6-2.5-1.5.9-1.5,2.5-1.5S599,355.6,599,356.5Zm59.4,0c.3.8.2,1.5-.3,1.5a4.12,4.12,0,0,1-2.1-1.5c-1-1.2-1-1.5.3-1.5A2.67,2.67,0,0,1,658.4,356.5Zm-93.6,1.7c-.7,1.9-4.5,2.1-5.1.4-.5-1.2.1-1.6,2.4-1.6Q565.1,357,564.8,358.2Zm64.2,1.9c0,.6-.7.8-1.6.5a15.63,15.63,0,0,0-2-.6c-.2,0-.4-.7-.4-1.5,0-1.3.4-1.4,2-.5C628.1,358.6,629,359.6,629,360.1Zm87.1,0c.5,1.1.7,1.9.5,1.9-1.2,0-7.6-3.4-7.6-4C709,356.5,715.1,358.4,716.1,360.1ZM574,359.5c0,.8-.9,1.5-2,1.5-2,0-2.6-1.1-1.3-2.3S574,358,574,359.5Zm32.5-.5a2.82,2.82,0,0,1-2.1,1c-.8,0-1.4-.5-1.4-1s.9-1,2.1-1S606.8,358.4,606.5,359Zm59.5.9c0,1.2-2.6,3.2-3.3,2.5-.9-1,.4-3.4,1.9-3.4C665.4,359,666,359.4,666,359.9Zm14.6.5c1,.8,1.6,1.8,1.2,2.2-1,.9-5.8-1.2-5.8-2.6S678.3,358.8,680.6,360.4Zm48.1.8c3.8,4.3,3.9,5.3.2,3.2-1.9-1.1-3.5-2.8-3.7-3.7C724.7,358.3,726.3,358.6,728.7,361.2ZM617,362.6c0,2.5-.6,2.5-3.8.1-1.1-.8-1.1-1.2,0-1.8C615.6,359.3,617,360,617,362.6Zm-23.3,1c-.3.4-1.4.3-2.4,0-1.5-.6-1.5-.8-.3-1.6C592.6,361,594.9,362.4,593.7,363.6Zm115.6.3c1.9,1.2,2.5,2.1,1.8,2.6-1.3.8-6.1-2-6.1-3.5S706.2,361.8,709.3,363.9Zm-158.3.6c0,1.6-3.5,2.1-4.4.6-.8-1.2.4-2.1,2.6-2.1A1.69,1.69,0,0,1,551,364.5Zm125,1c1.5.9,1.2,3.5-.4,3.5s-6.6-3.8-6.6-5C669,363.2,673.9,364.2,676,365.5Zm-107.5.5a2,2,0,0,1-1.2,1.7c-.8.3-1.3-.4-1.3-1.7s.5-2,1.3-1.8A2.3,2.3,0,0,1,568.5,366Zm55.1.9a3,3,0,0,1-2.2,1.1c-1.2,0-1.3-.4-.3-2.1.7-1.4,1.4-1.8,2.1-1.1A1.88,1.88,0,0,1,623.6,366.9ZM724,367l2.1,3H724c-1.7,0-4-3.2-4-5.6C720,363,722.2,364.4,724,367Zm-143.5,0a2.82,2.82,0,0,1-2.1,1c-.8,0-1.4-.5-1.4-1s.9-1,2.1-1S580.8,366.4,580.5,367Zm66,.1c1.1,1.7-.1,2.1-1.5.4-.8-.9-.8-1.5-.2-1.5A2.17,2.17,0,0,1,646.5,367.1Zm42.1-.1c1.5.6,2.4,1.3,2.1,1.6-.8.9-6.7-.6-6.7-1.7S685.2,365.8,688.6,367Zm-225.2.9c1,1.5.7,67.5-.3,71.5-1.1,4.3-2.4,5.6-6,5.6-2.3,0-2.3,0-1.7-9.3.3-5,.8-16,1.1-24.2.8-20.2,2.4-39,3.5-42C461,367,462.4,366.3,463.4,367.9Zm126.2,1.8c-.8.8-3.6-.5-3.6-1.7,0-.7.6-.7,2.1,0C589.2,368.7,589.9,369.4,589.6,369.7Zm20.9-1.7c1.8.8,1.7.9-.7.9-1.6.1-2.8-.4-2.8-.9C607,366.8,607.8,366.8,610.5,368Zm20.5,2c-.6,1.2-1.4,1.9-1.7,1.7s.1-1.5.7-2.7,1.4-1.9,1.7-1.7S631.6,368.8,631,370Zm72.1-1.1c1.3,1.1,2.2,2.2,1.9,2.5-.8.7-5.3-1.7-5.8-3.2C698.6,366.4,700.4,366.7,703.1,368.9Zm36.8,3.5c1,1.2,1,1.6.2,1.6-2.8,0-7-3.2-7.1-5.3C733,367.6,738.4,370.5,739.9,372.4Zm-21.9.4c-1.5.5-4.1-1.8-3.4-3,.3-.5,1.5-.1,2.6.9S718.7,372.6,718,372.8Zm-64.4-.1c-.7.7-2.6-.7-2.6-1.9,0-.6.6-.6,1.5.2S653.8,372.5,653.6,372.7Zm28.2.8c-1.2,2.7-2.8,2.4-2.8-.6a1.77,1.77,0,0,1,2-1.9C682.7,371,682.8,371.3,681.8,373.5Zm16.5,1.3c2.4,2.1,2.1,3.5-.5,2.7s-5-3.4-4.2-4.7C694.2,371.9,695.5,372.5,698.3,374.8Zm-56.3-.3c.7.8.8,1.5.2,1.5a4.29,4.29,0,0,1-2.2-1.5c-.7-.8-.8-1.5-.2-1.5A4.29,4.29,0,0,1,642,374.5Zm91,1.1c1.3,3.2,1.3,3.4-.3,3.4-2.4,0-5.1-2.6-4.4-4.4C729.3,372.2,731.9,372.7,733,375.6Zm-178.3.9c19.4,1.4,50.5,10.1,69.7,19.4q48.9,23.85,76,80.2c13.3,27.6,19.6,61.3,19.6,105.1,0,15.9-.2,18.8-1.5,18.8a3.72,3.72,0,0,0-2.5,1.9c-1.1,2.2-3.5,21-4.5,36.8l-.8,10.3-4.1,3.4c-2.2,1.8-16.2,15.6-31.1,30.6-25.4,25.6-38.9,37.9-46.7,42.4l-3.3,2,3.6-4.5c1.9-2.4,6.1-7.6,9.3-11.6a82.4,82.4,0,0,1,12.7-12.4,68,68,0,0,0,21.1-24.7c9.6-18.1,11.3-30.3,11.2-79.2-.2-61.4-4.9-92-18.3-119.5-14.2-28.9-34.9-53.4-58.1-68.6-8.4-5.6-27.1-15.3-37-19.3-6.8-2.8-27.1-8-35.5-9.2a21.85,21.85,0,0,1-6-1.3c-1.1-.6,12.3-1.8,16.5-1.4C546.4,375.8,550.7,376.2,554.7,376.5Zm108.8,2.3c-.6.7-3.5-1.8-3.5-3.1,0-.5.9-.2,2,.8S663.8,378.5,663.5,378.8Zm48-1.8c1.8,1.9,1.7,2-.2,2-2.2,0-4.7-2.3-3.6-3.3S709.6,374.9,711.5,377Zm-63.1,1.5c.3.8.1,1.5-.4,1.5s-1-.7-1-1.5.2-1.5.4-1.5S648,377.7,648.4,378.5Zm39.9.4c2,.8,4.6,5.1,3,5.1-1.3,0-4.4-2.3-5.3-4C684.8,377.7,684.9,377.6,688.3,378.9Zm57.7,3.3c0,.4-1.1.8-2.5.8-2.8,0-3-.3-1.4-3.2,1.1-2.1,1.2-2.1,2.5-.3A6.26,6.26,0,0,1,746,382.2ZM636.5,380c.3.6-.5,1-1.9,1s-2.8-.5-3.1-1,.5-1,1.9-1S636.2,379.4,636.5,380Zm68.1,1.4c1,.8,1.6,1.7,1.2,2.1-1,1-4.5-.4-5.2-2C699.9,379.6,702,379.6,704.6,381.4Zm-33.8,1.8c1.9,1.9,1.4,3-.8,1.8-1.1-.6-2-1.5-2-2C668,381.6,669.4,381.8,670.8,383.2Zm69.3,1.6c1,2.5.1,2.8-2.6.9-1-.8-1.5-1.9-1.1-2.6C737.5,381.4,739.2,382.2,740.1,384.8ZM699,388.5c1.9,2.3.4,3-2.5,1.1s-3.6-5.3-.7-3.7A11.44,11.44,0,0,1,699,388.5Zm52.8-.1c1.2,2.7.7,3.7-1.4,2.9-1.5-.5-2-5.3-.6-5.3C750.3,386,751.2,387.1,751.8,388.4ZM712,390a3.07,3.07,0,0,1-1,2.5c-.6.4-1-.7-1-2.5s.4-2.9,1-2.5A3.07,3.07,0,0,1,712,390Zm20.8-1.8c1.9,1.9,1.4,3-.8,1.8-1.1-.6-2-1.5-2-2C730,386.6,731.4,386.8,732.8,388.2Zm11.6,3.7c1.6,1.7,1.6,1.9,0,2.5-1.8.7-3.4-.8-3.4-3.2C741,389.4,742.4,389.7,744.4,391.9Zm-39,3.4c1.3,2,.5,3-1.8,2.1a2.84,2.84,0,0,1-1.6-2.6C702,392.6,703.8,392.8,705.4,395.3Zm14,.3c2,2,2,2.4-.1,2.4-2.6,0-4.7-1.6-3.9-2.9C716.4,393.6,717.6,393.7,719.4,395.6Zm37.4,2.3c.3,3,.2,3.2-1.7,2.1s-2.8-4-1.4-5.4S756.5,394.7,756.8,397.9ZM738,396.5c2.1,2.5.1,3.1-2.2.7-1.8-1.8-1.9-2.2-.6-2.2A4.59,4.59,0,0,1,738,396.5Zm-94.6,2.1c.5,1.4.4,1.5-.9.4-1.7-1.4-1.9-2-.6-2C642.4,397,643.1,397.7,643.4,398.6Zm88.5,2.4c.5,1.6.7,3,.4,3-1.2,0-4.3-3.3-4.3-4.7C728,396.8,730.8,398,731.9,401Zm19.1-.3a7,7,0,0,1-.9,3.2c-.7,1-1.2.8-2.4-1-1.9-2.6-1.4-3.9,1.4-3.9A1.74,1.74,0,0,1,751,400.7ZM651.1,403c1.7,1,2.7,4,1.3,4-1.6,0-4.4-2.3-4.4-3.5C648,401.7,648.5,401.7,651.1,403Zm92,1.1c1.6.8,1.8,1.3.9,2.4-1.5,1.7-3.7.9-4.3-1.6C739.1,402.8,740.2,402.5,743.1,404.1Zm18.3,1.1c.9,3.4.8,3.8-.9,3.8q-1.5,0-1.5-3C759,402.5,760.5,402,761.4,405.2Zm-6,2.4c1.2,3.1.6,4.4-1.9,4.4-4,0-3.4-5.4.6-5.9C754.5,406,755.1,406.7,755.4,407.6Zm-96,2.3a3.31,3.31,0,0,1,0,2.6c-.6,1.5-.8,1.4-2.5-.1a5.16,5.16,0,0,1-1.9-2.6C655,408.7,658.7,408.8,659.4,409.9Zm87.6,2.6c1,1.2,1,1.8,0,3-1.9,2.3-3,1.8-3-1.5S745.1,410.2,747,412.5Zm18.6,1.1a11.4,11.4,0,0,0-.6,3c0,2-1.3,1.7-2.8-.6-1.5-2.5-.8-4,2-4C765.6,412,766,412.5,765.6,413.6ZM665,417.1c0,.5-.7.9-1.5.9s-1.5-.9-1.5-2.1c0-1.8.2-1.9,1.5-.9A4.12,4.12,0,0,1,665,417.1Zm94-.2c0,3.4-1.2,4.5-3.9,3.6-3.2-1-3.3-3.3-.3-4.9C758.6,413.5,759,413.6,759,416.9Zm-18.7.3c.8,2.8.2,3.4-1.7,1.9a2.7,2.7,0,0,1-.9-2.7C738.5,414.3,739.7,414.7,740.3,417.2ZM670.5,423c-1.1,1.7-2.3.1-1.8-2.1.5-1.9.7-1.9,1.5-.5A3.13,3.13,0,0,1,670.5,423Zm80.5.1c0,1-.4,1.9-1,1.9s-1-1.2-1-2.6.4-2.3,1-1.9S751,422,751,423.1Zm18.4,1c-1,1.6-2.4.9-2.4-1.2,0-1.8.2-1.9,1.5-.9C769.3,422.7,769.7,423.6,769.4,424.1ZM744,426.6c0,3.1-2.3,2.8-2.8-.4-.2-1.5.2-2.2,1.2-2.2S744,424.9,744,426.6Zm17.4,2.1c-2.5,1.8-4.5,1.7-3.7-.3s4.6-3.6,5.2-2.1C763.1,426.9,762.5,427.9,761.4,428.7Zm12,1.5c.6,3.1-.7,5.1-2.9,4.5-1.5-.5-1.8-4.6-.5-6.3C771.9,426.3,772.7,426.7,773.4,430.2Zm-18.4,2c0,.6-.7.5-1.5-.2a4.29,4.29,0,0,1-1.5-2.2c0-.6.7-.5,1.5.2A4.29,4.29,0,0,1,755,432.2Zm10.8,2.5c.3,2.3-2.2,5.3-4.5,5.3-1.2,0-1.4-.7-.9-3.2C761.4,431.9,765.2,430.4,765.8,434.7Zm-136.8.7c0,1.6,2.9,4.1,8,6.9,5.3,2.9,2.6,3.1-4.7.3-3.7-1.4-8.7-3-11-3.6-2.5-.6-4.3-1.7-4.3-2.5,0-1.6,2-2.2,7.8-2.4C627.8,434,629,434.4,629,435.4Zm145.9,6.7c-1.7,3.3-3.6.8-2-2.8,1.1-2.4,1.4-2.6,2.2-1A3.52,3.52,0,0,1,774.9,442.1Zm55.8-3.5c.4,1.3-2.3,4.4-3.8,4.4-1.1,0-1.2-4.3-.2-5.4S830.3,437.3,830.7,438.6Zm-75,1.6c-.3.8-.6.5-.6-.6s.2-1.7.5-1.3A2,2,0,0,1,755.7,440.2ZM857,442.6c0,1.4-.6,2.4-1.4,2.4-1.5,0-3-4.5-2-6.1S857,439.9,857,442.6Zm-16-1.1c0,1.9-2,2.8-5.2,2.3-2.2-.3-2.2-.4.7-2C840.3,439.7,841,439.6,841,441.5Zm-217,2.7c1.9.6,7.8,3,13.1,5.5,7.8,3.6,10.1,5.2,11.5,7.9,1,1.8,1.5,3.6,1.2,3.9-.9.9-8.7-3.3-12.7-6.8-4.2-3.6-11.7-7-21.3-9.7-3.9-1.1-7.4-2.2-7.7-2.6C607.3,441.5,619.8,442.9,624,444.2Zm144.1,1c.8,3.3-.5,3.6-3.9,1.2-1.9-1.3-2.1-1.9-1.1-3C764.9,441.2,767.3,442.1,768.1,445.2Zm55.2-1.6c.9.9-.3,3.4-1.7,3.4a6.56,6.56,0,0,1-2.6-1c-1.3-.9-1.3-1.1,0-2C820.7,442.9,822.4,442.7,823.3,443.6Zm25.2,3.3c-.8,1.7-1.8,3.1-2.1,3.1-1,0,.7-5.4,1.9-6.2C850.2,442.7,850.2,443.6,848.5,446.9Zm-15.4.3c-1.8,4.8-7.2,4.8-5.6-.1.4-1.5,1.5-2.1,3.5-2.1C833.6,445,833.8,445.3,833.1,447.2Zm-212.6,2.7a66.17,66.17,0,0,1,8,3.4l3,1.7-4-.6c-6.6-1-20.5-5.4-20.5-6.5C607,446.6,613.7,447.6,620.5,449.9ZM759,448.5c.7.9,1,1.8.7,2.1-1,1.1-3.7-.5-3.7-2.1C756,446.6,757.4,446.6,759,448.5Zm19,.5c0,1.6-.7,2-3,2-2.8,0-3-.2-2-2a4,4,0,0,1,3-2A1.8,1.8,0,0,1,778,449Zm36,.1c1.4,2.4,1.3,2.5-2.3,3.4-2.9.8-3.4-.3-1.7-3.6C811.4,446.4,812.7,446.5,814,449.1Zm29.3,0c.7,2.5-.8,6.9-2.3,6.9-.5,0-1-1.3-1-2.9C840,447.6,842.2,444.9,843.3,449.1Zm-261,1.7a20,20,0,0,1,3,5.7c1.8,5.1,2.9,19,1.9,23.5-.7,3-1,1.7-2.2-8a113.83,113.83,0,0,0-2.1-13.5c-.8-1.9-.8-1.9-1.5.5l-.8,2.5-.7-2.5c-1-3.6-1-10-.1-10A5.33,5.33,0,0,1,582.3,450.8Zm273.4,1.4c-.3.7-.5.2-.5-1.2s.2-1.9.5-1.3A5.28,5.28,0,0,1,855.7,452.2ZM768,453c-.6,1.2-1.4,1.9-1.7,1.7s.1-1.5.7-2.7,1.4-1.9,1.7-1.7S768.6,451.8,768,453Zm56.5,0c-1.5,2.9-4.5,4.2-4.5,1.9s2.2-4.9,4.1-4.9S826,450.2,824.5,453Zm-214.3.9c10.5,2.7,23.2,8.4,29.4,13.2a39,39,0,0,0,9.5,5.4,57,57,0,0,1,11.2,6.6c5.2,3.8,7.4,6.1,8.9,9.6,1.7,3.9,1.8,5,.8,6.7s-.9,2.2.9,3.7c2.7,2.2,2.7,4.9.1,4.9-1.8,0-1.7.4,1.3,6,2.6,4.9,2.9,6.2,1.8,6.9s-1.2,2.1-.7,5.9c.4,3.2.3,5.1-.4,5.4s-.1,2.8,1.5,7.1c2.9,7.7,3.2,11.7,1,11.7-1.5,0-1.6.5-1.9,13.4-.1,1.6-.6,3.1-1.1,3.3s-4.6-5.1-9-11.7c-7.5-11.4-8.1-12-9.4-10.1-2,3.1-3.6,2.6-7.6-2.4-3.2-3.8-4.1-4.3-6.5-3.9-3.2.7-4-.4-6.9-8.9-1.6-4.6-2.2-5.2-6.2-6.6-6.8-2.4-7.6-3.1-5.3-4.8,1.8-1.3,1.7-1.5-1.4-3.9s-6.1-7.3-7.6-12.2c-.7-2-.4-2.2,3.7-2.2,3.1,0,4.9.6,6.2,2,1.6,1.7,18.5,8,21.7,8,.6,0-.8-1.4-3-3-4.4-3.2-5.2-4.7-2.7-5.6,2.2-.9,1.8-2.7-1.2-5.7-4-3.8-11-6.6-21.7-8.6a90.6,90.6,0,0,1-10.5-2.5c-1.8-1.1-1.3-3.2,1.1-4.3,2-.9,1.8-1.1-2.5-2.1-2.6-.7-4.7-1.7-4.7-2.4,0-1.4,11-.5,18.8,1.6,4.5,1.1,5.2,1.1,4,0-.7-.7-6-2.5-11.7-3.9-11.4-2.8-14.5-4.1-13.6-5.6.7-1.1,1.7-.9,18.7,3.8,15.3,4.1,19.5,3.9,8.3-.4-7.4-2.9-15.3-5-26.4-7-2.5-.4-4.6-1.4-4.9-2.2-.7-2.1,11.7-.8,25.8,2.8,6.3,1.6,11.7,2.7,11.9,2.5,1.4-1.3-18.9-7.6-32-9.9-4.6-.8-8.8-2-9.3-2.6C587,450.2,600.7,451.5,610.2,453.9ZM807,454a6.46,6.46,0,0,1-3.4,2.9,10.12,10.12,0,0,0-3.5,2.5c-2.7,3.3-5.6.6-3.3-3.1.9-1.5,7-4.2,9.5-4.3C807.8,452,807.9,452.3,807,454Zm27.4.2c-1.3,4.6-2.3,5.5-2.4,2.2,0-3.1.6-4.4,2.2-4.4C834.7,452,834.8,453,834.4,454.2Zm-54.8.3c.6,1.5-1.1,4.5-2.6,4.5-1,0-1.8-3.1-1.3-4.8S778.9,452.7,779.6,454.5Zm71.4.4c-1.2,2.3-2.9,3.5-3.7,2.7s2.6-4.6,3.9-4.6C851.7,453,851.6,453.9,851,454.9Zm-34,1c0,2-1.3,4.1-2.5,4.1-2.1,0-2.8-1.9-1.5-3.5S817,454.5,817,455.9Zm12,2.9c0,2.1-3.4,5.3-5.3,5-3-.4-2.8-3,.3-4.5C826.8,457.9,829,457.6,829,458.8Zm-59.9,3.5c-.8.8-1.1.7-1.1-.4a3.7,3.7,0,0,1,.7-2.3c.4-.4.9-.2,1.1.4A2.33,2.33,0,0,1,769.1,462.3Zm24-1.7c1,1.3,1,1.7-.2,2.5-1.7,1.1-7.2,1.2-6.6.1a18.11,18.11,0,0,0,1-2.5C788.1,458.6,791.3,458.5,793.1,460.6ZM842,462c-.6,1.2-1.4,1.9-1.7,1.7s.1-1.5.7-2.7,1.4-1.9,1.7-1.7S842.6,460.8,842,462Zm-31.9-.4c1,1.3,1,1.7-.2,2.5-2.3,1.4-3.9,1-3.9-.9C806,459.8,808,459,810.1,461.6Zm39.9,4.9c-.6,1.5-1.3,2.5-1.7,2.2s0-2.1.8-3.8C850.7,461,851.5,462.5,850,466.5Zm-47.6-.6c.3.5-.5,1.1-1.9,1.3-2.1.4-2.5.1-2.5-1.9s.3-2.2,1.9-1.3A6.73,6.73,0,0,1,802.4,465.9Zm16.6.1c0,2.3-.4,3-2,3-2.2,0-2.5-1.2-1-4.1S819,462.6,819,466Zm15.9-1.6c1.4,1.6.4,4.6-1.5,4.6-.9,0-1.4-1.1-1.4-3C832,462.8,833.1,462.2,834.9,464.4ZM773,469.8c0,1-.5,1-2,.2a3.61,3.61,0,0,1-2-2.5c0-1.3.3-1.3,2-.3A4.19,4.19,0,0,1,773,469.8Zm22.8-1.6c-.3,2.3-2.8,3.4-5.3,2.4-1.8-.7-.9-3.3,1.3-3.9C795.4,465.7,796.1,466,795.8,468.2Zm33.2.5c0,3.5-1.4,5.8-2.9,4.9s-1.4-1.7-.1-5S829,465.3,829,468.7Zm-18.3,3c-.4,1.7-.4,1.7-1.2,0a5.25,5.25,0,0,1,0-3.5c.8-1.6.8-1.6,1.2,0A6.92,6.92,0,0,1,810.7,471.7Zm32.3-2.5a6.79,6.79,0,0,1-1,2.8c-.8,1.2-1,.9-1-1.3,0-1.5.5-2.7,1-2.7A1.12,1.12,0,0,1,843,469.2Zm-38.5,1.9c1.1,1.6-.4,5.9-2,5.9s-2-2.6-.9-5.4C802.3,469.8,803.6,469.5,804.5,471.1Zm18.9,2.5a3.89,3.89,0,0,1-4.2,5.2c-3-.3-4.1-3-2.2-5.3C818.6,471.5,822.6,471.6,823.4,473.6Zm27.4,1.4a4.19,4.19,0,0,1-2.6,2c-1,0-1-.5-.2-2a3.61,3.61,0,0,1,2.5-2C851.8,473,851.8,473.3,850.8,475Zm-52.3.9c.5.9-3.1,4.1-4.7,4.1-1,0-1.1-3.4-.1-4.3S797.8,474.9,798.5,475.9ZM599.8,489.7c.4,8.8.3,10.5-.9,10.1-1.8-.6-2.6-4.6-2.8-12.8C595.9,471.3,598.9,473.7,599.8,489.7Zm212.8-11.2c1.8,2.7,1.3,5.5-1,5.5-1.6,0-2.6-2.1-2.6-5.6C809,475.3,810.5,475.3,812.6,478.5ZM789.3,480c.3,1.1.2,2-.3,2-.8,0-2-2.4-2-4.1S788.7,477.8,789.3,480Zm39.7.5c-1.7,2.1-3,1.9-3-.4a2.37,2.37,0,0,1,1.8-2.3C830,477.3,830.5,478.6,829,480.5Zm15,1.7c0,2.7-2.7,2.2-3.4-.7-.9-3.6.3-5.3,2.1-3A8.26,8.26,0,0,1,844,482.2Zm-372.4,2.4c-.8,3.1-3.6,3.2-3.6.1a9.53,9.53,0,0,1,1.8-4.7l1.7-2.5.3,2.4A15,15,0,0,1,471.6,484.6Zm335.4-3a10.35,10.35,0,0,1-1.1,2.6c-.9,1.7-1.3,1.8-2,.7-1.5-2.3-1-3.9,1.1-3.9C806.1,481,807,481.3,807,481.6Zm14.8,4.1c-1.8,2.2-2.8,1.4-1.6-1.2.8-1.8,1.4-2.2,1.9-1.3A2.31,2.31,0,0,1,821.8,485.7Zm13.3,1.6c-.8.8-1.1.4-1.1-1.4,0-3.3,1.4-4.7,1.8-1.9A4.32,4.32,0,0,1,835.1,487.3Zm-35.7-2.8a3.45,3.45,0,0,1-1,3c-3,2.9-4.4,1.3-2.4-2.6C797.3,482.6,798.6,482.4,799.4,484.5ZM463,485.9c0,2.3-1.9,3.1-7.1,3.1-7.4,0-3.2-4.7,4.4-4.9C462.3,484,463,484.5,463,485.9Zm328,2.7c0,3.1-2.3,2.8-2.8-.4-.2-1.5.2-2.2,1.2-2.2S791,486.9,791,488.6Zm24-.6c-1.2,2.2-4,2.7-4,.7s1-2.7,3.2-2.7C815.8,486,815.9,486.3,815,488Zm15-.7c0,1.8-2.7,5.3-3.4,4.6-.9-.9,1.1-5.9,2.4-5.9A1.23,1.23,0,0,1,830,487.3Zm12.7,3.9c-.3.7-.5.2-.5-1.2s.2-1.9.5-1.3A5.28,5.28,0,0,1,842.7,491.2ZM809,489.9a5.47,5.47,0,0,1-1.6,2.6c-1.9,1.9-3.8.7-2.8-1.8C805.2,488.9,809,488.3,809,489.9Zm14.4,1.8a12.31,12.31,0,0,1-2,4.3c-1.2,1.2-1.4,1.1-1.4-.9,0-2.7,1.7-6.1,3.1-6.1C823.6,489,823.8,490.2,823.4,491.7Zm-217.2.5c2.9,5.2,11.2,27.7,10.5,28.4-1,1.1-2.8-.7-5.8-6.1-1.7-3-3.9-5.7-4.9-6-2.3-.7-3-3.4-3-11.8C603,489.8,604,488.4,606.2,492.2Zm194.8.7c0,1.1-3.9,4.1-5.2,4.1-1,0-1.1-3.4-.1-4.3C796.7,491.6,801,491.9,801,492.9Zm14.4.7c1.1,2.9.7,6.4-.9,6.4-1.1,0-1.5-1.1-1.5-4C813,492,814.3,490.7,815.4,493.6Zm21.4,2.3c.3,2.4,0,3.2-1,2.9-.7-.3-1.4-1.9-1.6-3.7-.3-2.4,0-3.2,1-2.9C835.9,492.5,836.6,494.1,836.8,495.9Zm-377.7-.2c1.1,1.2,1.4,5,1.3,14.8-.1,15.4-.7,18.5-3.3,18.5-2.8,0-3.2-2-3.2-16.4C453.9,496.2,455.4,491.2,459.1,495.7Zm331.5,3c-1.1,1.1-1.9-.6-1.1-2.4s.8-1.7,1.2,0A3.05,3.05,0,0,1,790.6,498.7Zm18.2,1c-.3,4.2-2.1,5.1-2.6,1.5-.4-2.9.4-5.2,1.8-5.2C808.7,496,809,497.5,808.8,499.7Zm21.1-2.5a38.14,38.14,0,0,1-.9,3.8c-.7,2.2-.8,2.1-.9-1.3-.1-2,.4-3.7.9-3.7A1,1,0,0,1,829.9,497.2Zm-7.5,5c-1,1.8-1.9,2.8-2.1,2.1-.5-1.5,1.5-5.3,2.8-5.3C823.6,499,823.3,500.5,822.4,502.2Zm-21.2,2.5-1,2.8-1.1-2.9c-.9-2.3-.9-3.1.1-3.7C801.3,499.6,802.3,501.6,801.2,504.7Zm29.3,2.4c.8,2.5.1,3.4-2,2.6-1.9-.8-2-4.7-.1-4.7A2.64,2.64,0,0,1,830.5,507.1Zm-21.9,5.7c-1.3,1.2-1.7-.8-1-4l.9-3.3.3,3.3C809,510.7,808.9,512.4,808.6,512.8Zm-7.8,1.1c.3,2.4,0,3.2-1,2.9-.7-.3-1.4-1.9-1.6-3.7-.3-2.4,0-3.2,1-2.9C799.9,510.5,800.6,512.1,800.8,513.9Zm7.5,5.1c-.3,1.1-.7,2-.9,2s-.4-.9-.4-2,.4-2,.9-2S808.6,517.9,808.3,519Zm-1.6,9.7c-.3,1-.5.4-.5-1.2s.2-2.4.5-1.8A7.56,7.56,0,0,1,806.7,528.7Zm-7.1,3c-1.1,1.1-1.9-.6-1.1-2.4s.8-1.7,1.2,0A3.05,3.05,0,0,1,799.6,531.7ZM461,552a7.93,7.93,0,0,1,2,5.4c0,4.2-2.1,5.2-8,3.6l-4-1.1.1-4.9.2-5h3.9A8,8,0,0,1,461,552Zm7.2,16.6c.3.3.1,1.8-.5,3.4l-1.1,3-7.1-.6c-7.7-.7-10.5-1.7-10.5-3.9a2.22,2.22,0,0,1,1.8-1.8C453.3,568,467.6,567.9,468.2,568.6ZM461,594c2.2,4.2,3.3,25.6,2.7,56.5-.6,31.5-1.8,46.3-4.3,52.3-1.1,2.8-1.7,3.2-3.6,2.7-4.7-1.4-4.9-2.5-2.2-10.5,2.1-6,2.8-10,3.2-20,.4-12.1-1.3-61-2.7-75.8l-.7-7.2h3.3C458.9,592,460.3,592.6,461,594Zm305.9,34.2c3.2,16.1,14,62.4,24.1,103.3,10.3,41.8,18,75.5,18,79.1,0,1.2-.5,1.1-2.8-.6-2.6-2-3-2-7.1-.5-5.5,1.9-7.5,1.9-9.1-.1-.8-.8-2.8-7.9-4.6-15.7s-3.3-13.7-3.3-13,.8,7.1,1.9,14.5,2,14,2,14.8c-.1,2.2-4.8-3.8-6.1-7.8-.8-2.6-1.6-3.2-3.8-3.2a10.19,10.19,0,0,1-5.5-2.1c-3.2-2.5-4.3-1.9-5.2,2.7-.8,4.2-3.4,5.8-11.9,7.3-16.8,3-34.4,3.5-115.5,3.4-47.9,0-80.4.3-77.5.8q10.05,1.65,160.5,4.4c229.5,4.2,246.8,4.6,250,5.6,2.1.6,1.7.7-1.8.8a12.18,12.18,0,0,0-6.8,2c-1.3,1-5.7,2.7-9.6,3.7-8.2,2-8.6,1.7,6.4,4.9,4.8,1.1,7.5,2.1,7.1,2.7-1.4,2.4,38.9-1.2,42.4-3.7,1.7-1.3,1.7-1.5.1-4.3-1.9-3.2-2.4-7.2-.9-7.2a16.62,16.62,0,0,1,4.2,2.3c6.1,4.1,10.1,13.3,21.5,49.7,3.5,11.3,6.4,20.8,6.4,21.2s-1.2.3-2.7-.3-20.9-1.7-43.2-2.5c-40.7-1.4-427.3-12.8-477.1-14-14.6-.4-28.2-.9-30.4-1.3s8.5-.5,23.5-.4,26.7,0,25.9-.3-15.7-2.4-33-4.7c-26.5-3.7-32.6-4.8-37.7-7.2-9.4-4.2-9.6-4.6-9.1-16.9.5-11.4,2.1-15.6,6.1-15.7,2.2,0,2.2,0,.1-.9-3.3-1.3-3.9-8.3-1.8-18.8l.4-2.2h69.7l2.3-2.5c2.9-3,5.5-3.9,20.5-6.5,17.7-3.1,26-5.6,36-10.9A130.78,130.78,0,0,1,609,780c12.2-3.8,18.7-6.9,29.2-14.2,23.6-16.3,49.6-45,82.1-90.6,7.1-10,14.5-19.9,16.3-22l3.3-3.7.1,8c0,11.4,3,30.1,11,69l6.9,34-.4-21c-.2-11.6-1.3-30.8-2.5-42.8s-2-22.3-1.8-22.8,3.1,13.2,6.5,30.4c5.6,28.4,6.2,30.5,6.2,23.9.1-7.8-6.4-42.5-12-64.1-2.1-8.2-2.9-13.7-2.9-19.8v-8.5l6.7-6.9c3.6-3.8,6.9-6.9,7.3-6.9S766.2,624.8,766.9,628.2ZM358,642.9c-1.5,2.8-1.2,6.1.5,6.1s2.9,2.1,4.5,8.7c.6,2.9,1.8,5.7,2.6,6.4a4.53,4.53,0,0,1,1.4,3.2,6.66,6.66,0,0,0,1.5,3.7c.8.9,2.8,6.1,4.5,11.6s3.9,12.3,5,15.2a31.91,31.91,0,0,1,2,7.1c0,.9,1.1,2.8,2.5,4.1s2.5,2.9,2.5,3.7a1.35,1.35,0,0,0,1.4,1.3c.7,0,2.1,1.1,3,2.5a5,5,0,0,0,4.4,2.5,10.54,10.54,0,0,1,5.1,1.6,6.48,6.48,0,0,0,5.3,1c1.7-.3,3.6-.2,4.2.3s3,.4,6.1-.3c11.7-3,11.2-3.1,12.5,2.2.7,2.6,1.4,11.2,1.7,19.2l.5,14.5-2.6-2.8c-1.4-1.5-2.6-3.5-2.6-4.3s-1.1-1.9-2.5-2.4-2.5-1.6-2.5-2.5-1.1-2-2.5-2.5a3.46,3.46,0,0,1-2.5-3c0-1.5-.7-2-2.5-2-1.5,0-2.5-.6-2.5-1.4s-1-1.8-2.2-2.1a13.75,13.75,0,0,1-4.3-2.6c-1.1-1-4-2.2-6.3-2.8-4.3-.9-4.6-.8-12.7,4.5-8.3,5.4-10.5,6.3-10.5,4.4,0-2.1-4.2-.8-15.6,5-12.6,6.4-15.4,7.1-15.4,4.2,0-1.3,2.7-3.3,9.1-6.8,5-2.7,9.8-5.7,10.7-6.7,1.6-1.8,1.5-1.8-1.3-1.1-1.7.4-7.1,2.5-12.2,4.6-9.1,3.8-13.3,4.7-13.3,2.8,0-.5,3-2.5,6.8-4.4a75.1,75.1,0,0,0,8.7-5c2-1.5,2-1.5,0-1.6-1,0-5.4,1.6-9.6,3.6-7.4,3.5-11.6,3.9-10.7,1.1.3-.6,3.6-2.9,7.4-5,7.3-4,10.8-6.7,8.6-6.7a84.45,84.45,0,0,0-10.4,3c-13.5,4.3-13.2,2.7.9-6.1,10.5-6.6,8.8-7.9-2.7-2-8.2,4.3-12.9,5.1-14.9,2.7-1.4-1.7-1.3-1.8,7.7-5.4,6.7-2.8,14.2-7.6,14.2-9.2,0-1.4-7,1-16.9,5.6-5.1,2.4-9.6,4.4-9.8,4.4s-.3-1.2-.1-2.8c.3-2.7,3.3-4.6,24.6-15.9,1.7-.9,3.2-2.1,3.2-2.6,0-2.3-16.3,4.1-24.3,9.5-6.6,4.5-10.2,4.8-10.2.8,0-2.1,1.1-2.9,7.8-5.6,7.9-3.3,19.7-10.3,19.7-11.7s-4.9.3-17.2,5.4-17.2,6.3-14.7,3.3c.7-.9,4.4-3.1,8.2-5.1,11.6-5.8,29.5-18.3,26.3-18.3-.4,0-9,4-19.2,9s-18.9,9-19.4,9c-2,0-.9-2.1,1.8-3.2a38.84,38.84,0,0,0,5.7-3.4c1.7-1.2,7.7-4.7,13.5-7.7,11.9-6.4,14.8-8.3,13.8-9.2-.3-.4-8.9,3.6-19.1,8.9s-19.1,9.6-20,9.6c-2.8,0-1.9-2.7,1.6-5.3a143.16,143.16,0,0,1,12.7-7.5c9.4-5,17-10.5,16-11.5-.3-.3-7.6,2.8-16.2,6.8-17.6,8.3-20.8,9.4-20.8,7.3,0-.8,3.1-2.9,7.1-4.8,3.8-1.8,14.1-7.6,22.7-13,20.6-12.7,28.6-15.7,19.3-7.4-4.8,4.3-6.2,6.4-4.2,6.4.5,0,4.4-2.4,8.7-5.3,8.3-5.5,15.4-9.6,16.7-9.7C358.7,641,358.6,641.9,358,642.9Zm392.8,58.8c.4,5.1.5,9.3.2,9.3-.9,0-4-19.1-3.9-23.5l.1-4,1.5,4.5A72.28,72.28,0,0,1,750.8,701.7Zm-102.7-8.5,4.4.4-6.7,3.3c-3.7,1.8-7.2,3-7.8,2.6-1.6-1-1.2-3.4,1.2-6.7,1.8-2.7,2.3-2.9,3.3-1.5C643.1,692.2,645.5,693,648.1,693.2ZM453.8,712.4a29.8,29.8,0,0,1,5.6,4.4c2.3,2.4,2.8,4,2.9,7.7,0,4.1-.5,5.3-4.2,9.6s-4.6,4.9-8.4,4.9c-9.1,0-11.2-.9-13.8-5.6-1.8-3.3-2.4-6-2.4-10.6v-6.2l5.4-2.8C444.8,710.7,449.7,710.3,453.8,712.4ZM662,731.9c0,1.7-.6,3.1-1.6,3.5-2.4.9-2.4.9-2.4-2.9,0-2.8.4-3.5,2-3.5S662,729.7,662,731.9Zm137.3-1.2a12.31,12.31,0,0,1,2.2,4.6c1.1,4.1,2.1,4,1.7-.1a11.25,11.25,0,0,1,.7-5.1c1.4-2.1,4.1-.5,4.8,2.9s1.9,2.9,2.5-1c.5-4.1,3.6-3.7,5.5.7l1.6,3.8.8-3.3a11.8,11.8,0,0,1,1.2-3.9c1.6-1.5,3.8,1.2,5.7,6.9l2.1,6.3-.5-6.8c-.5-6.5-.5-6.7,1.9-6.7a6.27,6.27,0,0,1,4.4,2.7c2,2.7,2,2.7,2.1.6s.5-2.3,4.8-2.2a42.32,42.32,0,0,0,6.7-.2c1.3-.3,2.4.5,3.4,2.6,1.5,2.9,1.6,2.9,1.9.7.5-3.3,2.9-3.8,6.2-1.3,3.6,2.6,4,2.6,4,.1a1.77,1.77,0,0,1,1.9-2c2.3,0,4.6,2.1,6.6,6.1s2.7,3.7,1.9-.6c-.7-4.1,1.2-5.5,5.2-3.6,1.8.8,2.9.8,4.4-.1,2.7-1.7,7,0,9.7,4l2.2,3.3.3-3.8c.3-3.5.6-3.8,3.5-4.1,2.4-.2,3.4.2,4.3,1.8l1.1,2.1,1.9-2.3,1.8-2.3,2.6,2.4c1.4,1.4,2.6,3,2.6,3.7a2.28,2.28,0,0,0,1,1.9c.6.4.7-.5.4-2.3-.8-3.7,1.3-5.4,5.2-4.3a20.38,20.38,0,0,0,6.6.3c3.3-.4,3.9-.1,5.6,2.7,2,3.3,3.2,3.1,3.2-.5,0-6.2,5.9-1.9,8.1,5.9,1.7,6,2.8,6.6,2.2,1.3-.6-5,.2-9.6,1.7-9.6.5,0,2.1,1.2,3.5,2.7,1.9,2.2,2.5,2.4,2.5,1.1,0-2.7,1.8-3.1,4.9-.9,3.6,2.6,3.9,2.6,4.3-.1.5-3.8,2.8-3.2,4.5,1.1,1.8,4.5,3.3,4.5,3.3,0,0-3.6,1.2-3.7,3.8-.4s2.8,3.1,3.6-.5c1.1-5.5,2.9-3.4,8.1,9.5.7,1.8.9,1.6,1.8-1.3,1.1-3.6,2.1-4.1,3.2-1.5,7.3,18.9,25,74.1,24,75.1-1.2,1.3-12.1-2.9-14.2-5.4l-2.1-2.7-.4,2.9c-.2,2.3-.8,2.9-2.8,2.9a3.67,3.67,0,0,1-3.5-2.3c-.5-1.2-1.2-2.2-1.5-2.2s-1,1-1.5,2.2c-.9,2.2-1.6,2.3-10.3,2.3-11.2,0-12-.6-15.3-11.9-2.9-10-2.9-9.9-3.4-9.4-.3.3.2,4.9,1.1,10.2,2,11.5,1.4,12.9-4.1,10.3-2-1-3.7-1.2-4-.7-.9,1.5-9.1,1.2-12.8-.4a12.39,12.39,0,0,1-7.5-8.1c-1-2.9-1-2.8-1.1,1.7-.1,3.8-.5,5-2.3,5.9-2.5,1.3-12.2.6-14.3-1.1-.9-.8-1.4-.7-1.9.5-.8,2.3-5.9,1.9-8.4-.8a16.57,16.57,0,0,1-2.9-5.2c-.7-2.7-.8-2.5-1.3,2.5l-.5,5.5-9.5.3c-11.4.4-16.4-.9-18.4-4.6l-1.5-2.7-.1,2.6c0,4.4-2,5.1-11.9,4.8s-11.7-1.3-13.7-7.2l-1.2-3.2-.7,4.1c-1.1,6.6-1.6,7-6.7,5.5-2.4-.7-4.9-1.5-5.6-1.7s-2.1-2.3-3.2-4.6l-1.9-4.3v4.7c-.2,8.1-3.8,7.4-6.6-1.3-1.5-4.5-1.8-4.8-3-3.2s-1.4,1.6-2.4-1c-1.8-4.7-5.7-20.8-11.1-46.2-2.8-13.2-5.3-24.6-5.5-25.3C795.9,728.4,797.4,728.7,799.3,730.7ZM395,733.5c0,.8,1.9,2.4,4.3,3.6,4.6,2.3,24.1,21.8,28.8,28.8,2.9,4.4,3.8,9.4,1.9,10.6-1.5.9-1.2,4.2.5,4.9,1,.4,1.3,1.4.9,3.6-.4,1.6-.2,3.6.4,4.3s1,3.6.9,6.5c-.2,4.8-.5,5.5-3.4,7.3-2,1.3-3.4,1.6-3.8.9-.3-.5-2.3-1-4.4-1s-4.1-.3-4.5-.7-2.4-.6-4.4-.4l-3.7.3,2.5-2.4c4.1-3.8-1.3-3.2-13.2,1.7-1.3.5-1.8.2-1.8-.8,0-.8,2.3-2.9,5-4.7s5-3.6,5-4.1c0-1.2-.1-1.1-4.1.5-6.2,2.5-7.9,2.8-7.9,1.4,0-.7,2.1-2.6,4.8-4.2,5.7-3.5,4.2-4.6-2.3-1.6-2.6,1.2-6.1,2-7.8,1.8-3.2-.3-3.2-.3,2.6-3.6s7.7-6,3.5-4.8c-4.9,1.4-8.6,1.8-9.2.8-.3-.5,2.1-2.6,5.3-4.5,11.1-6.9,10-9.6-1.3-3.2-6.5,3.6-10.1,4.5-9.4,2.2.2-.6,2.5-2.3,5.1-3.7s4.7-2.9,4.7-3.3-2.5-.5-5.5-.2-5.5.5-5.5.2,2.4-2,5.3-3.8,5.4-3.4,5.6-3.6.1-.6-.3-1-3.8.9-7.6,2.7c-5.3,2.6-7.3,3.1-8.2,2.2s-.3-1.9,2.2-4.2c3.5-3.2,3.5-4.9.2-3.1-2.9,1.5-5.2,1.4-5.2-.4,0-.8.5-1.5,1-1.5,2.4,0,.7-3-2-3.7l-3.1-.8,9.2-7c5-3.9,10.3-8.2,11.8-9.6C391.7,732.1,395,731,395,733.5Zm197,.7c0,1.9-1.2,3.3-3.7,4.7-2.8,1.4-3.3,1.4-3.3-.3,0-1.4,4.7-5.5,6.3-5.6C591.7,733,592,733.6,592,734.2Zm-42.2,2a2.79,2.79,0,0,1-2.5,2.6c-2.7.4-2.9-.5-.6-3S550.2,733.5,549.8,736.2Zm-88.4,9.5c-.2,2.1-.9,11-1.4,19.8-2.3,33.8-6.3,72.3-8,76-.7,1.6-3,30.5-3,38.4,0,1.2-.4,2.1-.9,2.1s-1.4-7.8-2.2-17.3c-1.4-18.7-2-109.1-.6-113.9.6-2.3,1.7-3,6.5-4.4,3.1-.9,6.1-2.3,6.5-3C460,740.5,461.8,741.9,461.4,745.7Zm-96.4-.3c0,2.3-3.2,5.3-8.4,8-5,2.7-8.1,3.2-9,1.7s1.8-4,8.4-7.6C363.1,743.7,365,743.3,365,745.4Zm-4.5,14-4.7,4.1,2.2,2a7,7,0,0,0,5.6,1.6c2.6-.2,3.4.1,3.4,1.4a2.53,2.53,0,0,1-1.5,2.1c-2.2.9-1.8,3,1,5.1,2.5,1.8,2.5,1.8.5,3.1-1.9,1.1-2.4.7-6.4-5.5-2.4-3.8-5.3-7.7-6.5-8.7-3-2.8-2.7-6.4.7-7.8,4-1.6,8.6-2.5,9.6-2C364.9,755.1,363.2,757.1,360.5,759.4Zm212.4-1a4.11,4.11,0,0,0,3.6.8c3.4-.6,3.2,1.4-.3,3.2-1.6.8-9.6,3.7-17.8,6.5a293.35,293.35,0,0,1-54.6,12c-11.7,1.3-39.8,1.4-39.8.2,0-1,8-2,16.5-2.2,5.7-.1,5.9-.1,3.1-1.3-3.9-1.8-2.7-2.1,15.6-4.6,29-3.9,53.3-9.2,63.8-13.9C568.4,756.8,571.4,756.5,572.9,758.4ZM379,787a10.34,10.34,0,0,1-4.5,1c-2.3,0-2.7-.3-1.5-1a10.7,10.7,0,0,1,4.5-1C379.8,786,380.2,786.3,379,787Zm-109,3.1c0,3.4-7.1,8.9-11.6,8.9-1.4,0-1.5-.2-.3-1.7,1.7-2,10.1-8.2,11.2-8.3C269.7,789,270,789.5,270,790.1Zm83.5,4.3c-1,1.4-2.4,2.6-3.3,2.6-1.2,0-1.2-.4.4-2.3C354.4,790.3,356.3,790.1,353.5,794.4Zm-82,4.3c-2.1,1.8-4.3,3.3-4.8,3.3-1.3,0,2-5.1,5.2-7.7,2.3-2.1,2.6-2.1,3-.6C275.1,794.8,273.8,796.7,271.5,798.7Zm196-1.6c-2.1,2.3-1.6,3.1,3.5,5.4s5.1,3.5-.2,3.5c-6.6,0-9.3-1.9-9.2-6.2.2-6,.8-6.9,4.4-5.6C468.9,795.2,469,795.3,467.5,797.1Zm-186.5.8c-1.1,2.1-2.9,3.6-3.5,2.9-.3-.2.2-1.4,1.1-2.6C280.5,795.4,282.5,795.2,281,797.9Zm105-.4c1,1.2.9,1.6-.4,2.1-1.8.7-4.9-1.3-4-2.7S384.6,795.8,386,797.5Zm-16.6,5.4c-.9,2.2-2,4.1-2.5,4.1-1.3,0-1.1-.6,1.2-5.1C370.7,796.7,371.6,797.4,369.4,802.9Zm-84.4-1c-1.2,2.3-5.8,6.1-7.3,6.1-1.2,0,6.4-8,7.6-8C285.7,800,285.6,800.9,285,801.9Zm59.8,1a21.69,21.69,0,0,0,3.5,1.5,3.9,3.9,0,0,1,2.4,2.6,2.64,2.64,0,0,0,2.3,2,2.87,2.87,0,0,1,2.4,1.5,2.78,2.78,0,0,0,2.5,1.5c3.7,0,3.5,2.3-.5,5.8-5,4.4-12.6,8.2-16.1,8.2-2.7-.1-2.7-.1.9-1.8,2.9-1.3,9.1-7.2,7.6-7.2-.2,0-2.8.7-5.8,1.5-6.8,1.8-8,1.8-5.6,0,2.6-1.9,1.2-3.7-2-2.5-4.8,1.9-9.9.6-6.4-1.5,1.9-1.2,1-2.5-1.7-2.6h-2.8l2.8-2.2c3-2.4,12.7-7.7,14-7.7A8.48,8.48,0,0,1,344.8,802.9Zm-53.8.6c0,1.4-3.2,6.5-4,6.5-1.3,0-1.3-.6.5-4C288.8,803.4,291,801.9,291,803.5Zm81.8,4.2c-1,3.8-3.4,7.3-4.9,7.3-.5,0,.3-2.5,1.8-5.5C372.8,803.1,374.3,802.3,372.8,807.7Zm20.7,1.2,4,1.9-5.6.1c-4,.1-5.8-.3-6.2-1.3C384.5,806.5,387.7,806.2,393.5,808.9ZM290,817.4c0,.8-1.5,1.6-3.7,1.9-4.7.8-5.2.3-1.6-1.7S290,815.6,290,817.4Zm17.7-.3c3.7,1.4,8.3,5.8,8.3,8,0,1.9-3.6,5.9-5.3,5.9-.5,0-1.1-.8-1.4-1.8-.3-1.4-1.1-1.8-2.9-1.4-2.3.4-2.4.2-1.8-2.2.8-3.2.1-3.2-4.3-.5-2.4,1.5-3.8,1.8-4.5,1.1-1.4-1.4,2-7.3,5.3-8.9C304.1,815.7,304.2,815.7,307.7,817.1Zm60.4,1.9a10.37,10.37,0,0,0,3-1c2.8-1.5,2.5,1-.5,4.3-2.2,2.4-2.7,2.5-6.5,1.5-2.2-.6-4.1-1.4-4.1-1.8s1.5-2.1,3.3-3.6c2.7-2.2,3.3-2.4,3.5-1C367,818.3,367.6,819,368.1,819ZM1001,830c0,1.4-2.8.1-3.4-1.6-.4-1.2-.2-1.2,1.4-.4C1000.1,828.6,1001,829.5,1001,830Zm-9.2-.8c2.9,2.9,1,3.4-5.3,1.7-3.4-1-3.7-1.3-2-2C987.5,827.7,990.5,827.9,991.8,829.2ZM850.5,903.8c5,.2,14.7.3,21.6.2,14.6-.2,23.7,1.2,26,3.9,1.5,1.8,1.6,1.8,2.6-1s1.3-2.9,8.1-2.9h7l1.7,4.2a69.82,69.82,0,0,1,2.7,12.7c2.2,18.5,2.5,18.9,2.4,3.1,0-14.8.8-20,3.3-20,1.5,0,3.1,5.1,3.7,12.1.7,7.2,2.4,7.8,2.4.8,0-6.3,1.1-10.1,2.5-8.9.9.8,1.4.5,1.8-1,.7-2.7,2-2.5,6,1l3.4,2.9,2.3-3.1,2.3-3.1,8.6.5a76.19,76.19,0,0,1,14.4,2.3c5.5,1.8,5.8,1.8,7,.1s1.5-1.7,4.6-.2c1.7,1,3.5,2.5,3.9,3.4.5,1.4.7,1.2,1.2-.8s1.2-2.5,5-2.8c9.2-.6,10.2-.4,13,1.6s2.8,2,3.3.2c.7-2.9,5.1-3.4,15.1-2.1,5,.7,11.3,1.3,14,1.4l4.9.2,2.8,11.3c1.6,6.3,4.6,17.3,6.8,24.5,8.1,26.8,11.9,40.5,15.1,54.2,1.8,7.7,5.6,23.8,8.6,35.7s5.4,22.1,5.4,22.6c0,3.1-21.1,4.4-36.4,2.2-8.7-1.3-12.5-3.5-15.1-8.5l-2-4-.3,4.8c-.5,7.2-3,8.2-20.7,8.1-19.9-.1-26.7-2.6-28.5-10.6-.6-2.9-.8-2.6-1.4,3.4l-.8,6.6-5.2.1c-2.8,0-9.6.2-15.1.4s-21.7-.5-35.9-1.6c-21.6-1.7-26.3-1.8-28-.7-1.4.9-6.9,1.5-15.8,1.8l-13.7.5-.6-2.4c-.5-2.4-14.1-69.2-23.9-117.9-3-14.6-5.7-28.9-6.1-31.9l-.7-5.4,3.8.9A121.66,121.66,0,0,0,850.5,903.8Zm231.8,119.7c7.8,23.9,8.7,27.5,6.8,27.5-1.3,0-6.6-14.1-9.5-25.2-2.4-9.3-4.3-20.8-3.3-19.8C1076.6,1006.3,1079.3,1014.1,1082.3,1023.5ZM690.2,1195.7c2.6,3,3.9,8.4,4.5,18,.5,7.8.4,9.3-.9,9.3-2.3,0-4.9-3.5-6.9-9.2l-1.8-5.3v4.8c-.1,5.8-1.5,8.7-4.1,8.7-1.9,0-2.8-.7-5.5-4.5-1.2-1.7-1.6-1.8-2.4-.5-.6.8-1.3,1.2-1.6.9-1.1-1.2-1.8-10.9-.7-12.1.6-.8.7-3.1.3-6.1l-.8-4.7h4.4c3.8,0,4.6.4,6.3,3.2,1.3,2.2,2,2.7,2,1.5,0-1.7,3.3-5.7,4.8-5.7A5.06,5.06,0,0,1,690.2,1195.7Zm11.1,1.2c.9.9,2.2,3.8,3,6.6l1.6,5v-5.1c.1-2.7.7-5.9,1.5-7,1.5-1.9,1.5-1.9,3.5.1,2.5,2.4,5.1,13.4,5.1,21.4,0,5.3,0,5.3-2.2,3.9a12.53,12.53,0,0,1-3.8-4.6c-1.9-3.9-3-4.1-3-.5s-1.3,5.6-3.6,5.1c-2.5-.4-3.9-3.7-5.7-12.8-3.1-15.4-3.1-14.8-.3-14.3A8.32,8.32,0,0,1,701.3,1196.9Zm66.2,4.5c.8,2.8,1.9,8,2.5,11.6s1.3,7.5,1.5,8.7c.5,1.9.1,2.3-2,2.3-2.7,0-7.5-3.9-7.5-6.2-.1-.7-.7.2-1.5,2.1-1.3,2.9-1.8,3.2-4.2,2.6a11.15,11.15,0,0,1-4.5-2.2c-1.7-1.5-1.8-1.4-1.8.5,0,2.7-2.7,3.5-9.6,2.6-4.8-.6-5.8-1.1-7.5-3.7-2.1-3.6-4.9-14.9-4.9-20.1,0-7.9,5.2-4.4,8,5.5l1.9,6.4v-7.1c.1-9.5,2.7-11.5,8.4-6.6,1.5,1.4,1.7,1.3,1.7-.6,0-1.7.6-2.2,2.5-2.2,3.2,0,6.4,3.2,7.2,7,.8,4,2.3,3.8,2.3-.3a10.77,10.77,0,0,1,1.6-5.5C763.7,1193.1,765.6,1194.7,767.5,1201.4Zm8.8-5.7c1.8,2.1,4.3,10.7,5.1,17.9.8,6.8-.5,10.4-3.9,10.4-1.4,0-2.5-.3-2.5-.6,0-1-3.9-24.5-4.5-27.2-.4-1.8-.1-2.2,1.8-2.2A6.58,6.58,0,0,1,776.3,1195.7Zm13.1,5.1,1.4,4.7.7-3c1.7-7.1,5.9-9.6,8.8-5.4l1.5,2.1.7-2.1c1.2-4,4.6-2.3,7.1,3.4l1.7,4,.9-3.9c1-4.7,2.4-6.6,4.9-6.6,2.1,0,2.1,0,4.9,16.6,2.4,14.7,2.4,13.4-.1,13.4a7.61,7.61,0,0,1-7.1-4.8l-1-2.7-1,2.7c-2.1,6-14.5,5.9-18.5-.1l-2.2-3.2.2,2.6c.3,3.6-2.4,5.5-4.9,3.4-3-2.5-4.6-8.1-5.2-18.1l-.5-9.8,3.2,1.1C787.4,1196,788.3,1197.1,789.4,1200.8Zm-66.4-3.9c1.6,3,5,18.2,5,22.2,0,4.6-2.6,6.1-5.2,2.9s-3.8-8.3-4.5-18.3c-.6-8.4-.5-8.7,1.5-8.7A4.18,4.18,0,0,1,723,1196.9Zm98.6,37.6c-3.5,4.5-9.3,7.9-21,12-21.1,7.6-23.6,8-50.3,8-13.3,0-24.4.3-24.8.7-2.9,2.9,37.5,3.2,59.3.4,7.9-1,14.5-1.6,14.8-1.4s-3.8,1.8-8.8,3.4l-9.3,2.9-29-.1c-31,0-32.8-.3-33.9-5-1.3-5,.3-5.5,15.3-4.8,7.5.3,21.5.1,31.1-.4,15.9-1,18.5-1.4,28.3-4.6,11.7-3.9,17.6-6.7,25.1-12.1,2.7-2,5.1-3.3,5.4-3.1S823.1,1232.5,821.6,1234.5Zm42.8,3.4c-9.1,8.9-30.3,27.5-32.6,28.7-4.5,2.3-3.3-.2,3.1-6.4a62.12,62.12,0,0,0,8.5-10c2.6-4.2,7.9-8.1,18-13.5,2.8-1.5,5.2-2.4,5.5-2.1S866.1,1236.4,864.4,1237.9Zm-20.4-1.1c0,.4-2,3.1-4.5,5.9-5.5,6.3-18.6,16.3-26.6,20.4-6.2,3.1-6.7,3.7-4.7,5.7,1.5,1.5.5,2.4-4.9,4.5a15.25,15.25,0,0,1-12.4-.4c-.8-.4-3.3-.3-5.5.2-8.9,2.1-47.9.7-61-2.2-8-1.8-6.6-2.7,2.4-1.5,4.2.6,16.7,1.1,27.7,1.1,22.4-.1,29.9-1.1,47.9-7,14.1-4.5,20.5-8.1,22.2-12.1,1.8-4.3,8.1-10.4,13.4-13C843,1235.9,844,1235.6,844,1236.8Zm33.3,7c-5.3,6.1-23.5,22-32,27.8s-8.1,3.4.4-3.3c4.3-3.4,14.1-12,21.8-19.1C881.8,1236,886.1,1233.6,877.3,1243.8ZM349,1238a116.59,116.59,0,0,1-16,.7c-10,0-10.1-.1-3.5-.7,3.9-.4,11.1-.7,16-.7C353.7,1237.3,354,1237.4,349,1238Zm415.4,1.6c6.6.9,5.9,2.8-.9,2.1-6.2-.6-10.9-2.6-6.4-2.7C758.5,1239,761.8,1239.3,764.4,1239.6Zm124.6,1c0,3.4-35,35.8-36.7,34-1.2-1.1,2.8-5.5,14.9-16.4,7.3-6.6,14.9-13.6,16.7-15.6C887.7,1238.6,889,1238.2,889,1240.6Zm-93,.6c-1.4.5-7.2,2.2-13,3.6-11.8,2.8-30.2,3.5-50.5,1.8-9.8-.9-10.5-1-6.5-1.7,2.5-.4,13.5-.8,24.5-.9,18.8-.1,27.4-.7,37-2.9a41.32,41.32,0,0,1,7.5-.9C798.3,1240.1,798.4,1240.2,796,1241.2Zm-444.5,3.9c-4.7.8-60,3.8-108.5,5.9-11.8.5-23.1.6-25,.2-2.4-.6,3-1.2,17.5-2,11.6-.7,25.3-1.8,30.5-2.3,8.4-1,57.4-2.5,81.5-2.6C355.6,1244.2,356,1244.3,351.5,1245.1Zm93,.9c5.7.5-.1.6-15.8.3-13.6-.3-28.3-.9-32.5-1.4-4.8-.5,1.3-.6,15.8-.2C424.9,1245,439.6,1245.6,444.5,1246Zm410.5,8.4c-10.8,10.2-22.2,19.6-23.8,19.6-1.2,0-.9-.7.9-2.6,3.1-3.4,22.6-20.5,25.8-22.7C862.9,1245.3,861.3,1248.4,855,1254.4Zm-655.7-3.7a5.28,5.28,0,0,1-2.5,0c-.7-.3-.2-.5,1.2-.5S199.9,1250.4,199.3,1250.7Zm182.5,1c-6.5.2-17.1.2-23.5,0s-1.2-.3,11.7-.3S388.2,1251.6,381.8,1251.7Zm437,1.5c-.3.7-5.1,3-10.9,5.1-24.3,9-37.3,10.8-63.9,8.8-17.4-1.3-36-4.6-30-5.2a39,39,0,0,1,8.2.3c14.7,2.1,37.3,3,47.5,1.9,10.7-1.2,27.4-5.2,40.5-9.6C818.8,1251.7,819.3,1251.6,818.8,1253.2Zm-690.3,1.9c14.9.6,27.7,1.6,28.5,2.1,2,1.2-51.7.1-76-1.6l-18.5-1.3,19.5-.2C92.7,1254,113.7,1254.5,128.5,1255.1Zm753.9,3.2c-3.1,3.8-14.5,13.7-16,13.7-2.7,0-.1-3.1,8.4-10S885.9,1253.8,882.4,1258.3Zm-553.6,1.2c-.3.3-12.6,1.2-27.4,2-49,2.5-58.4,2.8-58.4,1.7s10.4-2,40-3.1C310.4,1259.1,329.5,1258.9,328.8,1259.5ZM514,1261c5,.7,3.5.8-6.5.5-7.1-.3-19.5-.6-27.5-.7-11.1-.1-13.2-.3-9-.9C477.3,1259.1,504.4,1259.8,514,1261Zm374.3,2c-1.9,3.1-11.7,11-13.4,11-2.4,0,5.2-8.4,11.1-12.4C889.7,1259.2,890.4,1259.6,888.3,1263Zm-207.7.6c1.8,1.5,1.7,1.5-1.5,1a43.81,43.81,0,0,0-4.8-.6c-.8,0-1.1-.5-.8-1C674.4,1261.5,678.4,1261.8,680.6,1263.6Zm23.8-.6c-.6.6-2.1.6-3.9.1-3-.9-3-.9,1-1C704,1262,705.1,1262.3,704.4,1263ZM164,1264c0,1.1-27,1.2-39,0-5.3-.5-.7-.7,15.8-.8C155.7,1263.1,164,1263.4,164,1264Zm254.5.7c6.1.3,10,.9,8.9,1.3-2,.8-64.4-.7-65.3-1.5C361.4,1263.8,406.1,1263.9,418.5,1264.7Zm248,.2c-6.5,2.7-52.7,4-75,2.2l-9-.8,7-.3c6.3-.2,54.6-1.4,72-1.7C665.9,1264.2,667.8,1264.4,666.5,1264.9Zm155,7.7c-5.4,2.6-8.9,3.1-8.3,1.2.2-.6,2.4-1.7,4.9-2.3C825.3,1269.5,826.8,1270,821.5,1272.6Zm-108.8-.4,2.8,1.1-4.7,1c-5.4,1-7.8.5-7.8-1.8C703,1270.7,708.5,1270.4,712.7,1272.2Z" transform="translate(0.06 -0.3)"/><path d="M489.6,345.1a44.76,44.76,0,0,0-.6,6.3c.1,4.4,1.8,1.2,2.6-4.8C492.4,341.4,490.6,340.1,489.6,345.1Z" transform="translate(0.06 -0.3)"/><path d="M487.8,363c-1.2,3.9-1,7.6.3,6.3.6-.6.9-2.8.7-4.9C488.5,360.9,488.4,360.8,487.8,363Z" transform="translate(0.06 -0.3)"/><path d="M512.3,489.5c-.9,2.5.4,2.9,1.7.6.7-1.5.7-2.1,0-2.1S512.7,488.7,512.3,489.5Z" transform="translate(0.06 -0.3)"/><path d="M527.9,523.6a24.43,24.43,0,0,0-3.3,6.7c-2.8,8.5-1.8,11.1,3.4,8.1,3.3-2,4.7-4.4,2.5-4.4s-2.5-1.4-1.4-5.4a14.39,14.39,0,0,0,.7-5.3C529.5,522,529.3,522.1,527.9,523.6Z" transform="translate(0.06 -0.3)"/><path d="M592,601.8a88.67,88.67,0,0,0,3.6,9.1,92,92,0,0,1,4.9,14.9c1.9,8.7,1.9,19.6.1,21.1-.9.8-1.5,5-1.9,14.9-.5,13.3-1.9,22.7-4,26.6-.9,1.9-1,1.9-2.3.2-1.1-1.6-1.5-1.4-3.8,3.1-1.4,2.6-3.5,6.1-4.6,7.8l-2.2,3,.7-5c.3-2.8.9-6.5,1.2-8.4.5-3.1.4-3.2-1.5-2.2-1.1.6-2.8,3.3-3.7,6.1-1.9,5.7-3.1,6.3-4,2-1-4.5-2.2-4.5-4.4-.2-1.7,3.3-2.4,3.9-4.4,3.5s-2.6.1-3.7,2.6c-1.7,4.1-2.7,4.7-5.1,2.5-1-.9-1.9-1.2-1.9-.6s-1.1.9-2.8.6c-3.6-.7-6,1.7-3.7,3.6a4.8,4.8,0,0,1,1.5,3.1c0,1.4.7,1.9,2.9,1.9,1.7,0,3.2.4,3.5.9s2,.6,3.9.1c6.4-1.6,15.8-2.2,17.2-1,3,2.5,21-5.3,23.5-10,.6-1,1-6.7,1-12.5,0-11.6,1-15,4-14,1.9.6,2,.4,3.5-6.8a9.46,9.46,0,0,0-1-4.5c-.8-1.6-1.7-10.5-2.3-22.7-1.1-20.2-2.6-27.9-6.7-34.1C597.8,604.8,592,600.4,592,601.8Z" transform="translate(0.06 -0.3)"/><path d="M538,631.2c0,.7,1.8,3,3.9,5,5,4.6,5.5,7.3,4.8,23.1-.4,8.9-1.2,14.4-3,20.2-3.1,10.2-2.5,12.2,2.1,6.9,6.4-7.3,6.6-8.2,6.6-27.1l.1-17.2-4.2-4.3C543.1,632.5,538,629.2,538,631.2Z" transform="translate(0.06 -0.3)"/><path d="M685.5,525c.3,4.7,1,20.6,1.5,35.4s1.2,27.2,1.5,27.4c.9,1,.5-54.3-.5-61.2C686.4,515.9,684.8,514.8,685.5,525Z" transform="translate(0.06 -0.3)"/><path d="M757,652.2c.2,6,3.5,24.9,7.3,41.8,9.7,43.6,9.5,42.8,9.6,38.4.2-10.5-14.1-81.4-16.5-81.4C757.2,651,757,651.6,757,652.2Z" transform="translate(0.06 -0.3)"/><path d="M773.1,690.2a40.31,40.31,0,0,0,.8,5.3c.5,2.3.8,2.6,1.3,1.3.6-1.6-.8-8.8-1.7-8.8C773.2,688,773.1,689,773.1,690.2Z" transform="translate(0.06 -0.3)"/><path d="M786.4,758.5c.9,9,4.6,31.8,5.3,32.5.9.9-.7-15.1-2.8-27C786.6,750.9,785.4,748.2,786.4,758.5Z" transform="translate(0.06 -0.3)"/><path d="M773.1,776.5c0,3.8.4,7.7.9,8.5,1.2,1.9,1.3-5.7.1-11.5C773.3,769.9,773.2,770.1,773.1,776.5Z" transform="translate(0.06 -0.3)"/><path d="M831,819.8a21.53,21.53,0,0,0-5.5,1.7c-1.7.8-6.9,1.9-11.7,2.6s-8.5,1.6-8.3,1.9,6.2,1,13.2,1.3,14.2,1.1,15.8,1.8c3,1.2,3,1.2-3.5,2.4-6.1,1.2-5.1,1.3,14.3,1.4,13.7.1,20.6-.2,20.2-.9s-1.6-1-2.9-1c-1.9,0-2.2-.5-2.2-3.8-.1-4.5.7-5.1,7.1-5.3l5-.2-6.5-.8C859.1,820.1,835.2,819.3,831,819.8Z" transform="translate(0.06 -0.3)"/><path d="M903.6,845.9c.5.6,3.4,1.1,6.4,1.3l5.5.4-3.5,1.5c-1.9.9-7.3,2.2-12,3l-8.5,1.3,11,1.3c12.4,1.5,20.7,3.6,22.9,5.8,1.9,2,2.8,1.9,5.8-.4,2.2-1.8,5.9-2.9,18.3-5.7,2.9-.6,2.9-.7-1.8-1.9-2.7-.7-5.5-2.2-6.3-3.3s-3.1-2.6-5.2-3.2C931.5,844.7,902.2,844.6,903.6,845.9Zm33.1,6.7c.5,1.5-2.5,2.6-4.8,1.9a2.64,2.64,0,0,1-1.9-2.1C930,850.6,936.1,850.8,936.7,852.6Z" transform="translate(0.06 -0.3)"/><path d="M507.6,865.9c-.7,1.1,1.1,1.7,7.9,2.5,4.8.5,4.9.5,2-.8C513,865.6,508.3,864.7,507.6,865.9Z" transform="translate(0.06 -0.3)"/><path d="M846.3,872.7c-2.9.6-2.9,1.4.1,4a10.67,10.67,0,0,1,2.8,3.4c.4,1.1,3.9,1.4,15.9,1.6,11.5.2,14.7,0,12.7-.8a4.27,4.27,0,0,1-3-3.7c-.5-4.1-3.8-5.2-15.8-5C853.2,872.2,847.5,872.5,846.3,872.7Z" transform="translate(0.06 -0.3)"/><path d="M974,875.9c-1.8.7-.1.9,6,1,8,.1,15.5,1.2,16.7,2.5,1.1,1.1-2,3.6-4.6,3.7-4.8.2,4.8,1.7,16.2,2.4l10.8.7-1.2-2.6c-1.5-3.1-1.1-3.7,1.9-2.9a2.65,2.65,0,0,1,2.2,2.5c0,3.1,3.3,1.7,5.1-2.2l1.7-3.5-2.9-.6C1021,875.8,976.7,875,974,875.9Z" transform="translate(0.06 -0.3)"/><path d="M444.9,722.5c-.3.2-.3,2-.1,4,.3,2.9.8,3.5,2.7,3.5,3.1,0,4.7-2.3,3.9-5.4-.5-2-1.2-2.6-3.3-2.6C446.6,722,445.1,722.2,444.9,722.5Z" transform="translate(0.06 -0.3)"/><path d="M388.5,750c-.3.5-.2,1,.4,1a2.34,2.34,0,0,0,1.6-1c.3-.6.2-1-.4-1A2,2,0,0,0,388.5,750Z" transform="translate(0.06 -0.3)"/><path d="M391.5,766c-.3.5.3,1,1.4,1s2.1-.5,2.1-1-.6-1-1.4-1A2.52,2.52,0,0,0,391.5,766Z" transform="translate(0.06 -0.3)"/><path d="M400,778c0,1.3,1.1,1.3,3,0,1.2-.8,1.1-1-.7-1C401,777,400,777.4,400,778Z" transform="translate(0.06 -0.3)"/><path d="M1061.6,1003c2.9,22.3,11.1,50.6,13.9,47.8.4-.3-12.9-49-14-51.3C1061.2,998.9,1061.3,1000.5,1061.6,1003Z" transform="translate(0.06 -0.3)"/><path d="M1056.5,1026.7c1,5.8,2.4,10.6,3.5,12.3.8,1.3,1,1.2,1.1-.5.5-6-2.1-15.5-4.3-15.5C1056.3,1023,1056.2,1024.7,1056.5,1026.7Z" transform="translate(0.06 -0.3)"/><path d="M899.6,1034.5c.3,4.4.9,8.4,1.5,8.9,1.4,1.5,1-8.3-.7-12.9C899.1,1026.6,899.1,1026.7,899.6,1034.5Z" transform="translate(0.06 -0.3)"/><path d="M1039.5,1039.7c1.1,9.4,1.7,12.3,2.7,12.3,1.5,0,.4-8.7-1.5-13l-1.7-3.5Z" transform="translate(0.06 -0.3)"/><path d="M579.3,241.2c-4.5,1.5-4.1,2.6,1.3,3.4,4.9.7,7.1-.4,6.1-3C586,239.8,584,239.7,579.3,241.2Z" transform="translate(0.06 -0.3)"/><path d="M332.5,330.4c-.9,2.2-2.1,12-3,25.8-1.9,27.1-2.8,32.3-6.1,34.5-2.3,1.5-2.3,1.6-.7,2.9s1.7,1.5-.5,3.2l-2.4,1.8,2.4,1.6,2.3,1.6-3.2,1.2c-4.3,1.5-4.2,2.4.4,3.6,5.2,1.3,5.2,3.1.1,3.9a38,38,0,0,0-5.2,1.2c-1.2.8,1.5,2.3,4.2,2.3,3.4,0,1.8,1.7-2.3,2.4-2.1.4-3.5,1.3-3.5,2.1,0,1.1,1.3,1.5,5.3,1.5,2.8,0,5.8-.4,6.4-.8,1.3-.8,6.7-28.2,7.7-39.2.3-3.6,2.2-16.3,4.2-28.2s3.4-22.3,3.1-23.2c-.4-1.1-1.9-1.6-4.2-1.6C334.3,327,333.7,327.4,332.5,330.4Z" transform="translate(0.06 -0.3)"/><path d="M831.2,350.2c-1.4,1.4-1.6,4.4-.2,5.3.5.3,1.4,2.3,2,4.3,1.4,5.2,5.2,9.7,7.5,8.9,2.5-1,1.7-11.5-1.1-13a23.59,23.59,0,0,1-4.4-3.9C833,349.6,832.1,349.3,831.2,350.2Z" transform="translate(0.06 -0.3)"/><path d="M840,374.6c0,2.7,2,5.4,3.5,4.8,2-.8,1.9-2.7-.3-4.7S840,372.6,840,374.6Z" transform="translate(0.06 -0.3)"/><path d="M830,377.3c0,.8,4.9,14.4,6,16.9,2.2,4.8,2.9,3.1,1.4-3.4-1.5-6.2-5.1-13.8-6.6-13.8C830.4,377,830,377.1,830,377.3Z" transform="translate(0.06 -0.3)"/><path d="M846.2,383.9c-1.9,1.1-1.1,4.5,1.1,4.9,1.3.3,1.7-.3,1.7-2.7C849,382.9,848.4,382.4,846.2,383.9Z" transform="translate(0.06 -0.3)"/><path d="M853,387.2a15.66,15.66,0,0,0,1.5,6.1c1.4,2.6,2.3,5.8,3.9,12.9.8,3.5,3.2,3.6,4,.4.9-3.6-1-15-3-18-1.5-2.4-4.3-4.6-5.8-4.6C853.3,384,853,385.5,853,387.2Z" transform="translate(0.06 -0.3)"/><path d="M847,396.4c0,1.7.5,2.6,1.6,2.6s1.4-.7,1.2-2.2C849.3,393.6,847,393.3,847,396.4Z" transform="translate(0.06 -0.3)"/><path d="M240.2,405.2c-4.7,15.3-6.7,26.6-9.7,54.7-1.3,12.1-2,46.6-.8,39.1.2-1.4,1.5-10.2,2.9-19.5s4.7-27.8,7.4-41c5.8-28.8,7.3-38.8,6.5-41.5C245.2,392.8,243.3,395.2,240.2,405.2Z" transform="translate(0.06 -0.3)"/><path d="M815,398a1.1,1.1,0,0,0,1.1,1c.5,0,.7-.5.4-1s-.8-1-1.1-1S815,397.4,815,398Z" transform="translate(0.06 -0.3)"/><path d="M366,408.8c-4.6,1.9-15.1,8.1-13.7,8.2.4,0,6-1.3,12.5-2.9s13.4-3.3,15.5-3.8c6.2-1.3,4.8-2.8-2.8-3A27.92,27.92,0,0,0,366,408.8Z" transform="translate(0.06 -0.3)"/><path d="M780.6,410.2c-2.4,3.4-1.9,4.4.9,1.8,1.4-1.3,2.5-2.7,2.5-3.2C784,407.2,782.1,408,780.6,410.2Z" transform="translate(0.06 -0.3)"/><path d="M384,418.2a118.81,118.81,0,0,0-17.2,3.4c-4.8,1.4-9.2,2.3-9.7,2-1.8-1.2-11.2,2.6-17,6.9-6.7,4.9-8.3,8-2.3,4.4,2-1.2,4.8-2.8,6.2-3.5,4.2-2.2,21.9-6.2,32.5-7.4,13.3-1.5,19.5-2.9,19.5-4.5C396,417.6,393.4,417.3,384,418.2Z" transform="translate(0.06 -0.3)"/><path d="M862.4,420.4c-1,.8-1.6,1.7-1.3,2s1.7-.2,3-1.3C866.8,418.8,865.4,418.3,862.4,420.4Z" transform="translate(0.06 -0.3)"/><path d="M800.5,429a3.7,3.7,0,0,0,.5,2.9,14.2,14.2,0,0,1,1,4.9c0,3.2,2.8,5.2,4.2,3,1.1-1.9,1-4.8-.3-4.8-.7,0-.9-1.1-.6-2.9.4-2.1.2-3.1-.9-3.5C802.2,427.8,801.2,427.9,800.5,429Z" transform="translate(0.06 -0.3)"/><path d="M375,435.5c-19.9,3.2-33.5,6.1-36.7,7.9l-2.8,1.5,2.5.1c3,0,38.4-5.4,45.5-7,9.4-2.1,12.5-3.1,12.5-4C396,432.5,391.2,432.9,375,435.5Z" transform="translate(0.06 -0.3)"/><path d="M168.2,447.9c-4.5,2.8-9.5,78.3-7.3,112.1.7,9.6,1.4,18.3,1.7,19.3.5,1.5,1,1.4,5-1.3,4.4-3.1,6.1-5.9,2.7-4.5-4.5,1.9-5.2,1.7-6-1.1-2.6-9.7,1.4-91.9,5.3-109.2,1.5-6.9,1.9-14.8.6-15.6A2.54,2.54,0,0,0,168.2,447.9Z" transform="translate(0.06 -0.3)"/><path d="M292,471.4a79.37,79.37,0,0,0-10.5,4.4l-4,2.1,7.7.1c4.2,0,8,.4,8.3,1,1,1.6,5.4,1.1,7-.8,5.4-6.1,6.4-7.5,5.9-8.3C305.4,468.3,298.6,469,292,471.4Z" transform="translate(0.06 -0.3)"/><path d="M255,478.8a38.62,38.62,0,0,0-5.8,4.1c-4,3.3-4.2,3.7-4.2,9a36.82,36.82,0,0,1-2,10.9c-3.6,9.4-2.1,8.8,5.5-2.2,4.1-6,8.2-11.7,9.2-12.8,1.4-1.5,1.5-2.1.4-2.7s-1-1.3-.2-2.9C260,478.3,258.9,477.1,255,478.8Z" transform="translate(0.06 -0.3)"/><path d="M269.3,494.6c-7.7,4.8-8.9,6.4-4.7,6.4,1.8,0,4.3-1.7,8.2-5.5,3.2-3,5.3-5.4,4.7-5.4S273.2,492.2,269.3,494.6Z" transform="translate(0.06 -0.3)"/><path d="M108.1,504.3c-2.3,9.2-2.4,10.9-1.8,28,1.6,43.6,3.9,57.5,20.2,124.2,4.8,19.4,14.7,50.2,18.7,58.4l3.2,6.3-2.2,1.9-2.3,1.8,4.8,1.3c4.9,1.4,7,4.3,3.6,5-1.4.4-.9.9,2,2.3,2.6,1.3,3.7,2.5,3.7,4.1s.7,2.3,2.5,2.6c1.4.3,2.8.2,3.1-.3.6-1.1-1.8-5.8-6.6-12.9a133,133,0,0,1-12-23.3c-2-5.1-2.2-6.5-1.3-10.5a28.6,28.6,0,0,0,.4-9.2c-.6-4.2-.8-4.5-3.4-4.2-2.3.3-3-.2-4.1-3-1.7-4.1-2.1-7.7-1.2-10a2.87,2.87,0,0,0-.8-3.3c-3.5-3.5-7.6-25.8-5.7-30.8.8-1.9.6-2.7-.4-3.1-4.9-1.8-11-26.9-14-57.5-2-20.3-2-22.2.4-22.8,2.7-.7,4-4.3,5.2-14.9,1.6-14.3-.3-17.5-4.7-8-2,4.5-2.3,5.8-1.3,7.4,1.3,2,.4,11.2-1.1,11.2-1.1,0-1.6-13.6-.9-23.5.3-4.4.6-6.6.7-4.8.3,4.1,1.4,4.8,3.9,2,4.9-5.3,7.4-10.4,6.7-13.3-1-4.4-1.1-4.4-6.1-2.3-2.5,1.1-5,1.6-5.4,1.2s-.9-2.8-1.1-5.3C110.5,494.7,110.4,495,108.1,504.3Z" transform="translate(0.06 -0.3)"/><path d="M208.2,522c-8.7,3.1-23.2,11.2-28.4,15.9s-12.4,17.7-13.5,24.5c-.8,4.9.8,4.7,11.9-1.1,9.6-5.1,19.2-13,23.7-19.7,5.3-7.9,4.2-8.1-3.1-.5-7.6,8-17.7,15.6-24.1,18.2l-3.7,1.6.6-2.7c1.8-7.5,5.7-11.1,29.6-27.2C217.2,520.1,218.6,518.3,208.2,522Z" transform="translate(0.06 -0.3)"/><path d="M117.7,551.5c-.8,1.9.4,11.5,1.4,11.5,1.2,0,2.1-5.6,1.3-9.4S118.6,549,117.7,551.5Z" transform="translate(0.06 -0.3)"/><path d="M401.2,555.9c-2.6,1.6,11.5,2.8,16.6,1.4,1.8-.4,2-.8,1-1.4C417.1,554.8,402.9,554.8,401.2,555.9Z" transform="translate(0.06 -0.3)"/><path d="M347.4,564.4c-.7,3,.2,4.8,2.3,4.4,1-.2,1.7-1.6,1.8-3.6.2-2.5-.1-3.2-1.6-3.2A2.82,2.82,0,0,0,347.4,564.4Z" transform="translate(0.06 -0.3)"/><path d="M351.3,574.7c-.8.3-1.3,2.3-1.3,5.1,0,9.3,2,11.5,5.9,6.5l2.1-2.6-2.1-2a4.43,4.43,0,0,1-1.5-4.8C354.9,574,354.2,573.5,351.3,574.7Z" transform="translate(0.06 -0.3)"/><path d="M139.3,576.3c-4.9,2.8-13.5,14.4-15.4,20.9-1.1,3.9-.5,3.5,2.4-1.5,3.5-5.8,7-8.9,15.5-13.3,4.8-2.5,7.2-4.4,7-5.4C148.4,575.1,142.3,574.6,139.3,576.3Z" transform="translate(0.06 -0.3)"/><path d="M175.5,577.2c-1.1.6-4.4,2.6-7.2,4.6-4.1,2.7-5.2,4-4.8,5.6.3,1.2,1.2,6.4,2,11.6,2.2,13.3,13.2,59.1,16.2,67.5Q188,684.05,205,710c5.9,9.1,13.4,20.8,16.7,26,11.1,18,23.3,31.4,23.3,25.7,0-.8-2.7-5-5.9-9.5-7.4-10-9.4-13.8-8.6-16.2.3-1.1,3.7-3.9,7.5-6.2s6.6-4.6,6.4-5c-.7-1.1-5.6.7-9.8,3.6-2.1,1.4-4.9,2.6-6.2,2.6-2.8,0-7.1-5.3-8-9.9-.6-2.8-.2-3.5,3.1-6.4,2.1-1.7,5.4-4.7,7.4-6.5l3.6-3.2-4.5,2c-5.7,2.5-7,2.5-7,0s-.1-2.4-4.7-.5c-5,2.1-6.1.5-2.4-3.3,5-4.9,3.6-13.5-1.5-9.3-2.8,2.3-5.9,7.1-4.5,7.1.6,0,1.1.7,1.1,1.5,0,2.4-2.4,1.8-5.4-1.4l-2.8-2.9,2.2-1.9c8.1-6.6,7.5-5.7,5.4-8.6-2.4-3.3-2.5-3.3-7.4-.2a26,26,0,0,1-4.5,2.5c-.2,0-.2-1.3.1-3s.3-5.9-.1-9.5l-.7-6.5-3.4,2.6c-1.9,1.5-3.7,2.4-4,2.1s.9-3,2.6-6.1c3.4-5.9,2.9-7.3-1-3.1s-4.1,2.9-1-4.2c1.8-4.3,2.5-7,1.8-7.4s-.6-1.4.1-2.8c.7-1.2.9-2.6.6-3.1-1.3-2-3.5-.9-6.8,3.5l-3.5,4.5-.6-2.6c-.6-2.1.1-3.9,3.3-8.4,6-8.6,6.2-9.8,1.2-6.5-5.9,4-7.3,2.2-3-3.9,3.4-4.8,3.4-6.5.1-4.7-2.7,1.5-5.2,1.4-5.2-.1,0-.7,2.3-3.6,5.2-6.5,4.9-5,5.1-5.3,2.7-5.3-1.4,0-4.3,1.3-6.5,3-5.3,4-6.2,3.8-2.6-.8,3.5-4.4,6.6-10.2,5.8-10.9-.3-.3-1.8.4-3.4,1.6-6,4.3-6.9,2-1.6-3.9,4.7-5.2,4-6.9-1.4-3.1-2.3,1.7-4.2,2.9-4.2,2.6a64.24,64.24,0,0,1,4.9-7.3c2.7-3.7,4.8-6.8,4.6-7s-3.3,1.5-6.9,3.7-6.6,3.6-6.6,2.9,1.8-3.5,4-6.5c4-5.3,3.7-6.8-.8-3.7-3.8,2.7-3.5,1,1.1-5.2C179.9,575.4,180.1,574.6,175.5,577.2Z" transform="translate(0.06 -0.3)"/><path d="M356.6,590.5c-2.7,2.7-4.1,5.8-2.7,6.3.6.2,1.1,1.6,1.2,3a6.48,6.48,0,0,0,2.8,4.9l2.9,2.3,1.6-2.5c1.8-2.8,2.1-4.5.6-4.5-.5,0-1-.9-1-1.9a3.5,3.5,0,0,0-1-2.6c-.6-.4-.9-1.8-.8-3.2C360.6,589.2,358.8,588.3,356.6,590.5Z" transform="translate(0.06 -0.3)"/><path d="M361.5,611c-2.3,2.6-.8,2.6,2.5,0,1.8-1.4,2.1-2,.9-2A5.87,5.87,0,0,0,361.5,611Z" transform="translate(0.06 -0.3)"/><path d="M363.7,615.1c-4,2.1-4.5,4.2-1.1,4.7,2.3.3,5.7-3,5.2-5.1C367.6,613.4,366.9,613.5,363.7,615.1Z" transform="translate(0.06 -0.3)"/><path d="M366,622.9c-1.4,2.8-1.2,8.7.4,10,.7.6,1.7,3.5,2,6.3.9,6.4,1.3,7,3.5,5.9,1.3-.7,1.7-2,1.5-4.9a19,19,0,0,0-.8-5.1c-.4-.6-.4-2.6-.1-4.5s.2-3.6-.4-4a4.33,4.33,0,0,1-1.1-3.2C371,620.4,367.6,620.1,366,622.9Z" transform="translate(0.06 -0.3)"/><path d="M433.4,630.2c.3,1.3,2,8.1,3.7,15.3,8.3,34.6,10.2,40.5,12.9,40.5,1.9,0,1-10.2-2-21.8-4.9-19.6-11.3-36.2-13.8-36.2C433.2,628,432.9,628.7,433.4,630.2Z" transform="translate(0.06 -0.3)"/><path d="M305.6,643.9c-6.2,2.9-8,4.8-6.6,7.1.7,1.1,1.7.8,5.2-1.6,2.4-1.6,5.2-3.3,6.3-3.9,2-1,3.4-4.6,1.8-4.4A58.72,58.72,0,0,0,305.6,643.9Z" transform="translate(0.06 -0.3)"/><path d="M235.5,662.5c-9.8,2.7-30.2,14.1-28.4,15.9.4.5,8.9-1.5,14.4-3.2,5-1.6,8.9-3.5,11.7-5.8,1.5-1.2,5.6-2.7,9.2-3.4,6.7-1.3,8.7-3.2,4.4-4.4C243.6,660.8,241.3,661,235.5,662.5Z" transform="translate(0.06 -0.3)"/><path d="M178.7,693.5c-4.3,2.2-10.7,7.5-10.7,8.8,0,2.6,4,3.8,9.8,3.1,4.8-.6,6-1.2,9.3-4.8l3.8-4.1-2.7-2.2C185,691.7,182.5,691.5,178.7,693.5Z" transform="translate(0.06 -0.3)"/><path d="M1.2,702.2c.6,1.6,4.1,2.2,8.5,1.3,5-.9,3-2.5-3.3-2.5C2.4,701,.9,701.4,1.2,702.2Z" transform="translate(0.06 -0.3)"/><path d="M3.6,710.9c1.4,1.3,7.6,3.2,8.3,2.5,1.1-1.1-3.2-3.4-6.3-3.4C3.9,710,3,710.4,3.6,710.9Z" transform="translate(0.06 -0.3)"/><path d="M233.5,713.1c-5.5,2.9-8.8,6-7.6,7.2s7.2-2.7,11.1-6.8C239.9,710.4,238.7,710.3,233.5,713.1Z" transform="translate(0.06 -0.3)"/><path d="M157,720c0,2.2.1,2.3,2.4,1.4s2-3.4-.4-3.4A1.8,1.8,0,0,0,157,720Z" transform="translate(0.06 -0.3)"/><path d="M9.3,720.7a7.56,7.56,0,0,0,3,0c.6-.3-.1-.5-1.8-.5S8.3,720.4,9.3,720.7Z" transform="translate(0.06 -0.3)"/><path d="M232.4,721c-2.2.9-6.4,5.6-6.4,7.2,0,1.3,2.9-.5,7.5-4.6C237.4,720.2,236.9,719.2,232.4,721Z" transform="translate(0.06 -0.3)"/><path d="M243.9,730.3c-7.1,4-8.9,5.6-8.9,7.4,0,1.1,1.5.7,5.8-1.7,5.9-3.4,10.2-6.8,10.2-8.2S249.8,726.9,243.9,730.3Z" transform="translate(0.06 -0.3)"/><path d="M168,732c-1.1.7-.7,1,1.7,1,1.7,0,3.5-.5,3.8-1C174.3,730.7,170,730.7,168,732Z" transform="translate(0.06 -0.3)"/><path d="M247,738.6c-3.6,1.6-8,5.2-8,6.6,0,1.7,2.9.7,8.4-2.9C255,737.3,254.8,735.2,247,738.6Z" transform="translate(0.06 -0.3)"/><path d="M169.4,738.8c.5.8,6.6.4,6.6-.4,0-.2-1.6-.4-3.6-.4S169.1,738.4,169.4,738.8Z" transform="translate(0.06 -0.3)"/><path d="M247.8,746q-4.8,3-4.8,5.1c0,1.8.6,1.6,6.1-2.2a57.25,57.25,0,0,0,6.5-5.1C256.8,742,252.2,743.2,247.8,746Z" transform="translate(0.06 -0.3)"/><path d="M181.9,749.4c.8,1,.9,1.6.1,2.1a2.14,2.14,0,0,0-1,1.6c0,1.1,5,1.2,6.8,0,2.3-1.4-.7-5.1-4.2-5.1C181.3,748,181,748.3,181.9,749.4Z" transform="translate(0.06 -0.3)"/><path d="M256,749c-3.1.8-9.7,6.7-8.6,7.8.6.5,13.6-7.1,13.6-8S260.8,747.9,256,749Z" transform="translate(0.06 -0.3)"/><path d="M280,756.9c-10.1,6.6-11.5,7.9-11.5,10.4,0,1.9-.9,3.3-3,4.7-2.7,1.8-2.8,2-.8,2,3.9,0,11.6-3.1,18.4-7.5,7.3-4.7,8.8-6.3,6.9-7.5-1-.6-1-1.7.4-5,.9-2.3,1.6-4.4,1.4-4.5S286.3,752.7,280,756.9Z" transform="translate(0.06 -0.3)"/><path d="M259.1,755.5c-2.7,1.2-3.2,1.9-2.7,3.8a20.42,20.42,0,0,1,.6,3.4c0,2.2,5.3,1.4,9.3-1.2,4.6-3.2,4.7-3.9.3-3.1-3.3.6-5.7-.6-3.6-1.9,1.2-.7,1.4-2.5.3-2.5A32.84,32.84,0,0,0,259.1,755.5Z" transform="translate(0.06 -0.3)"/><path d="M170.4,756.9c2.8,1.1,5.1,1.9,5.3,1.7.9-.8-2.9-2.7-6.4-3.2l-3.8-.5Z" transform="translate(0.06 -0.3)"/><path d="M291.3,765.2c-8.9,6-10.8,7.7-10.8,9.8a4.63,4.63,0,0,1-2.2,3.8c-1.3.7-2.3,1.7-2.3,2.2,0,4.2,21.5-6.7,35-17.8,5.8-4.8,5.8-4.8-3.4-.8l-5.8,2.7.6-3.6c.4-1.9.5-3.5.2-3.5S297.3,761.3,291.3,765.2Z" transform="translate(0.06 -0.3)"/><path d="M86,759.8a4.29,4.29,0,0,0,1.5,2.2c.8.7,1.5.8,1.5.2a4.29,4.29,0,0,0-1.5-2.2C86.7,759.3,86,759.2,86,759.8Z" transform="translate(0.06 -0.3)"/><path d="M194.6,759.9c-1.4.5-1.6,1-.7,1.5,1.5,1,6.1-.1,6.1-1.4S197.4,758.8,194.6,759.9Z" transform="translate(0.06 -0.3)"/><path d="M198.8,765.2c-6.3,1.3-6.6,3.8-.4,3.8,4.2,0,7.6-1.8,7.6-4.1C206,763.9,205.2,763.9,198.8,765.2Z" transform="translate(0.06 -0.3)"/><path d="M309,771.2c-1.9,1.2-7.9,4.3-13.2,7-9.5,4.7-11.9,6.8-7.8,6.8s23.3-10.8,24.4-13.7C313.4,768.9,312.7,768.9,309,771.2Z" transform="translate(0.06 -0.3)"/><path d="M302,782.9c-7.9,3.8-14.6,7.4-14.8,8-.7,2.2,5,1,11.9-2.5,6.6-3.3,7.2-3.4,8.3-1.8,1.6,2.2,5.3,1,13.1-4.1,6.6-4.5,7.8-5.9,3.1-4s-6.4,1.9-6.8-.5C316.5,776.2,315.2,776.6,302,782.9Z" transform="translate(0.06 -0.3)"/><path d="M325.9,784.3c-2.4,1.3-8,4.5-12.4,7s-9.3,5.3-10.8,6.1-2.6,2-2.3,2.5c1.1,1.7,9.9-1.8,17.6-6.9C330.5,784.6,335.4,779.3,325.9,784.3Z" transform="translate(0.06 -0.3)"/><path d="M3.2,797c-3.2,1.4-2.7,3.6,1.1,4.4,4.7,1.1,50.4,2.5,79.6,2.6,25.3,0,25.4,0,22.9-1.9a13.43,13.43,0,0,0-4.9-2.5c-1.3-.3-18.6-1-38.4-1.6s-40.9-1.2-47-1.5S4.5,796.5,3.2,797Z" transform="translate(0.06 -0.3)"/><path d="M1.1,818.9c.9.6,7.9,1.3,15.5,1.5,10.1.4,12.2.3,7.9-.4C13.7,818.5-.7,817.8,1.1,818.9Z" transform="translate(0.06 -0.3)"/><path d="M3.5,825c.3.5,2,1.1,3.8,1.4,5,.8,27.1,1.7,26.6,1.1-.4-.3-27.7-3.5-30.7-3.5C3,824,3.1,824.4,3.5,825Z" transform="translate(0.06 -0.3)"/><path d="M5,831.1c0,.5,1.1.9,2.5.9s2.5-.2,2.5-.4-1.1-.6-2.5-.8S5,830.7,5,831.1Z" transform="translate(0.06 -0.3)"/><path d="M2.2,840.1c.6,1.7,12.1,2.4,17,1l3.3-.9-4.1-.1c-2.3-.1-6.9-.4-10.4-.8C2.9,838.8,1.8,838.9,2.2,840.1Z" transform="translate(0.06 -0.3)"/><path d="M359.7,841.7a40.89,40.89,0,0,0,7,0c2.1-.2.7-.4-3.2-.4S358,841.5,359.7,841.7Z" transform="translate(0.06 -0.3)"/><path d="M1.2,847.1c.4,1.1,3.2,1.4,12.9,1.5l12.4.1L17,848c-5.2-.4-11-1.1-12.9-1.5C1.4,845.9.8,846,1.2,847.1Z" transform="translate(0.06 -0.3)"/><path d="M266.5,848.2c2.8.5,6.4,1.2,8,1.7,4,1,12.7-.1,13.3-1.7.3-.9-2.7-1.2-13-1.1C263.6,847.2,262.3,847.4,266.5,848.2Z" transform="translate(0.06 -0.3)"/><path d="M427,898.9c0,1.2.5,2.1,1,2.1s1-.6,1-1.4a2.52,2.52,0,0,0-1-2.1C427.5,897.2,427,897.8,427,898.9Z" transform="translate(0.06 -0.3)"/><path d="M222.8,903.7c4.5.2,11.9.2,16.5,0s.8-.3-8.3-.3S218.2,903.6,222.8,903.7Z" transform="translate(0.06 -0.3)"/><path d="M216.3,914.1c2.8,1.6,12.6,2.3,20.3,1.3l6.9-.8-6-.7C227.4,912.7,214.2,912.9,216.3,914.1Z" transform="translate(0.06 -0.3)"/><path d="M213.5,924.9a.91.91,0,0,0,.2,1.3c.5.2,9.4.1,19.8-.2l19-.5-13-.7C222.1,923.8,214.2,923.8,213.5,924.9Z" transform="translate(0.06 -0.3)"/><path d="M216.7,934.7a1.89,1.89,0,0,0-.7,1.3c0,1.3,14,2,25.7,1.3l11.8-.7L239,935.4C221.4,933.9,217.5,933.8,216.7,934.7Z" transform="translate(0.06 -0.3)"/><path d="M216.8,946.1a3.53,3.53,0,0,0-1.8,2.8c0,1.6,1.3,1.9,9.8,2.4,15.8,1.1,137.5.8,139.2-.3,1.1-.7-.3-1-4.5-1-3.3,0-32.8-.7-65.5-1.5-54.8-1.3-68.1-1.9-73.5-3.1A5.9,5.9,0,0,0,216.8,946.1Z" transform="translate(0.06 -0.3)"/><path d="M454.3,951.6c-5.6,1.3-1.2,2.1,13.5,2.7,17,.7,60.8.9,60.1.3C526.9,953.6,457.8,950.9,454.3,951.6Z" transform="translate(0.06 -0.3)"/><path d="M767.7,1149.9c-8.6,2.8-10.3,4.3-11.7,10-1.4,6-.3,8.6,4.4,10.6,4.1,1.7,19.8,4.5,25.5,4.5,3.8,0,4.2-.2,3-1.6a7.62,7.62,0,0,1-1.4-3.5,5.27,5.27,0,0,0-.9-2.6c-.4-.5-5.8-1.1-11.9-1.4s-12-.9-12.9-1.3c-2.8-1.3-2.3-6,.7-8,4.8-3.2,33.9-4.7,43-2.2,10,2.6,16.6,7.9,14.3,11.5-1.9,3.1-4.7,4.2-14.1,5.7-11.1,1.8-12.7,2.2-12.7,3.6,0,.8,2.8.9,9,.5,13.8-1,18.3-3.7,20.1-11.8,1.1-4.7-.1-6.8-5.5-9.6-4.7-2.4-20.2-5.2-32.1-5.8C775.4,1148.1,772.5,1148.3,767.7,1149.9Z" transform="translate(0.06 -0.3)"/><path d="M781.2,1158.2c.4,2.7,4.7,4.1,10,3.2,4.2-.6,5.1-1.5,4.2-3.8-.5-1.3-2.1-1.6-7.6-1.6C781.2,1156,780.9,1156.1,781.2,1158.2Z" transform="translate(0.06 -0.3)"/><path d="M18.7,1179.7c-1.2,1.2-.7,5,.7,6.3,1.1.8,6.6,1.1,19.8.8,10.1-.2,33.7.1,52.6.6,25.7.7,34.2.6,34.2-.2,0-1.4,36.8-1.7,56-.5l11.5.7-7.5,1.3c-7,1.1-6.4,1.2,10.5.8,9.9-.2,19.8-.9,22-1.4,5.2-1.4,31-1.3,50,.2,8.3.6,34.7,1.1,58.8,1.1,40.3.1,43.9.2,44.8,1.8s1.4,1.6,3.7.5c2-.9,16.4-1.2,56.4-1.2,38.9,0,54-.3,54.8-1.1,1.6-1.6-14.1-2.1-102.5-3.4-101.5-1.5-156.6-2.7-224-5C104.6,1179.1,20,1178.3,18.7,1179.7Z" transform="translate(0.06 -0.3)"/><path d="M421.8,1195.7a53.39,53.39,0,0,0,8,0c2-.2.1-.4-4.3-.4S419.4,1195.5,421.8,1195.7Z" transform="translate(0.06 -0.3)"/><path d="M191.1,1203.2c-8.9,1.5-6.3,1.8,12.4,1.3,27-.8,33.3-2.1,10.5-2.1C203.8,1202.4,193.5,1202.7,191.1,1203.2Z" transform="translate(0.06 -0.3)"/></svg>