<?xml version="1.0" encoding="utf-8"?>
<!-- Generator: Adobe Illustrator 24.1.1, SVG Export Plug-In . SVG Version: 6.00 Build 0)  -->
<svg version="1.1" id="Capa_1" xmlns="http://www.w3.org/2000/svg" xmlns:xlink="http://www.w3.org/1999/xlink" x="0px" y="0px"
	 viewBox="0 0 1098 1280" style="enable-background:new 0 0 1098 1280;" xml:space="preserve">
<style type="text/css">
	.st0{fill:#631515;}
</style>
<g transform="translate(0.000000,1280.000000) scale(0.100000,-0.100000)">
	<path class="st0" d="M4624,12783c-17-10-49-33-72-52c-37-30-42-39-42-76c0-26,10-60,25-89c30-56,30-56,6-56c-11,0-22-8-25-17
		c-25-85-46-689-72-2050c-4-194-11-353-16-353s-35,14-68,30c-115,58-262,80-395,60c-106-16-151-35-294-125c-66-41-167-98-222-125
		l-102-50l-206,3c-236,2-262-3-330-67c-24-22-103-115-176-206c-72-91-160-191-194-223c-63-57-73-63-372-205c-120-58-172-117-333-383
		c-154-255-189-301-338-440c-107-100-251-269-229-269c5,0,13,4,16,10c10,15,299,246,360,286c30,20,68,39,86,43c30,6,34,13,84,146
		c120,316,188,422,332,516c48,31,389,189,409,189c2,0-18-45-46-100s-48-100-46-100c6,0,144,218,237,376c113,191,220,301,335,344
		c73,27,299,52,440,48c103-3,109-4,112-25c2-13-10-35-30-58l-32-38l34,8c47,9,77,30,98,66c9,16,33,57,52,91c68,119,154,195,264,232
		c111,38,324,10,387-50c95-91,139-373,139-877c0-243-16-613-28-682c-7-35-11-40-35-40c-17,1-27-5-27-14c0-7,31-289,70-625
		c124-1091,151-1381,152-1651c2-255-13-317-96-403c-33-35-217-152-238-152c-3,0-8,9-11,19c-6,23-42,43-172,92c-73,28-92,39-70,39
		c84,2,290,21,324,30c21,5,43,16,49,23c8,9-17,10-121,4c-140-9-244-4-293,13l-30,11l8,87c4,48,13,105,20,127c7,25,12,114,12,235
		c1,259,4,264,189,290c93,13,110,22,77,40c-30,16-140-3-204-34c-95-47-125-126-151-401c-8-84-18-151-24-153c-16-5-13-43,3-61
		c8-9,23-39,34-68c27-71,2-60-35,15c-25,51-28,68-28,158c0,106-10,134-46,134c-13,0-19-7-19-22c0-48-20,7-94,257
		c-142,485-189,709-246,1195c-92,773-110,890-138,890c-13,0-77-155-78-190c0-21-12-52-28-77l-28-43l23-111c13-61,29-113,34-114
		c6-2,31-9,58-15c26-7,47-18,47-24c0-7-29-33-65-59c-61-44-65-49-65-87c0-43-2-41,83-55c49-8,48-26-7-85l-44-47l12-59
		c7-32,18-69,24-81c7-12,12-44,12-72c0-48,1-51,33-59c28-7,32-12,33-44c1-25,14-52,38-84c20-26,39-59,41-73c3-14,10-45,15-69
		c12-51,6-64-57-139l-44-52l38-7c51-9,90-30,104-55c12-24,14-21-31-44c-52-26-70-45-70-74c0-14-6-46-14-71c-7-25-11-59-9-77
		c4-26-7-48-71-141c-42-60-76-112-76-115s36,10,80,28c83,35,159,59,166,52c11-10-511-317-539-317c-5,0-6,8-3,18c3,9,8,38,11,64
		c8,55-10,80-74,99c-21,6-37,17-35,23s-2,42-9,81c-11,60-16,70-38,75c-28,7-28,6-10,84c9,41,11,88,6,153c-6,87-8,93-29,93
		c-28,0-46,18-46,47c0,15-6,23-18,23c-42,0-51,51-33,165c12,71,1,88-55,83l-43-3l5,36c8,51-20,178-56,249c-16,33-39,97-49,143
		c-28,116-75,240-79,207c-8-53,22-216,93-505c41-165,88-361,105-435s38-150,46-169c8-18,14-47,14-63c0-71,97-351,125-362
		c8-3,15-11,15-18c0-36,24-91,58-132c26-31,47-74,67-137c31-100,33-102,85-127c27-13,42-32,65-80c17-34,43-74,58-88s38-46,51-73
		c19-36,35-52,66-66c22-10,54-33,70-52c29-33,60-115,60-160c0-20,4-23,31-21c34,3,36,1,69-72c12-27,34-54,55-68c24-15,47-46,74-101
		l40-78l-97-45c-160-74-209-91-244-84c-41,8-100-9-136-39c-17-14-32-25-35-25c-4,0-70,49-149,108c-131,99-257,182-277,182
		c-4,0-16-9-26-20s-26-20-36-20s-41-9-69-20c-65-26-80-25-46,1c38,30,24,39-37,23c-65-17-68-17-61,0c3,9-5,15-25,19
		c-17,4-32,14-36,26c-6,19-30,27-112,38c-24,3-43,9-43,14c0,10-63,12-98,3c-30-8-23-28,11-32c15-2,27-10,27-18s4-14,9-14
		c4,0,20-11,34-24s48-29,76-36c38-9,51-16,49-28c-2-11,9-18,40-25c47-9,47-20-1-41l-32-14l41-1c44-1,142,29,183,56c69,44,73,43,25-8
		c-29-30-59-69-68-86c-16-31-20-33-69-33c-68,0-107,24-250,156c-162,149-241,217-277,238c-18,10-30,14-26,8c9-16-28-47-75-62
		c-60-20-57-30,9-30c68,0,74-5,94-75l14-49l69-12c127-20,144-36,105-100l-21-32l53-10c47-8,37-10-82-11c-230-2-621-20-710-33l-85-12
		l85-7c47-4,174-12,282-18c402-22,523-60,343-107l-80-21l160-7c88-3,163-10,168-15c9-9-41-30-77-32c-48-3,75-18,154-18
		c95-1,160-10,160-21c0-4-21-13-47-21c-56-15-61-14,161-34c166-15,246-29,256-45c3-4,190-11,415-15l410-7l95,42c91,40,102,42,275,58
		l180,17l-93,8c-117,9-165,27-160,59c2,13,14,28,28,35c35,16,159,31,330,39l145,6v-100c0-83-3-103-18-120c-22-25-18-42,28-129
		c33-60,33-61,12-67c-12-3-48-6-80-6c-50,0-67-6-123-39l-66-40l34-5c18-3,70-7,116-10c103-7,134-20,143-63c3-18,12-39,18-47
		c9-11,5-15-26-18c-41-5-787,5-1628,22c-1258,25-1566,30-1990,30c-414,0-708-10-749-26c-23-9-22-69,2-79c30-13,507-24,1477-35
		c1137-12,1711-13,1733-1c17,8,157,1,737-39c356-25,460-36,499-55c24-13,119-13,665-5c659,10,798,15,818,32c8,6,95,6,250-1
		c131-6,348-15,483-21c416-17,564-43,749-131c128-61,208-117,291-206c81-85,129-158,185-276c64-136,88-229,175-702
		c200-1072,242-1260,190-848c-38,307-128,785-334,1772c-37,173-66,317-66,320c1,3,16-23,35-59l34-65l1,41c0,51,10,60,90,78
		c79,19,97,12,158-63l44-54l-3,56c-5,68,4,74,18,15c6-24,38-135,71-248c94-323,183-724,357-1620c38-196,235-1263,235-1275
		c0-7-115,7-143,17c-15,6-30,21-33,34s-10,24-16,24c-5,0-64-18-131-41c-101-34-131-40-171-35c-26,3-54,10-60,15c-8,7-25,7-49,0
		c-21-5-41-8-46-5c-14,9-25,231-12,255c22,40,60,27,124-41l59-62l-4,140c-3,76-8,147-13,157c-13,30-35,20-35-15c0-46-9-55-60-67
		c-145-32-349-36-1802-33c-968,1-1449-1-1453-8s51-10,161-10c257,0,1274-30,1314-39c28-6,14-9-74-16c-67-5-103-11-95-16s26-9,42-9
		c34,0,34-7,1-41c-24-25-25-31-15-60c6-18,11-45,11-60v-29l73-1c121-2,200-13,205-28c4-11-49-12-329-7c-184,3-602,11-929,16
		c-847,15-1293,29-1301,42c-7,11-366,16-2724,38c-676,7-1257,10-1289,9c-55-4-58-5-44-20c19-19,186-49,472-84c205-26,256-38,151-35
		c-116,3-488,0-484-4c6-7,1153-65,1599-82c96-3,191-10,210-14c22-5,4-6-50-4c-135,7-1203,24-1469,24c-143,0-240-4-237-9
		c9-14,63-20,276-31c844-43,1201-48,1861-25c244,8,428,11,445,5l29-8l-27-1c-14-1-197-5-405-11c-529-14-884-30-902-40s23-15,249-35
		c152-14,149-14-225-9c-526,6-1191,5-1220-2c-14-3-25-10-25-16c0-5,33-25,72-44l73-35l-135,6c-155,6-233-2-238-26
		c-3-19-56-16,1223-54c1680-50,1891-55,2545-65c790-12,1721-27,2540-40C7708,9,8920-3,8927,4c5,4,8,148,7,319c0,328-5,384-60,712
		c-60,358-129,703-159,793c-8,23-15,45-15,47c0,8,824,5,1250-5c223-5,543-13,711-16l307-7l7,164c11,249-8,338-155,749
		c-131,367-205,597-470,1470c-227,750-345,1082-430,1216l-45,71l-305,6c-168,4-573,11-900,17s-622,13-655,16l-60,5l-33,162
		c-80,386-147,690-178,805l-34,123l36,31c20,17,53,57,75,89c21,32,59,74,83,94c38,31,46,45,61,103c17,63,22,71,102,147l85,80l10,78
		l11,78l58,40c32,23,64,55,72,72c12,24,37,131,37,154c0,2,9,3,19,3c30,0,48,25,60,80c6,27,26,71,45,97c40,57,103,172,142,262
		c27,61,27,64,9,77c-10,8-29,14-42,14s-23,3-23,6c0,13,45,81,92,137c35,42,48,67,48,90c0,18,14,56,30,86c17,30,29,55,28,57
		c-2,1-28-4-58-12c-57-15-84-12-112,13c-24,21-35,10-43-44l-8-48l-17,51c-21,60-50,118-56,111c-3-2,0-17,6-32c14-38-5-74-55-102
		c-55-31-82-29-143,13c-30,20-55,34-56,32s-7-15-13-30c-13-29-140-142-213-190c-36-24-53-28-84-24c-21,2-48,13-58,24
		c-18,17-18,22-5,53c8,19,39,72,70,119c30,47,54,86,53,88c-2,1-29-7-61-18c-103-35-134-23-148,57c-4,18-17,50-31,70
		c-19,29-26,58-32,119c-6,81-7,82-43,102c-51,29-78,61-90,109c-9,31-25,53-61,84c-28,23-50,49-50,58s11,42,24,74c13,31,20,57,15,57
		c-4,0-11-4-14-10c-9-15-87-12-136,5c-49,18-78,40-90,73c-10,26-59,30-99,7c-59-34-102,1-116,92l-6,42l-47-24c-53-29-78-31-108-10
		c-12,8-49,21-83,29c-102,24-109,43-61,151l29,64l-81-71c-96-83-159-118-185-102c-9,6-31,31-48,56l-30,45l-64-38
		c-70-43-159-79-193-79c-48,0-97,64-97,126c0,30-2,30-67-6c-29-17-53-28-53-25s23,51,51,108l51,102l-44-47c-24-27-52-48-61-48
		c-28,0-54,34-66,87l-12,50l-72-18c-39-11-81-19-93-19c-35,0-137,64-157,99c-10,17-22,31-27,31c-25,0-160-56-198-82
		c-23-16-83-75-132-132c-49-56-108-116-132-133l-44-31l-62,83c-34,46-88,105-121,132c-32,26-61,56-64,65c-6,19,4,429,29,1188
		c9,283,17,723,18,977l1,461l-23,25l-24,25l24,32c19,26,24,46,26,119l4,88l-32,23C4728,12800,4664,12806,4624,12783z M4720,12731
		c28-14,36-26,42-57c13-71,10-84-16-84c-68,0-116,44-116,108C4630,12751,4662,12763,4720,12731z M4726,12373c14-168-59-3190-78-3208
		c-2-3-19-8-38-11l-33-7l6,439c7,482,41,1634,57,1974c6,118,15,312,20,430c23,494,21,470,40,470C4716,12460,4719,12447,4726,12373z
		 M5460,9812c0-14-40-52-56-52c-11,0-12,4-4,20C5415,9808,5460,9832,5460,9812z M5814,9795c-3-7-12-16-19-19c-7-2-16-19-20-36
		c-6-26-34-50-61-50c-15,0,0,42,21,56c14,9,28,27,31,40c3,12,13,25,22,27C5811,9818,5820,9812,5814,9795z M5670,9743
		c0-10-42-53-51-53s-1,29,14,48C5643,9751,5670,9755,5670,9743z M4816,9678c14-29,36-63,47-76c17-18,22-39,25-112c4-79,7-90,23-90
		c25,0,30,11,38,88l7,67l52-102c28-56,56-105,63-108c6-4,24-28,40-53c23-37,29-57,29-104c0-55,1-58,25-58c20,0,30-10,51-52
		c46-92,133-213,220-309c32-35,44-58,49-93c7-43,9-46,24-31c28,24,39,18,72-40c17-31,39-59,48-64s22-26,29-48c24-68,34-83,60-83
		c24,0,24-1,17-62c-4-35-13-96-20-136c-10-61-10-72,1-68c23,9,47-36,103-192c49-135,58-152,83-161c15-5,58-38,95-73
		c38-35,169-145,293-244c124-98,266-213,316-254l92-75l30-115c39-146,51-212,59-331c7-109-1-169-22-169c-27,0-59-79-155-380l-8-25
		l-6,28c-3,15-8,38-11,52c-5,23-9,25-38,20c-26-5-37-2-56,19c-14,14-28,26-31,26c-4,0-24-47-44-104c-21-57-53-128-72-157
		c-32-51-34-58-34-146v-92l-132-42c-73-23-187-55-253-71c-155-39-241-36-437,16c-91,24-160,36-203,36c-62,0-67-2-83-29
		c-21-38-65-49-200-52c-165-3-153,7,106,91c105,34,195,66,198,71c6,10-34,10-161,0c-49-4-98-4-107,1c-43,21-50,155-27,506
		c14,228-2,208,179,218c66,4,119,8,118,9c-2,2-56,10-120,19c-150,22-181,17-213-38c-27-48-35-88-70-365c-26-211-48-317-70-348
		c-12-17-15-17-49,0c-20,9-45,17-55,17s-22,10-26,23c-4,12-10,154-12,316l-5,293l48,50c66,67,136,114,280,186
		c161,80,450,207,519,227c64,19,89,38,113,85c9,19,37,49,62,67c78,58,100,80,100,104c0,20-10,14-71-46c-79-78-78-80-24,72
		c19,54,29,95,24,99c-6,3-49-16-97-43c-80-44-90-53-119-108l-32-60l-1,65l-1,65l-37-69c-43-81-62-97-93-78c-11,7-23,11-26,9
		c-4-5-22-119-23-146c0-8-3-12-6-8c-3,3-10,93-14,200c-8,190-16,237-44,237c-19,0-43-30-54-70c-8-28-10-8-11,98c-1,74-5,132-10,132
		s-11-10-13-22c-2-13-7-23-12-23c-16,0-24,47-31,182c-4,70-9,131-11,134c-2,4-29-1-59-9l-56-16l5-110l6-111l-15,55
		c-28,100-60,142-82,108c-10-18-20,31-22,109c-2,102-18,80-24-34c-6-101-10-123-23-110c-9,9-23,191-24,307c0,87-3,101-13,85
		c-18-31-13-254,12-462c11-101,21-191,20-200c0-15-59,184-83,279c-4,19-11,25-21,22c-25-10-27,20-10,138c22,143,21,282,0,314
		c-13,21-24,24-78,25c-34,0-70,4-81,8c-15,6-10,10,24,21c33,11,46,11,61,2c17-11,21-9,30,15c13,34,35,211,43,348
		c8,121,46,1050,46,1118C4760,9747,4782,9745,4816,9678z M5370,9695c-27-14-36-13-25,4c3,6,16,11,28,11
		C5394,9709,5394,9709,5370,9695z M5620,9664c0-22-24-44-48-44l-27,1l28,24C5600,9669,5620,9677,5620,9664z M5720,9663
		c0-12-43-53-57-53c-19,0-16,10,9,37C5692,9669,5720,9678,5720,9663z M5500,9631c-10-20-30-29-30-14c0,10,33,44,37,39
		C5510,9654,5507,9642,5500,9631z M5776,9612c-25-26-26-26-26-5c0,12,10,29,22,38C5805,9668,5808,9644,5776,9612z M5881,9621
		c-13-23-51-35-51-16c0,15,27,34,48,35C5887,9640,5888,9635,5881,9621z M5320,9611c0-11-29-35-35-29c-10,9,7,38,21,38
		C5314,9620,5320,9616,5320,9611z M5740,9549c0-18-2-19-15-9c-15,12-12,30,6,30C5736,9570,5740,9560,5740,9549z M5830,9550
		c-6-11-17-20-25-20c-13,0-13,3-3,20c7,11,19,20,26,20C5838,9570,5838,9565,5830,9550z M5947,9526c-4-9-18-16-32-16
		c-22,0-24,3-15,19C5918,9564,5960,9561,5947,9526z M5704,9495c-7-17-30-20-38-6c-4,5,0,12,6,14C5697,9513,5709,9510,5704,9495z
		 M5788,9488c-3-7-13-15-24-17c-16-3-17-1-5,13C5775,9503,5793,9505,5788,9488z M5914,9475c-7-16-14-18-38-9c-26,10-18,24,14,24
		C5912,9490,5918,9486,5914,9475z M6250,9475c-7-8-16-12-21-9c-13,8-1,24,18,24C6260,9490,6260,9487,6250,9475z M6018,9453
		c-2-11-14-19-31-21c-29-4-35,6-15,26C5991,9477,6022,9473,6018,9453z M6656,9443c-8-8-56,6-56,17c0,5,13,5,31-2
		C6647,9452,6659,9445,6656,9443z M6125,9440c4-6-5-10-19-10s-26,5-26,10c0,6,9,10,19,10C6110,9450,6122,9446,6125,9440z M6348,9438
		c21-21,13-27-18-17c-16,6-30,15-30,20C6300,9454,6334,9452,6348,9438z M5460,9431c0-13-29-35-37-28c-7,8,15,37,28,37
		C5456,9440,5460,9436,5460,9431z M5570,9430c12-8,9-10-13-10c-16,0-26,4-22,10C5543,9442,5551,9442,5570,9430z M5858,9411
		c11-7,11-9-2-14c-20-8-48,2-40,14C5823,9422,5841,9422,5858,9411z M6225,9410c3-5,0-10-9-10c-8,0-21-3-30-6c-11-4-16-1-16,10
		C6170,9422,6215,9427,6225,9410z M6454,9379c-7-12-41-11-49,1c-4,6-1,18,6,26c10,13,14,12,30-2C6451,9395,6457,9383,6454,9379z
		 M6720,9410c8-5,11-12,7-16s-15,0-24,9C6685,9421,6695,9426,6720,9410z M5954,9395c23-17,13-34-11-19c-19,12-29,34-16,34
		C5931,9410,5944,9403,5954,9395z M6591,9392c-7-2-18,1-23,6c-8,8-4,9,13,5C6594,9399,6599,9395,6591,9392z M6285,9374
		c20-15,20-16-4-12c-14,2-26,9-29,16C6247,9394,6261,9393,6285,9374z M5530,9360c0-21-20-35-40-28c-12,4,16,48,31,48
		C5526,9380,5530,9371,5530,9360z M6070,9365c0-9-9-15-25-15s-25,6-25,15s9,15,25,15S6070,9374,6070,9365z M5623,9356
		c3-12-30-32-39-24c-11,12,5,40,21,36C5614,9366,5622,9361,5623,9356z M6814,9364c9-3,16-12,16-20c0-10-6-11-30-3c-16,6-30,15-30,20
		C6770,9371,6791,9373,6814,9364z M5826,9340c0-24,2-23-31-8c-18,8-22,14-13,20C5805,9366,5826,9361,5826,9340z M6394,9354
		c16-6,23-34,9-34c-11,1-43,26-43,34S6374,9362,6394,9354z M6541,9340c21-17,22-19,6-20c-26,0-59,19-52,31
		C6504,9365,6515,9362,6541,9340z M6690,9350c0-5-6-10-14-10s-18,5-21,10c-3,6,3,10,14,10C6681,9360,6690,9356,6690,9350z
		 M5930,9330c-6-11-16-17-25-14c-28,11-15,27,28,33C5937,9349,5936,9341,5930,9330z M6148,9338c-6-18-28-21-28-4c0,9,7,16,16,16
		S6150,9345,6148,9338z M6765,9318c30-13,33-28,6-28c-17,0-51,24-51,36C6720,9333,6738,9330,6765,9318z M6255,9310c3-5-3-10-14-10
		c-12,0-21,5-21,10c0,6,6,10,14,10S6252,9316,6255,9310z M6030,9300c0-5-13-10-30-10c-16,0-30,5-30,10c0,6,14,10,30,10
		C6017,9310,6030,9306,6030,9300z M6120,9285c0-9-9-15-25-15s-25,6-25,15s9,15,25,15S6120,9294,6120,9285z M6360,9269
		c0-13-34-11-48,3c-21,21-13,27,18,17C6347,9283,6360,9274,6360,9269z M7060,9258c0-13-17-9-34,8c-23,22-8,39,15,18
		C7051,9275,7060,9263,7060,9258z M6497,9284c-3-3-12-4-19-1c-8,3-5,6,6,6C6495,9290,6501,9287,6497,9284z M7214,9257
		c25-34,16-43-23-22c-30,15-39,34-24,49C7178,9294,7192,9286,7214,9257z M6208,9253c-5-26-38-29-38-4c0,15,6,21,21,21
		C6205,9270,6210,9265,6208,9253z M5883,9253c-7-2-19-2-25,0c-7,3-2,5,12,5S5889,9256,5883,9253z M6725,9250c7-12-2-12-30,0
		c-19,8-19,9,2,9C6709,9260,6722,9256,6725,9250z M6856,9243c9-9,12-19,7-20c-17-6-65,16-58,27C6814,9265,6837,9262,6856,9243z
		 M5990,9235c0-9-9-15-25-15s-25,6-25,15s9,15,25,15S5990,9244,5990,9235z M6584,9235c3-8,2-15-3-15s-14,7-21,15c-10,12-10,15,3,15
		C6571,9250,6580,9243,6584,9235z M5648,9218c-7-19-45-21-51-4c-5,12,1,16,24,16C5641,9230,5650,9226,5648,9218z M6290,9199
		c0-6-7-8-16-5s-18,6-20,6s-4,7-4,15c0,13,4,14,20,5C6281,9214,6290,9204,6290,9199z M7161,9199c5-11,7-19,5-19c-12,0-76,34-76,40
		C7090,9235,7151,9216,7161,9199z M5740,9205c0-8-9-15-20-15c-20,0-26,11-13,23C5719,9226,5740,9220,5740,9205z M6065,9210
		c-3-5-13-10-21-10s-14,5-14,10c0,6,9,10,21,10C6062,9220,6068,9216,6065,9210z M6660,9201c0-12-26-32-33-25c-9,10,4,34,19,34
		C6654,9210,6660,9206,6660,9201z M6806,9196c10-8,16-18,12-22c-10-9-58,12-58,26S6783,9212,6806,9196z M7287,9188c38-43,39-53,2-32
		c-19,11-35,28-37,37C7247,9217,7263,9214,7287,9188z M6170,9174c0-25-6-25-38-1c-11,8-11,12,0,18C6156,9207,6170,9200,6170,9174z
		 M5937,9164c-3-4-14-3-24,0c-15,6-15,8-3,16C5926,9190,5949,9176,5937,9164z M7093,9161c19-12,25-21,18-26c-13-8-61,20-61,35
		S7062,9182,7093,9161z M5510,9155c0-16-35-21-44-6c-8,12,4,21,26,21C5502,9170,5510,9163,5510,9155z M6760,9145c15-9,12-35-4-35
		s-66,38-66,50C6690,9168,6739,9158,6760,9145z M5685,9140c0-7-6-15-12-17c-8-3-13,4-13,17s5,20,13,18
		C5679,9155,5685,9147,5685,9140z M6236,9131c-4-6-14-11-22-11c-12,0-13,4-3,21c7,14,14,18,21,11C6238,9146,6239,9137,6236,9131z
		 M7240,9130l21-30h-21c-17,0-40,32-40,56C7200,9170,7222,9156,7240,9130z M5805,9130c-3-5-13-10-21-10s-14,5-14,10c0,6,9,10,21,10
		C5802,9140,5808,9136,5805,9130z M6465,9129c11-17-1-21-15-4c-8,9-8,15-2,15S6462,9135,6465,9129z M6886,9130c15-6,24-13,21-16
		c-8-9-67,6-67,17C6840,9143,6852,9142,6886,9130z M4634,9121c10-15,7-675-3-715c-11-43-24-56-60-56c-23,0-23,0-17,93
		c3,50,8,160,11,242c8,202,24,390,35,420C4610,9130,4624,9137,4634,9121z M5896,9103c-8-8-36,5-36,17c0,7,6,7,21,0
		C5892,9113,5899,9106,5896,9103z M6105,9120c18-8,17-9-7-9c-16-1-28,4-28,9C6070,9132,6078,9132,6105,9120z M6310,9100
		c-6-12-14-19-17-17c-2,3,1,15,7,27s14,19,17,17C6319,9124,6316,9112,6310,9100z M7031,9111c13-11,22-22,19-25c-8-7-53,17-58,32
		C6986,9136,7004,9133,7031,9111z M7399,9076c10-12,10-16,2-16c-28,0-70,32-71,53C7330,9124,7384,9095,7399,9076z M7180,9072
		c-15-5-41,18-34,30c3,5,15,1,26-9S7187,9074,7180,9072z M6536,9073c-7-7-26,7-26,19c0,6,6,6,15-2C6534,9083,6538,9075,6536,9073z
		 M6818,9065c-12-27-28-24-28,6c0,12,7,19,20,19C6827,9090,6828,9087,6818,9065z M6983,9052c24-21,21-35-5-27c-27,8-50,34-42,47
		C6942,9081,6955,9075,6983,9052z M6420,9055c7-8,8-15,2-15c-5,0-15,7-22,15s-8,15-2,15C6403,9070,6413,9063,6420,9055z M7330,9044
		c13-32,13-34-3-34c-24,0-51,26-44,44C7293,9078,7319,9073,7330,9044z M5547,9035c194-14,505-101,697-194c326-159,580-427,760-802
		c133-276,196-613,196-1051c0-159-2-188-15-188c-8,0-19-9-25-19c-11-22-35-210-45-368l-8-103l-41-34c-22-18-162-156-311-306
		c-254-256-389-379-467-424l-33-20l36,45c19,24,61,76,93,116s89,96,127,124c94,70,157,143,211,247c96,181,113,303,112,792
		c-2,614-49,920-183,1195c-142,289-349,534-581,686c-84,56-271,153-370,193c-68,28-271,80-355,92c-27,3-54,9-60,13
		c-11,6,123,18,165,14C5464,9042,5507,9038,5547,9035z M6635,9012c-6-7-35,18-35,31c0,5,9,2,20-8S6638,9015,6635,9012z M7115,9030
		c18-19,17-20-2-20c-22,0-47,23-36,33C7087,9054,7096,9051,7115,9030z M6484,9015c3-8,1-15-4-15c-6,0-10,7-10,15s2,15,4,15
		S6480,9023,6484,9015z M6883,9011c20-8,46-51,30-51c-13,0-44,23-53,40C6848,9023,6849,9024,6883,9011z M7460,8978c0-4-11-8-25-8
		c-28,0-30,3-14,32c11,21,12,21,25,3C7454,8995,7460,8983,7460,8978z M6365,9000c3-6-5-10-19-10s-28,5-31,10c-3,6,5,10,19,10
		S6362,9006,6365,9000z M7046,8986c10-8,16-17,12-21c-10-10-45,4-52,20C6999,9004,7020,9004,7046,8986z M6708,8968c19-19,14-30-8-18
		c-11,6-20,15-20,20C6680,8984,6694,8982,6708,8968z M7401,8952c10-25,1-28-26-9c-10,8-15,19-11,26C7375,8986,7392,8978,7401,8952z
		 M6990,8915c19-23,4-30-25-11c-30,20-36,53-7,37C6968,8936,6983,8924,6990,8915z M7518,8916c12-27,7-37-14-29c-15,5-20,53-6,53
		C7503,8940,7512,8929,7518,8916z M7120,8900c0-10-4-22-10-25c-6-4-10,7-10,25s4,29,10,25C7116,8922,7120,8910,7120,8900z
		 M7328,8918c19-19,14-30-8-18c-11,6-20,15-20,20C7300,8934,7314,8932,7328,8918z M7444,8881c16-17,16-19,0-25c-18-7-34,8-34,32
		C7410,8906,7424,8903,7444,8881z M7054,8847c13-20,5-30-18-21c-9,3-16,15-16,26C7020,8874,7038,8872,7054,8847z M7194,8844
		c20-20,20-24-1-24c-26,0-47,16-39,29C7164,8864,7176,8863,7194,8844z M7568,8821c3-30,2-32-17-21c-20,10-28,40-14,54
		C7551,8867,7565,8853,7568,8821z M7380,8835c21-25,1-31-22-7c-18,18-19,22-6,22C7360,8850,7373,8843,7380,8835z M6434,8814
		c5-14,4-15-9-4c-17,14-19,20-6,20C6424,8830,6431,8823,6434,8814z M7319,8790c5-16,7-30,4-30c-12,0-43,33-43,47
		C7280,8832,7308,8820,7319,8790z M7510,8793c0-10-4-24-9-32c-7-10-12-8-24,10c-19,26-14,39,14,39C7502,8810,7510,8803,7510,8793z
		 M6511,8770c17-10,27-40,13-40c-16,0-44,23-44,35C6480,8783,6485,8783,6511,8770z M7431,8759c16-8,18-13,9-24c-15-17-37-9-43,16
		C7391,8772,7402,8775,7431,8759z M7614,8748c9-34,8-38-9-38c-10,0-15,10-15,30C7590,8775,7605,8780,7614,8748z M7554,8724
		c12-31,6-44-19-44c-40,0-34,54,6,59C7545,8740,7551,8733,7554,8724z M6594,8701c4-5,3-17,0-26c-6-15-8-14-25,1c-11,9-19,21-19,26
		C6550,8713,6587,8712,6594,8701z M7470,8675c10-12,10-18,0-30c-19-23-30-18-30,15S7451,8698,7470,8675z M7656,8664c-3-9-6-22-6-30
		c0-20-13-17-28,6c-15,25-8,40,20,40C7656,8680,7660,8675,7656,8664z M6650,8629c0-5-7-9-15-9c-9,0-15,9-15,21c0,18,2,19,15,9
		C6643,8643,6650,8634,6650,8629z M7590,8631c0-34-12-45-39-36c-32,10-33,33-3,49C7586,8665,7590,8664,7590,8631z M7403,8628
		c8-28,2-34-17-19c-8,7-12,19-9,27C7385,8657,7397,8653,7403,8628z M6705,8570c-11-17-23-1-18,21c5,19,7,19,15,5
		C6707,8587,6708,8575,6705,8570z M7510,8569c0-10-4-19-10-19c-5,0-10,12-10,26s4,23,10,19C7506,8592,7510,8580,7510,8569z
		 M7694,8559c-10-16-24-9-24,12c0,18,2,19,15,9C7693,8573,7697,8564,7694,8559z M7440,8534c0-31-23-28-28,4c-2,15,2,22,12,22
		C7435,8560,7440,8551,7440,8534z M7614,8513c-25-18-45-17-37,3c7,20,46,36,52,21C7631,8531,7625,8521,7614,8513z M7734,8498
		c6-31-7-51-29-45c-15,5-18,46-5,63C7719,8537,7727,8533,7734,8498z M7550,8478c0-6-7-5-15,2s-15,17-15,22c0,6,7,5,15-2
		S7550,8483,7550,8478z M7658,8453c3-23-22-53-45-53c-12,0-14,7-9,32C7614,8481,7652,8496,7658,8453z M6290,8446c0-16,29-41,80-69
		c53-29,26-31-47-3c-37,14-87,30-110,36c-25,6-43,17-43,25c0,16,20,22,78,24C6278,8460,6290,8456,6290,8446z M7749,8379
		c-17-33-36-8-20,28c11,24,14,26,22,10C7758,8406,7757,8393,7749,8379z M8307,8414c4-13-23-44-38-44c-11,0-12,43-2,54
		C8277,8434,8303,8427,8307,8414z M7557,8398c-3-8-6-5-6,6c-1,11,2,17,5,13C7559,8414,7560,8405,7557,8398z M8570,8374
		c0-14-6-24-14-24c-15,0-30,45-20,61S8570,8401,8570,8374z M8410,8385c0-19-20-28-52-23c-22,3-22,4,7,20
		C8403,8403,8410,8404,8410,8385z M6240,8358c19-6,78-30,131-55c78-36,101-52,115-79c10-18,15-36,12-39c-9-9-87,33-127,68
		c-42,36-117,70-213,97c-39,11-74,22-77,26C6073,8385,6198,8371,6240,8358z M7681,8348c8-33-5-36-39-12c-19,13-21,19-11,30
		C7649,8388,7673,8379,7681,8348z M8233,8364c9-9-3-34-17-34c-6,0-18,5-26,10c-13,9-13,11,0,20C8207,8371,8224,8373,8233,8364z
		 M8485,8331c-8-17-18-31-21-31c-10,0,7,54,19,62C8502,8373,8502,8364,8485,8331z M8331,8328c-18-48-72-48-56,1c4,15,15,21,35,21
		C8336,8350,8338,8347,8331,8328z M6205,8301c28-10,64-25,80-34l30-17l-40,6c-66,10-205,54-205,65C6070,8334,6137,8324,6205,8301z
		 M7590,8315c7-9,10-18,7-21c-10-11-37,5-37,21C7560,8334,7574,8334,7590,8315z M7780,8310c0-16-7-20-30-20c-28,0-30,2-20,20
		c6,11,20,20,30,20C7773,8330,7780,8323,7780,8310z M8140,8309c14-24,13-25-23-34c-29-8-34,3-17,36C8114,8336,8127,8335,8140,8309z
		 M8433,8309c7-25-8-69-23-69c-5,0-10,13-10,29C8400,8324,8422,8351,8433,8309z M5823,8292c9-10,23-36,30-57c18-51,29-190,19-235
		c-7-30-10-17-22,80c-7,63-17,124-21,135c-8,19-8,19-15-5l-8-25l-7,25c-10,36-10,100-1,100C5803,8310,5814,8302,5823,8292z
		 M8557,8278c-3-7-5-2-5,12s2,19,5,13C8559,8296,8559,8284,8557,8278z M7680,8270c-6-12-14-19-17-17c-2,3,1,15,7,27s14,19,17,17
		C7689,8294,7686,8282,7680,8270z M8245,8270c-15-29-45-42-45-19s22,49,41,49S8260,8298,8245,8270z M6102,8261
		c105-27,232-84,294-132c28-22,71-46,95-54c24-9,75-38,112-66c52-38,74-61,89-96c17-39,18-50,8-67c-11-17-9-22,9-37
		c27-22,27-49,1-49c-18,0-17-4,13-60c26-49,29-62,18-69c-10-7-12-21-7-59c4-32,3-51-4-54c-7-2-1-28,15-71c29-77,32-117,10-117
		c-15,0-16-5-19-134c-1-16-6-31-11-33c-6-2-46,51-90,117c-75,114-81,120-94,101c-20-31-36-26-76,24c-32,38-41,43-65,39
		c-32-7-40,4-69,89c-16,46-22,52-62,66c-68,24-76,31-53,48c18,13,17,15-14,39c-31,25-61,73-76,122c-7,20-4,22,37,22c31,0,49-6,62-20
		c16-17,185-80,217-80c6,0-8,14-30,30c-44,32-52,47-27,56c22,9,18,27-12,57c-40,38-110,66-217,86c-52,10-99,22-105,25
		c-18,11-13,32,11,43c20,9,18,11-25,21c-26,7-47,17-47,24c0,14,110,5,188-16c45-11,52-11,40,0c-7,7-60,25-117,39
		c-114,28-145,41-136,56c7,11,17,9,187-38c153-41,195-39,83,4c-74,29-153,50-264,70c-25,4-46,14-49,22c-7,21,117,8,258-28
		c63-16,117-27,119-25c14,13-189,76-320,99c-46,8-88,20-93,26C5870,8298,6007,8285,6102,8261z M8070,8260c-6-12-21-25-34-29
		c-12-5-28-16-35-25c-27-33-56-6-33,31c9,15,70,42,95,43C8078,8280,8079,8277,8070,8260z M8344,8258c-13-46-23-55-24-22
		c0,31,6,44,22,44C8347,8280,8348,8270,8344,8258z M7796,8255c6-15-11-45-26-45c-10,0-18,31-13,48C7763,8275,7789,8273,7796,8255z
		 M8510,8251c-12-23-29-35-37-27c-7,7,26,46,39,46C8517,8270,8516,8261,8510,8251z M8170,8241c0-20-13-41-25-41c-21,0-28,19-15,35
		C8144,8252,8170,8255,8170,8241z M8290,8212c0-21-34-53-53-50c-30,4-28,30,3,45C8268,8221,8290,8224,8290,8212z M7691,8177
		c-8-8-11-7-11,4c0,9,3,19,7,23s9,2,11-4C7701,8193,7697,8183,7691,8177z M7931,8194c10-13,10-17-2-25c-17-11-72-12-66-1
		c2,4,7,15,10,25C7881,8214,7913,8215,7931,8194z M8420,8180c-6-12-14-19-17-17c-2,3,1,15,7,27s14,19,17,17
		C8429,8204,8426,8192,8420,8180z M8101,8184c10-13,10-17-2-25c-23-14-39-10-39,9C8060,8202,8080,8210,8101,8184z M8500,8135
		c-6-15-13-25-17-22c-3,4,0,21,8,38C8507,8190,8515,8175,8500,8135z M8024,8141c3-5-5-11-19-13c-21-4-25-1-25,19s3,22,19,13
		C8010,8155,8021,8146,8024,8141z M8190,8140c0-23-4-30-20-30c-22,0-25,12-10,41C8176,8179,8190,8174,8190,8140z M8349,8156
		c14-16,4-46-15-46c-9,0-14,11-14,30C8320,8172,8331,8178,8349,8156z M7730,8102c0-10-5-10-20-2c-11,6-20,17-20,25c0,13,3,13,20,3
		C7721,8121,7730,8109,7730,8102z M7958,8118c-3-23-28-34-53-24c-18,7-9,33,13,39C7954,8143,7961,8140,7958,8118z M8290,8113
		c0-35-14-58-29-49c-14,9-14,17-1,50C8273,8148,8290,8147,8290,8113z M8107,8083c-4-17-4-17-12,0c-4,9-4,25,0,35c8,16,8,16,12,0
		C8110,8108,8110,8092,8107,8083z M8430,8108c0-7-5-20-10-28c-8-12-10-9-10,13c0,15,5,27,10,27C8426,8120,8430,8114,8430,8108z
		 M8045,8089c11-16-4-59-20-59c-15,0-20,26-9,54C8023,8102,8036,8105,8045,8089z M8234,8064c10-27-12-56-42-52c-30,3-41,30-22,53
		C8186,8085,8226,8084,8234,8064z M8508,8050c-7-11-19-20-26-20c-10,0-10,5-2,20c6,11,17,20,25,20C8518,8070,8518,8067,8508,8050z
		 M7985,8041c5-9-31-41-47-41c-10,0-11,34-1,43C7947,8053,7978,8051,7985,8041z M5998,7903c4-88,3-105-9-101c-18,6-26,46-28,128
		C5959,8087,5989,8063,5998,7903z M8126,8015c18-27,13-55-10-55c-16,0-26,21-26,56C8090,8047,8105,8047,8126,8015z M7893,8000
		c3-11,2-20-3-20c-8,0-20,24-20,41S7887,8022,7893,8000z M8290,7995c-17-21-30-19-30,4c0,11,8,21,18,23
		C8300,8027,8305,8014,8290,7995z M8440,7978c0-27-27-22-34,7c-9,36,3,53,21,30C8434,8004,8440,7988,8440,7978z M4716,7954
		c-8-31-36-32-36-1c0,12,8,34,18,47l17,25l3-24C4720,7989,4719,7967,4716,7954z M8070,7984c0-3-5-15-11-26c-9-17-13-18-20-7
		c-15,23-10,39,11,39C8061,7990,8070,7987,8070,7984z M8218,7943c-18-22-28-14-16,12c8,18,14,22,19,13
		C8225,7961,8224,7950,8218,7943z M8351,7927c-8-8-11-4-11,14c0,33,14,47,18,19C8360,7948,8357,7933,8351,7927z M7994,7955
		c3-8-2-21-10-30c-30-29-44-13-24,26C7973,7974,7986,7976,7994,7955z M4630,7941c0-23-19-31-71-31c-74,0-32,47,44,49
		C4623,7960,4630,7955,4630,7941z M7910,7914c0-31-23-28-28,4c-2,15,2,22,12,22C7905,7940,7910,7931,7910,7914z M8150,7920
		c-12-22-40-27-40-7c0,19,10,27,32,27C8158,7940,8159,7937,8150,7920z M8300,7927c0-18-27-53-34-46c-9,9,11,59,24,59
		C8295,7940,8300,7934,8300,7927z M8427,7888c-3-7-5-2-5,12s2,19,5,13C8429,7906,8429,7894,8427,7888z M8090,7901c0-5-7-17-16-26
		c-19-19-38-7-28,18C8052,7911,8090,7917,8090,7901z M8234,7883c-4-16-13-35-20-43c-12-12-14-11-14,9c0,27,17,61,31,61
		C8236,7910,8238,7898,8234,7883z M6062,7878c29-52,112-277,105-284c-10-11-28,7-58,61c-17,30-39,57-49,60c-23,7-30,34-30,118
		C6030,7902,6040,7916,6062,7878z M8010,7871c0-11-39-41-52-41c-10,0-11,34-1,43C7967,7884,8010,7881,8010,7871z M8154,7864
		c11-29,7-64-9-64c-11,0-15,11-15,40C8130,7880,8143,7893,8154,7864z M8368,7841c3-24,0-32-10-29c-7,3-14,19-16,37c-3,24,0,32,10,29
		C8359,7875,8366,7859,8368,7841z M4591,7843c11-12,14-50,13-148c-1-154-7-185-33-185c-28,0-32,20-32,164
		C4539,7838,4554,7888,4591,7843z M7906,7813c-11-11-19,6-11,24c8,17,8,17,12,0C7910,7827,7909,7816,7906,7813z M8088,7803
		c-3-42-21-51-26-15c-4,29,4,52,18,52C8087,7840,8090,7825,8088,7803z M8299,7828c-1-7-5-24-9-38c-7-22-8-21-9,13c-1,20,4,37,9,37
		C8296,7840,8300,7834,8299,7828z M8224,7778c-10-18-19-28-21-21c-5,15,15,53,28,53C8236,7810,8233,7795,8224,7778z M8012,7753
		l-10-28l-11,29c-9,23-9,31,1,37C8013,7804,8023,7784,8012,7753z M8305,7729c8-25,1-34-20-26c-19,8-20,47-1,47
		C8292,7750,8302,7741,8305,7729z M8086,7672c-13-12-17,8-10,40l9,33l3-33C8090,7693,8089,7676,8086,7672z M8008,7661
		c3-24,0-32-10-29c-7,3-14,19-16,37c-3,24,0,32,10,29C7999,7695,8006,7679,8008,7661z M8083,7610c-3-11-7-20-9-20s-4,9-4,20
		s4,20,9,20S8086,7621,8083,7610z M8067,7513c-3-10-5-4-5,12c0,17,2,24,5,18C8069,7536,8069,7522,8067,7513z M7996,7483
		c-11-11-19,6-11,24c8,17,8,17,12,0C8000,7497,7999,7486,7996,7483z M4610,7280c12-12,20-33,20-54c0-42-21-52-80-36l-40,11l1,49
		l2,50h39C4577,7300,4597,7293,4610,7280z M4682,7114c3-3,1-18-5-34l-11-30l-71,6c-77,7-105,17-105,39c0,7,8,16,18,18
		C4533,7120,4676,7121,4682,7114z M4610,6860c22-42,33-256,27-565c-6-315-18-463-43-523c-11-28-17-32-36-27c-47,14-49,25-22,105
		c21,60,28,100,32,200c4,121-13,610-27,758l-7,72h33C4589,6880,4603,6874,4610,6860z M7669,6518c32-161,140-624,241-1033
		c103-418,180-755,180-791c0-12-5-11-28,6c-26,20-30,20-71,5c-55-19-75-19-91,1c-8,8-28,79-46,157s-33,137-33,130c-1-6,8-71,19-145
		c11-73,20-140,20-148c-1-22-48,38-61,78c-8,26-16,32-38,32c-16,0-40,9-55,21c-32,25-43,19-52-27c-8-42-34-58-119-73
		c-168-30-344-35-1155-34c-479,0-804-3-775-8c67-11,602-26,1605-44c2295-42,2468-46,2500-56c21-6,17-7-18-8c-27-1-53-8-68-20
		c-13-10-57-27-96-37c-82-20-86-17,64-49c48-11,75-21,71-27c-14-24,389,12,424,37c17,13,17,15,1,43c-19,32-24,72-9,72
		c4,0,23-10,42-23c61-41,101-133,215-497c35-113,64-208,64-212s-12-3-27,3c-15,5-209,17-432,25c-407,14-4273,128-4771,140
		c-146,4-282,9-304,13c-21,3,85,5,235,4c151-1,267,0,259,3c-8,2-157,24-330,47c-265,37-326,48-377,72c-94,42-96,46-91,169
		c5,114,21,156,61,157c22,0,22,0,1,9c-33,13-39,83-18,188l4,22h348h349l23,25c29,30,55,39,205,65c177,31,260,56,360,109
		c50,27,137,63,195,81c122,38,187,69,292,142c236,163,496,450,821,906c71,100,145,199,163,220l33,37l1-80c0-114,30-301,110-690
		l69-340l-4,210c-2,116-13,308-25,428c-12,121-20,223-18,228c2,4,31-132,65-304c56-284,62-305,62-239c1,78-64,425-120,641
		c-21,82-29,137-29,198v85l67,69c36,38,69,69,73,69C7653,6580,7662,6552,7669,6518z M3580,6371c-15-28-12-61,5-61c18,0,29-21,45-87
		c6-29,18-57,26-64c8-6,14-21,14-32s7-28,15-37s28-61,45-116c17-54,39-123,50-152s20-61,20-71c0-9,11-28,25-41s25-29,25-37
		c0-7,6-13,14-13c7,0,21-11,30-25c11-17,26-25,44-25c15,0,38-7,51-16c15-11,33-14,53-10c17,3,36,2,42-3c7-6,30-4,61,3
		c117,30,112,31,125-22c7-26,14-112,17-192l5-145l-26,28c-14,15-26,35-26,43s-11,19-25,24s-25,16-25,25s-11,20-25,25
		c-15,6-25,17-25,30c0,15-7,20-25,20c-15,0-25,6-25,14s-10,18-22,21c-13,4-32,16-43,26s-40,22-63,28c-43,9-46,8-127-45
		c-83-54-105-63-105-44c0,21-42,8-156-50c-126-64-154-71-154-42c0,13,27,33,91,68c50,27,98,57,107,67c16,18,15,18-13,11
		c-17-4-71-25-122-46c-91-38-133-47-133-28c0,5,30,25,68,44c37,19,76,41,87,50c20,15,20,15,0,16c-10,0-54-16-96-36
		c-74-35-116-39-107-11c3,6,36,29,74,50c73,40,108,67,86,67c-7,0-53-13-104-30c-135-43-132-27,9,61c105,66,88,79-27,20
		c-82-43-129-51-149-27c-14,17-13,18,77,54c67,28,142,76,142,92c0,14-70-10-169-56c-51-24-96-44-98-44s-3,12-1,28
		c3,27,33,46,246,159c17,9,32,21,32,26c0,23-163-41-243-95c-66-45-102-48-102-8c0,21,11,29,78,56c79,33,197,103,197,117
		c0,13-49-3-172-54c-122-51-172-63-147-33c7,9,44,31,82,51c116,58,295,183,263,183c-4,0-90-40-192-90c-101-49-189-90-194-90
		c-20,0-9,21,18,32c15,7,41,22,57,34c17,12,77,47,135,77c119,64,148,83,138,92c-3,4-89-36-191-89c-101-53-191-96-200-96
		c-28,0-19,27,16,53c17,13,75,47,127,75c94,50,170,105,160,115c-3,3-76-28-162-68c-176-83-208-94-208-73c0,8,31,29,71,48
		c38,18,141,76,227,130c206,127,286,157,193,74c-48-43-62-64-42-64c5,0,44,24,87,53c83,55,154,96,167,97
		C3587,6390,3586,6381,3580,6371z M7508,5783c4-51,5-93,2-93c-9,0-40,191-39,235l1,40l15-45C7495,5895,7505,5833,7508,5783z
		 M6481,5868l44-4l-67-33c-37-18-72-30-78-26c-16,10-12,34,12,67c18,27,23,29,33,15C6431,5878,6455,5870,6481,5868z M4538,5676
		c15-8,40-28,56-44c23-24,28-40,29-77c0-41-5-53-42-96c-38-44-46-49-84-49c-91,0-112,9-138,56c-18,33-24,60-24,106v62l54,28
		C4448,5693,4497,5697,4538,5676z M6620,5481c0-17-6-31-16-35c-24-9-24-9-24,29c0,28,4,35,20,35C6615,5510,6620,5503,6620,5481z
		 M7993,5493c8-10,19-30,22-46c11-41,21-40,17,1c-1,21,2,43,7,51c14,21,41,5,48-29c6-34,19-29,25,10c5,41,36,37,55-7l16-38l8,33
		c3,18,9,36,12,39c16,15,38-12,57-69l21-63l-5,68c-5,65-5,67,19,67c14,0,32-11,44-27c20-27,20-27,21-6c0,21,5,23,48,22
		c26-1,56,0,67,2c13,3,24-5,34-26c15-29,16-29,19-7c5,33,29,38,62,13c36-26,40-26,40-1c0,13,7,20,19,20c23,0,46-21,66-61
		c21-39,27-37,19,6c-7,41,12,55,52,36c18-8,29-8,44,1c27,17,70,0,97-40l22-33l3,38c3,35,6,38,35,41c24,2,34-2,43-18l11-21l19,23
		l18,23l26-24c14-14,26-30,26-37s4-16,10-19c6-4,7,5,4,23c-8,37,13,54,52,43c16-4,46-6,66-3c33,4,39,1,56-27c20-33,32-31,32,5
		c0,62,59,19,81-59c17-60,28-66,22-13c-6,50,2,96,17,96c5,0,21-12,35-27c19-22,25-24,25-11c0,27,18,31,49,9c36-26,39-26,43,1
		c5,38,28,32,45-11c18-45,33-45,33,0c0,36,12,37,38,4c25-32,28-31,36,5c11,55,29,34,81-95c7-18,9-16,18,13c11,36,21,41,32,15
		c73-189,250-741,240-751c-12-13-121,29-142,54l-21,27l-4-29c-2-23-8-29-28-29c-16,0-28,8-35,23c-5,12-12,22-15,22s-10-10-15-22
		c-9-22-16-23-103-23c-112,0-120,6-153,119c-29,100-29,99-34,94c-3-3,2-49,11-102c20-115,14-129-41-103c-20,10-37,12-40,7
		c-9-15-91-12-128,4c-38,16-61,40-75,81c-10,29-10,28-11-17c-1-38-5-50-23-59c-25-13-122-6-143,11c-9,8-14,7-19-5c-8-23-59-19-84,8
		c-11,12-24,36-29,52c-7,27-8,25-13-25l-5-55l-95-3c-114-4-164,9-184,46l-15,27l-1-26c0-44-20-51-119-48c-99,4-117,13-137,72l-12,32
		l-7-41c-11-66-16-70-67-55c-24,7-49,15-56,17s-21,23-32,46l-19,43v-47c-2-81-38-74-66,13c-15,45-18,48-30,32c-13-17-14-16-24,10
		c-18,47-57,208-111,462c-28,132-53,246-55,253C7959,5516,7974,5513,7993,5493z M3950,5465c0-8,19-24,43-36c46-23,241-218,288-288
		c29-44,38-94,19-106c-15-9-12-42,5-49c10-4,13-14,9-36c-4-16-2-36,4-43s10-36,9-65c-2-48-5-55-34-73c-20-13-34-16-38-9
		c-3,5-23,10-44,10s-41,3-45,7s-24,6-44,4l-37-3l25,24c41,38-13,32-132-17c-13-5-18-2-18,8c0,8,23,29,50,47c28,18,50,36,50,41
		c0,12-1,11-41-5c-62-25-79-28-79-14c0,7,21,26,48,42c57,35,42,46-23,16c-26-12-61-20-78-18c-32,3-32,3,26,36c57,34,77,60,35,48
		c-49-14-86-18-92-8c-3,5,21,26,53,45c111,69,100,96-13,32c-65-36-101-45-94-22c2,6,25,23,51,37s47,29,47,33c0,5-25,5-55,2
		c-30-4-55-5-55-2s24,20,53,38c28,18,54,34,56,36s1,6-3,10c-3,4-38-9-76-27c-53-26-73-31-82-22c-8,8-3,19,22,42c35,32,35,49,2,31
		c-29-15-52-14-52,4c0,8,5,15,10,15c24,0,7,30-20,37l-31,8l92,70c50,39,103,82,118,96C3917,5479,3950,5490,3950,5465z M5920,5458
		c0-19-12-33-37-47c-28-14-33-14-33,3c0,14,47,55,63,56C5917,5470,5920,5464,5920,5458z M5498,5438c-2-15-11-24-25-26
		c-27-4-29,5-6,30C5489,5466,5502,5465,5498,5438z M4614,5343c-2-21-9-110-14-198c-23-338-63-723-80-760c-7-16-30-305-30-384
		c0-12-4-21-9-21c-4,0-14,78-22,173c-14,187-20,1091-6,1139c6,23,17,30,65,44c31,9,61,23,65,30C4600,5395,4618,5381,4614,5343z
		 M3650,5346c0-23-32-53-84-80c-50-27-81-32-90-17c-10,15,18,40,84,76C3631,5363,3650,5367,3650,5346z M3605,5206l-47-41l22-20
		c14-13,33-18,56-16c26,2,34-1,34-14c0-8-7-18-15-21c-22-9-18-30,10-51c25-18,25-18,5-31c-19-11-24-7-64,55c-24,38-53,77-65,87
		c-30,28-27,64,7,78c40,16,86,25,96,20C3649,5249,3632,5229,3605,5206z M5729,5216c6-7,22-11,36-8c34,6,32-14-3-32
		c-16-8-96-37-178-65c-158-53-386-103-546-120c-117-13-398-14-398-2c0,10,80,20,165,22c57,1,59,1,31,13c-39,18-27,21,156,46
		c290,39,533,92,638,139C5684,5232,5714,5235,5729,5216z M3790,4930c-8-5-28-10-45-10c-23,0-27,3-15,10c8,5,29,10,45,10
		C3798,4940,3802,4937,3790,4930z M2700,4899c0-34-71-89-116-89c-14,0-15,2-3,17c17,20,101,82,112,83C2697,4910,2700,4905,2700,4899
		z M3535,4856c-10-14-24-26-33-26c-12,0-12,4,4,23C3544,4897,3563,4899,3535,4856z M2715,4813c-21-18-43-33-48-33c-13,0,20,51,52,77
		c23,21,26,21,30,6C2751,4852,2738,4833,2715,4813z M4675,4829c-21-23-16-31,35-54c52-23,51-35-2-35c-66,0-93,19-92,62
		c2,60,8,69,44,56C4689,4848,4690,4847,4675,4829z M2810,4821c-11-21-29-36-35-29c-3,2,2,14,11,26C2805,4846,2825,4848,2810,4821z
		 M3860,4825c10-12,9-16-4-21c-18-7-49,13-40,27C3824,4845,3846,4842,3860,4825z M3694,4771c-9-22-20-41-25-41c-13,0-11,6,12,51
		C3707,4833,3716,4826,3694,4771z M2850,4781c-12-23-58-61-73-61c-12,0,64,80,76,80C2857,4800,2856,4791,2850,4781z M3448,4771
		c9-5,25-12,35-15c11-3,21-15,24-26s13-20,23-20s20-7,24-15c3-8,14-15,25-15c37,0,35-23-5-58c-50-44-126-82-161-82c-27,1-27,1,9,18
		c29,13,91,72,76,72c-2,0-28-7-58-15c-68-18-80-18-56,0c26,19,12,37-20,25c-48-19-99-6-64,15c19,12,10,25-17,26h-28l28,22
		c30,24,127,77,140,77C3427,4780,3438,4776,3448,4771z M2910,4765c0-14-32-65-40-65c-13,0-13,6,5,40C2888,4766,2910,4781,2910,4765z
		 M3728,4723c-10-38-34-73-49-73c-5,0,3,25,18,55C3728,4769,3743,4777,3728,4723z M3935,4711l40-19l-56-1c-40-1-58,3-62,13
		C3845,4735,3877,4738,3935,4711z M2900,4626c0-8-15-16-37-19c-47-8-52-3-16,17C2882,4643,2900,4644,2900,4626z M3077,4629
		c37-14,83-58,83-80c0-19-36-59-53-59c-5,0-11,8-14,18c-3,14-11,18-29,14c-23-4-24-2-18,22c8,32,1,32-43,5c-24-15-38-18-45-11
		c-14,14,20,73,53,89C3041,4643,3042,4643,3077,4629z M3681,4610c6,0,19,5,30,10c28,15,25-10-5-43c-22-24-27-25-65-15
		c-22,6-41,14-41,18c0,5,15,21,33,36c27,22,33,24,35,10C3670,4617,3676,4610,3681,4610z M10010,4500c0-14-28-1-34,16
		c-4,12-2,12,14,4C10001,4514,10010,4505,10010,4500z M9918,4508c29-29,10-34-53-17c-34,10-37,13-20,20
		C9875,4523,9905,4521,9918,4508z M8505,3762c50-2,147-3,216-2c146,2,237-12,260-39c15-18,16-18,26,10c11,28,13,29,81,29h70l17-42
		c9-23,21-80,27-127c22-185,25-189,24-31c0,148,8,200,33,200c15,0,31-51,37-121c7-72,24-78,24-8c0,63,11,101,25,89c9-8,14-5,18,10
		c7,27,20,25,60-10l34-29l23,31l23,31l86-5c47-3,112-13,144-23c55-18,58-18,70-1c13,17,15,17,46,2c17-10,35-25,39-34c5-14,7-12,12,8
		c5,21,12,25,50,28c92,6,102,4,130-16c27-20,28-20,33-2c7,29,51,34,151,21c50-7,113-13,140-14l49-2l28-113c16-63,46-173,68-245
		c81-268,119-405,151-542c18-77,56-238,86-357c30-120,54-221,54-226c0-31-211-44-364-22c-87,13-125,35-151,85l-20,40l-3-48
		c-5-72-30-82-207-81c-199,1-267,26-285,106c-6,29-8,26-14-34l-8-66l-52-1c-28,0-96-2-151-4s-217,5-359,16c-216,17-263,18-280,7
		c-14-9-69-15-158-18l-137-5l-6,24c-5,24-141,692-239,1179c-30,146-57,289-61,319l-7,54l38-9C8398,3770,8456,3764,8505,3762z
		 M10823,2565c78-239,87-275,68-275c-13,0-66,141-95,252c-24,93-43,208-33,198C10766,2737,10793,2659,10823,2565z M6902,843
		c26-30,39-84,45-180c5-78,4-93-9-93c-23,0-49,35-69,92l-18,53v-48c-1-58-15-87-41-87c-19,0-28,7-55,45c-12,17-16,18-24,5
		c-6-8-13-12-16-9c-11,12-18,109-7,121c6,8,7,31,3,61l-8,47h44c38,0,46-4,63-32c13-22,20-27,20-15c0,17,33,57,48,57
		C6883,860,6894,852,6902,843z M7013,831c9-9,22-38,30-66l16-50v51c1,27,7,59,15,70c15,19,15,19,35-1c25-24,51-134,51-214
		c0-53,0-53-22-39c-13,8-30,29-38,46c-19,39-30,41-30,5c0-37-13-56-36-51c-25,4-39,37-57,128c-31,154-31,148-3,143
		C6988,850,7005,840,7013,831z M7675,786c8-28,19-80,25-116s13-75,15-87c5-19,1-23-20-23c-27,0-75,39-75,62c-1,7-7-2-15-21
		c-13-29-18-32-42-26c-16,3-36,14-45,22c-17,15-18,14-18-5c0-27-27-35-96-26c-48,6-58,11-75,37c-21,36-49,149-49,201
		c0,79,52,44,80-55l19-64v71c1,95,27,115,84,66c15-14,17-13,17,6c0,17,6,22,25,22c32,0,64-32,72-70c8-40,23-38,23,3c0,18,7,43,16,55
		C7637,869,7656,853,7675,786z M7763,843c18-21,43-107,51-179c8-68-5-104-39-104c-14,0-25,3-25,6c0,10-39,245-45,272
		c-4,18-1,22,18,22C7736,860,7754,852,7763,843z M7894,792l14-47l7,30c17,71,59,96,88,54l15-21l7,21c12,40,46,23,71-34l17-40l9,39
		c10,47,24,66,49,66c21,0,21,0,49-166c24-147,24-134-1-134c-32,0-59,19-71,48l-10,27l-10-27c-21-60-145-59-185,1l-22,32l2-26
		c3-36-24-55-49-34c-30,25-46,81-52,181l-5,98l32-11C7874,840,7883,829,7894,792z M7230,831c16-30,50-182,50-222c0-46-26-61-52-29
		c-25,31-38,83-45,183c-6,84-5,87,15,87C7210,850,7224,841,7230,831z M8216,455c-35-45-93-79-210-120c-211-76-236-80-503-80
		c-133,0-244-3-248-7c-29-29,375-32,593-4c79,10,145,16,148,14c2-3-38-18-88-34l-93-29l-290,1c-310,0-328,3-339,50
		c-13,50,3,55,153,48c75-3,215-1,311,4c159,10,185,14,283,46c117,39,176,67,251,121c27,20,51,33,54,31C8241,493,8231,475,8216,455z
		 M8644,421c-91-89-303-275-326-287c-45-23-33,2,31,64c32,31,71,76,85,100c26,42,79,81,180,135c28,15,52,24,55,21
		C8672,452,8661,436,8644,421z M8440,432c0-4-20-31-45-59c-55-63-186-163-266-204c-62-31-67-37-47-57c15-15,5-24-49-45
		c-41-16-88-15-124,4c-8,4-33,3-55-2c-89-21-479-7-610,22c-80,18-66,27,24,15c42-6,167-11,277-11c224,1,299,11,479,70
		c141,45,205,81,222,121c18,43,81,104,134,130C8430,441,8440,444,8440,432z M8773,362c-53-61-235-220-320-278c-84-59-81-34,4,33
		c43,34,141,120,218,191C8818,440,8861,464,8773,362z M3490,420c-30-5-102-8-160-7c-100,0-101,1-35,7c39,4,111,7,160,7
		C3537,427,3540,426,3490,420z M7644,404c66-9,59-28-9-21c-62,6-109,26-64,27C7585,410,7618,407,7644,404z M8890,394
		c0-34-350-358-367-340c-12,11,28,55,149,164c73,66,149,136,167,156C8877,414,8890,418,8890,394z M7960,388c-14-5-72-22-130-36
		c-118-28-302-35-505-18c-98,9-105,10-65,17c25,4,135,8,245,9c188,1,274,7,370,29c22,5,56,9,75,9C7983,399,7984,398,7960,388z
		 M3515,349c-47-8-600-38-1085-59c-118-5-231-6-250-2c-24,6,30,12,175,20c116,7,253,18,305,23c84,10,574,25,815,26
		C3556,358,3560,357,3515,349z M4445,340c57-5-1-6-158-3c-136,3-283,9-325,14c-48,5,13,6,158,2C4249,350,4396,344,4445,340z
		 M8550,256c-108-102-222-196-238-196c-12,0-9,7,9,26c31,34,226,205,258,227C8629,347,8613,316,8550,256z M1993,293c-7-2-19-2-25,0
		c-7,3-2,5,12,5S1999,296,1993,293z M3818,283c-65-2-171-2-235,0c-65,1-12,3,117,3S3882,284,3818,283z M8188,268c-3-7-51-30-109-51
		c-243-90-373-108-639-88c-174,13-360,46-300,52c19,2,56,1,82-3c147-21,373-30,475-19c107,12,274,52,405,96
		C8188,283,8193,284,8188,268z M1285,249c149-6,277-16,285-21c20-12-517-1-760,16l-185,13l195,2C927,260,1137,255,1285,249z
		 M8824,217c-31-38-145-137-160-137c-27,0-1,31,84,100C8834,249,8859,262,8824,217z M3288,205c-3-3-126-12-274-20
		c-490-25-584-28-584-17c0,12,104,20,400,31C3104,209,3295,211,3288,205z M5140,190c50-7,35-8-65-5c-71,3-195,6-275,7
		c-111,1-132,3-90,9C4773,209,5044,202,5140,190z M8883,170c-19-31-117-110-134-110c-24,0,52,84,111,124C8897,208,8904,204,8883,170
		z M6806,164c18-15,17-15-15-10c-18,3-40,6-48,6s-11,5-8,10C6744,185,6784,182,6806,164z M7044,170c-6-6-21-6-39-1c-30,9-30,9,10,10
		C7040,180,7051,177,7044,170z M1640,160c0-11-270-12-390,0c-53,5-7,7,158,8C1557,169,1640,166,1640,160z M4185,153
		c61-3,100-9,89-13c-20-8-644,7-653,15C3614,162,4061,161,4185,153z M6665,151c-65-27-527-40-750-22l-90,8l70,3c63,2,546,14,720,17
		C6659,158,6678,156,6665,151z M8215,74c-54-26-89-31-83-12c2,6,24,17,49,23C8253,105,8268,100,8215,74z M7127,78l28-11l-47-10
		c-54-10-78-5-78,18C7030,93,7085,96,7127,78z"/>
	<path class="st0" d="M4896,9349c-3-17-6-46-6-63c1-44,18-12,26,48C4924,9386,4906,9399,4896,9349z"/>
	<path class="st0" d="M4878,9170c-12-39-10-76,3-63c6,6,9,28,7,49C4885,9191,4884,9192,4878,9170z"/>
	<path class="st0" d="M5123,7905c-9-25,4-29,17-6c7,15,7,21,0,21C5134,7920,5127,7913,5123,7905z"/>
	<path class="st0" d="M5279,7564c-10-11-24-41-33-67c-28-85-18-111,34-81c33,20,47,44,25,44s-25,14-14,54c6,20,9,44,7,53
		C5295,7580,5293,7579,5279,7564z"/>
	<path class="st0" d="M5920,6782c0-4,16-45,36-91c19-45,42-112,49-149c19-87,19-196,1-211c-9-8-15-50-19-149c-5-133-19-227-40-266
		c-9-19-10-19-23-2c-11,16-15,14-38-31c-14-26-35-61-46-78l-22-30l7,50c3,28,9,65,12,84c5,31,4,32-15,22c-11-6-28-33-37-61
		c-19-57-31-63-40-20c-10,45-22,45-44,2c-17-33-24-39-44-35c-19,4-26-1-37-26c-17-41-27-47-51-25c-10,9-19,12-19,6c0-7-11-9-28-6
		c-36,7-60-17-37-36c8-7,15-21,15-31c0-14,7-19,29-19c17,0,32-4,35-9c4-5,20-6,39-1c64,16,158,22,172,10c30-25,210,53,235,100
		c6,10,10,67,10,125c0,116,10,150,40,140c19-6,20-4,35,68c2,9-3,30-10,45c-8,16-17,105-23,227c-11,202-26,279-67,341
		C5978,6752,5920,6796,5920,6782z"/>
	<path class="st0" d="M5380,6488c0-7,18-30,39-50c50-46,55-73,48-231c-4-89-12-144-30-202c-31-102-25-122,21-69c64,73,66,82,66,271
		l1,172l-42,43C5431,6475,5380,6508,5380,6488z"/>
	<path class="st0" d="M6855,7550c3-47,10-206,15-354c6-148,12-272,15-274c9-10,5,543-5,612C6864,7641,6848,7652,6855,7550z"/>
	<path class="st0" d="M7570,6278c2-60,35-249,73-418c97-436,95-428,96-384c2,105-141,814-165,814C7572,6290,7570,6284,7570,6278z"/>
	<path class="st0" d="M7731,5898c1-13,4-36,8-53c5-23,8-26,13-13c6,16-8,88-17,88C7732,5920,7731,5910,7731,5898z"/>
	<path class="st0" d="M7864,5215c9-90,46-318,53-325c9-9-7,151-28,270C7866,5291,7854,5318,7864,5215z"/>
	<path class="st0" d="M7731,5035c0-38,4-77,9-85c12-19,13,57,1,115C7733,5101,7732,5099,7731,5035z"/>
	<path class="st0" d="M8310,4602c-14-2-39-9-55-17c-17-8-69-19-117-26s-85-16-83-19c2-4,62-10,132-13s142-11,158-18
		c30-12,30-12-35-24c-61-12-51-13,143-14c137-1,206,2,202,9c-3,6-16,10-29,10c-19,0-22,5-22,38c-1,45,7,51,71,53l50,2l-65,8
		C8591,4599,8352,4607,8310,4602z"/>
	<path class="st0" d="M9036,4341c5-6,34-11,64-13l55-4l-35-15c-19-9-73-22-120-30l-85-13l110-13c124-15,207-36,229-58
		c19-20,28-19,58,4c22,18,59,29,183,57c29,6,29,7-18,19c-27,7-55,22-63,33c-8,12-31,26-52,32C9315,4353,9022,4354,9036,4341z
		 M9367,4274c5-15-25-26-48-19c-11,4-19,13-19,21C9300,4294,9361,4292,9367,4274z"/>
	<path class="st0" d="M5076,4141c-7-11,11-17,79-25c48-5,49-5,20,8C5130,4144,5083,4153,5076,4141z"/>
	<path class="st0" d="M8463,4073c-29-6-29-14,1-40c13-11,26-27,28-34c4-11,39-14,159-16c115-2,147,0,127,8c-18,7-28,19-30,37
		c-5,41-38,52-158,50C8532,4078,8475,4075,8463,4073z"/>
	<path class="st0" d="M9740,4041c-18-7-1-9,60-10c80-1,155-12,167-25c11-11-20-36-46-37c-48-2,48-17,162-24l108-7l-12,26
		c-15,31-11,37,19,29c13-3,22-13,22-25c0-31,33-17,51,22l17,35l-29,6C10210,4042,9767,4050,9740,4041z"/>
	<path class="st0" d="M4449,5575c-3-2-3-20-1-40c3-29,8-35,27-35c31,0,47,23,39,54c-5,20-12,26-33,26C4466,5580,4451,5578,4449,5575
		z"/>
	<path class="st0" d="M3885,5300c-3-5-2-10,4-10c5,0,13,5,16,10c3,6,2,10-4,10C3896,5310,3888,5306,3885,5300z"/>
	<path class="st0" d="M3915,5140c-3-5,3-10,14-10c12,0,21,5,21,10c0,6-6,10-14,10S3918,5146,3915,5140z"/>
	<path class="st0" d="M4000,5020c0-13,11-13,30,0c12,8,11,10-7,10C4010,5030,4000,5026,4000,5020z"/>
	<path class="st0" d="M10616,2770c29-223,111-506,139-478c4,3-129,490-140,513C10612,2811,10613,2795,10616,2770z"/>
	<path class="st0" d="M10565,2533c10-58,24-106,35-123c8-13,10-12,11,5c5,60-21,155-43,155C10563,2570,10562,2553,10565,2533z"/>
	<path class="st0" d="M8996,2455c3-44,9-84,15-89c14-15,10,83-7,129C8991,2534,8991,2533,8996,2455z"/>
	<path class="st0" d="M10395,2403c11-94,17-123,27-123c15,0,4,87-15,130l-17,35L10395,2403z"/>
	<path class="st0" d="M5793,10388c-45-15-41-26,13-34c49-7,71,4,61,30C5860,10402,5840,10403,5793,10388z"/>
	<path class="st0" d="M3325,9496c-9-22-21-120-30-258c-19-271-28-323-61-345c-23-15-23-16-7-29c17-13,17-15-5-32l-24-18l24-16l23-16
		l-32-12c-43-15-42-24,4-36c52-13,52-31,1-39c-24-4-47-10-52-12c-12-8,15-23,42-23c34,0,18-17-23-24c-21-4-35-13-35-21
		c0-11,13-15,53-15c28,0,58,4,64,8c13,8,67,282,77,392c3,36,22,163,42,282s34,223,31,232c-4,11-19,16-42,16
		C3343,9530,3337,9526,3325,9496z"/>
	<path class="st0" d="M8312,9298c-14-14-16-44-2-53c5-3,14-23,20-43c14-52,52-97,75-89c25,10,17,115-11,130c-10,6-30,23-44,39
		C8330,9304,8321,9307,8312,9298z"/>
	<path class="st0" d="M8400,9054c0-27,20-54,35-48c20,8,19,27-3,47C8409,9074,8400,9074,8400,9054z"/>
	<path class="st0" d="M8300,9027c0-8,49-144,60-169c22-48,29-31,14,34c-15,62-51,138-66,138C8304,9030,8300,9029,8300,9027z"/>
	<path class="st0" d="M8462,8961c-19-11-11-45,11-49c13-3,17,3,17,27C8490,8971,8484,8976,8462,8961z"/>
	<path class="st0" d="M8530,8928c0-18,7-46,15-61c14-26,23-58,39-129c8-35,32-36,40-4c9,36-10,150-30,180c-15,24-43,46-58,46
		C8533,8960,8530,8945,8530,8928z"/>
	<path class="st0" d="M8470,8836c0-17,5-26,16-26c10,0,14,7,12,22C8493,8864,8470,8867,8470,8836z"/>
	<path class="st0" d="M2402,8748c-47-153-67-266-97-547c-13-121-20-466-8-391c2,14,15,102,29,195c14,94,47,278,74,410
		c58,288,73,388,65,415C2452,8872,2433,8848,2402,8748z"/>
	<path class="st0" d="M8150,8820c0-5,5-10,11-10c5,0,7,5,4,10c-3,6-8,10-11,10C8152,8830,8150,8826,8150,8820z"/>
	<path class="st0" d="M3660,8712c-46-19-151-81-137-82c4,0,60,13,125,29c64,16,134,33,155,38c62,13,48,28-28,30
		C3727,8729,3691,8724,3660,8712z"/>
	<path class="st0" d="M7806,8698c-24-34-19-44,9-18c14,13,25,27,25,32C7840,8728,7821,8720,7806,8698z"/>
	<path class="st0" d="M3840,8618c-47-5-124-20-172-34s-92-23-97-20c-18,12-112-26-170-69c-67-49-83-80-23-44c20,12,48,28,62,35
		c42,22,219,62,325,74c133,15,195,29,195,45C3960,8624,3934,8627,3840,8618z"/>
	<path class="st0" d="M8624,8596c-10-8-16-17-13-20c3-4,17,2,30,13C8668,8612,8654,8617,8624,8596z"/>
	<path class="st0" d="M8005,8510c-3-5-1-18,5-29c5-11,10-33,10-49c0-32,28-52,42-30c11,19,10,48-3,48c-7,0-9,11-6,29c4,21,2,31-9,35
		C8022,8522,8012,8521,8005,8510z"/>
	<path class="st0" d="M3750,8445c-199-32-335-61-367-79l-28-15l25-1c30,0,384,54,455,70c94,21,125,31,125,40
		C3960,8475,3912,8471,3750,8445z"/>
	<path class="st0" d="M1682,8321c-45-28-95-783-73-1121c7-96,14-183,17-193c5-15,10-14,50,13c44,31,61,59,27,45c-45-19-52-17-60,11
		c-26,97,14,919,53,1092c15,69,19,148,6,156C1698,8326,1689,8325,1682,8321z"/>
	<path class="st0" d="M2920,8086c-36-12-83-32-105-44l-40-21l77-1c42,0,80-4,83-10c10-16,54-11,70,8c54,61,64,75,59,83
		C3054,8117,2986,8110,2920,8086z"/>
	<path class="st0" d="M2550,8012c-9-4-35-22-58-41c-40-33-42-37-42-90c0-32-9-79-20-109c-36-94-21-88,55,22c41,60,82,117,92,128
		c14,15,15,21,4,27c-10,7-10,13-2,29C2600,8017,2589,8029,2550,8012z"/>
	<path class="st0" d="M2693,7854c-77-48-89-64-47-64c18,0,43,17,82,55c32,30,53,54,47,54C2770,7899,2732,7878,2693,7854z"/>
	<path class="st0" d="M1081,7757c-23-92-24-109-18-280c16-436,39-575,202-1242c48-194,147-502,187-584l32-63l-22-19l-23-18l48-13
		c49-14,70-43,36-50c-14-4-9-9,20-23c26-13,37-25,37-41c0-15,7-23,25-26c14-3,28-2,31,3c6,11-18,58-66,129c-42,62-85,147-120,233
		c-20,51-22,65-13,105c6,26,8,67,4,92c-6,42-8,45-34,42c-23-3-30,2-41,30c-17,41-21,77-12,100c5,11,2,23-8,33c-35,35-76,258-57,308
		c8,19,6,27-4,31c-49,18-110,269-140,575c-20,203-20,222,4,228c27,7,40,43,52,149c16,143-3,175-47,80c-20-45-23-58-13-74
		c13-20,4-112-11-112c-11,0-16,136-9,235c3,44,6,66,7,48c3-41,14-48,39-20c49,53,74,104,67,133c-10,44-11,44-61,23
		c-25-11-50-16-54-12s-9,28-11,53C1105,7853,1104,7850,1081,7757z"/>
	<path class="st0" d="M2082,7580c-87-31-232-112-284-159c-52-46-124-177-135-245c-8-49,8-47,119,11c96,51,192,130,237,197
		c53,79,42,81-31,5c-76-80-177-156-241-182l-37-16l6,27c18,75,57,111,296,272C2172,7599,2186,7617,2082,7580z"/>
	<path class="st0" d="M1177,7285c-8-19,4-115,14-115c12,0,21,56,13,94C1197,7302,1186,7310,1177,7285z"/>
	<path class="st0" d="M4012,7241c-26-16,115-28,166-14c18,4,20,8,10,14C4171,7252,4029,7252,4012,7241z"/>
	<path class="st0" d="M3474,7156c-7-30,2-48,23-44c10,2,17,16,18,36c2,25-1,32-16,32C3488,7180,3478,7171,3474,7156z"/>
	<path class="st0" d="M3513,7053c-8-3-13-23-13-51c0-93,20-115,59-65l21,26l-21,20c-16,15-19,27-15,48
		C3549,7060,3542,7065,3513,7053z"/>
	<path class="st0" d="M1393,7037c-49-28-135-144-154-209c-11-39-5-35,24,15c35,58,70,89,155,133c48,25,72,44,70,54
		C1484,7049,1423,7054,1393,7037z"/>
	<path class="st0" d="M1755,7028c-11-6-44-26-72-46c-41-27-52-40-48-56c3-12,12-64,20-116c22-133,132-591,162-675
		c42-117,120-262,233-435c59-91,134-208,167-260c111-180,233-314,233-257c0,8-27,50-59,95c-74,100-94,138-86,162c3,11,37,39,75,62
		s66,46,64,50c-7,11-56-7-98-36c-21-14-49-26-62-26c-28,0-71,53-80,99c-6,28-2,35,31,64c21,17,54,47,74,65l36,32l-45-20
		c-57-25-70-25-70,0c0,24-1,24-47,5c-50-21-61-5-24,33c50,49,36,135-15,93c-28-23-59-71-45-71c6,0,11-7,11-15c0-24-24-18-54,14
		l-28,29l22,19c81,66,75,57,54,86c-24,33-25,33-74,2c-22-14-42-25-45-25c-2,0-2,13,1,30c4,16,3,59-1,95l-7,65l-34-26
		c-19-15-37-24-40-21s9,30,26,61c34,59,29,73-10,31c-38-41-41-29-10,42c18,43,25,70,18,74s-6,14,1,28c7,12,9,26,6,31
		c-13,20-35,9-68-35l-35-45l-6,26c-6,21,1,39,33,84c60,86,62,98,12,65c-59-40-73-22-30,39c34,48,34,65,1,47c-27-15-52-14-52,1
		c0,7,23,36,52,65c49,50,51,53,27,53c-14,0-43-13-65-30c-53-40-62-38-26,8c35,44,66,102,58,109c-3,3-18-4-34-16c-60-43-69-20-16,39
		c47,52,40,69-14,31c-23-17-42-29-42-26s22,36,49,73s48,68,46,70c-1,2-33-15-69-37c-36-23-66-36-66-29c0,6,18,35,40,65
		c40,53,37,68-8,37c-38-27-35-10,11,52C1799,7046,1801,7054,1755,7028z"/>
	<path class="st0" d="M3566,6895c-27-27-41-58-27-63c6-2,11-16,12-30c0-17,10-35,28-49l29-23l16,25c18,28,21,45,6,45
		c-5,0-10,9-10,19c0,11-5,23-10,26c-6,4-9,18-8,32C3606,6908,3588,6917,3566,6895z"/>
	<path class="st0" d="M3615,6690c-23-26-8-26,25,0c18,14,21,20,9,20C3640,6710,3625,6701,3615,6690z"/>
	<path class="st0" d="M3637,6649c-40-21-45-42-11-47c23-3,57,30,52,51C3676,6666,3669,6665,3637,6649z"/>
	<path class="st0" d="M3660,6571c-14-28-12-87,4-100c7-6,17-35,20-63c9-64,13-70,35-59c13,7,17,20,15,49c-1,22-5,45-8,51
		c-4,6-4,26-1,45c4,20,2,36-4,40s-11,18-11,32C3710,6596,3676,6599,3660,6571z"/>
	<path class="st0" d="M4334,6498c3-13,20-81,37-153c83-346,102-405,129-405c19,0,10,102-20,218c-49,196-113,362-138,362
		C4332,6520,4329,6513,4334,6498z"/>
	<path class="st0" d="M3056,6361c-62-29-80-48-66-71c7-11,17-8,52,16c24,16,52,33,63,39c20,10,34,46,18,44
		C3119,6389,3089,6376,3056,6361z"/>
	<path class="st0" d="M2355,6175c-98-27-302-141-284-159c4-5,89,15,144,32c50,16,89,35,117,58c15,12,56,27,92,34c67,13,87,32,44,44
		C2436,6192,2413,6190,2355,6175z"/>
	<path class="st0" d="M1787,5865c-43-22-107-75-107-88c0-26,40-38,98-31c48,6,60,12,93,48l38,41l-27,22
		C1850,5883,1825,5885,1787,5865z"/>
	<path class="st0" d="M12,5778c6-16,41-22,85-13c50,9,30,25-33,25C24,5790,9,5786,12,5778z"/>
	<path class="st0" d="M36,5691c14-13,76-32,83-25c11,11-32,34-63,34C39,5700,30,5696,36,5691z"/>
	<path class="st0" d="M2335,5669c-55-29-88-60-76-72c11-11,72,27,111,68C2399,5696,2387,5697,2335,5669z"/>
	<path class="st0" d="M1570,5600c0-22,1-23,24-14s20,34-4,34C1577,5620,1570,5613,1570,5600z"/>
	<path class="st0" d="M93,5593c9-2,23-2,30,0c6,3-1,5-18,5C89,5598,83,5596,93,5593z"/>
	<path class="st0" d="M2324,5590c-22-9-64-56-64-72c0-13,29,5,75,46C2374,5598,2369,5608,2324,5590z"/>
	<path class="st0" d="M2439,5497c-71-40-89-56-89-74c0-11,15-7,58,17c59,34,102,68,102,82C2510,5535,2498,5531,2439,5497z"/>
	<path class="st0" d="M1680,5480c-11-7-7-10,17-10c17,0,35,5,38,10C1743,5493,1700,5493,1680,5480z"/>
	<path class="st0" d="M2470,5414c-36-16-80-52-80-66c0-17,29-7,84,29C2550,5427,2548,5448,2470,5414z"/>
	<path class="st0" d="M1694,5412c5-8,66-4,66,4c0,2-16,4-36,4C1705,5420,1691,5416,1694,5412z"/>
	<path class="st0" d="M2478,5340c-32-20-48-37-48-51c0-18,6-16,61,22c33,24,62,46,65,51C2568,5380,2522,5368,2478,5340z"/>
	<path class="st0" d="M1819,5306c8-10,9-16,1-21c-5-3-10-10-10-16c0-11,50-12,68,0c23,14-7,51-42,51C1813,5320,1810,5317,1819,5306z
		"/>
	<path class="st0" d="M2560,5310c-31-8-97-67-86-78c6-5,136,71,136,80S2608,5321,2560,5310z"/>
	<path class="st0" d="M2800,5231c-101-66-115-79-115-104c0-19-9-33-30-47c-27-18-28-20-8-20c39,0,116,31,184,75c73,47,88,63,69,75
		c-10,6-10,17,4,50c9,23,16,44,14,45S2863,5273,2800,5231z"/>
	<path class="st0" d="M2591,5245c-27-12-32-19-27-38c3-12,6-28,6-34c0-22,53-14,93,12c46,32,47,39,3,31c-33-6-57,6-36,19
		c12,7,14,25,3,25C2628,5259,2610,5253,2591,5245z"/>
	<path class="st0" d="M1704,5231c28-11,51-19,53-17c9,8-29,27-64,32l-38,5L1704,5231z"/>
	<path class="st0" d="M2913,5148c-89-60-108-77-108-98c0-15-9-30-22-38c-13-7-23-17-23-22c0-42,215,67,350,178c58,48,58,48-34,8
		l-58-27l6,36c4,19,5,35,2,35S2973,5187,2913,5148z"/>
	<path class="st0" d="M860,5202c0-5,7-15,15-22s15-8,15-2c0,5-7,15-15,22S860,5208,860,5202z"/>
	<path class="st0" d="M1946,5201c-14-5-16-10-7-15c15-10,61,1,61,14C2000,5212,1974,5212,1946,5201z"/>
	<path class="st0" d="M1988,5148c-63-13-66-38-4-38c42,0,76,18,76,41C2060,5161,2052,5161,1988,5148z"/>
	<path class="st0" d="M3090,5088c-19-12-79-43-132-70c-95-47-119-68-78-68c42,0,233,108,244,137C3134,5111,3127,5111,3090,5088z"/>
	<path class="st0" d="M3020,4971c-79-38-146-74-148-80c-7-22,50-10,119,25c66,33,72,34,83,18c16-22,53-10,131,41c66,45,78,59,31,40
		c-48-20-64-19-68,5C3165,5038,3152,5034,3020,4971z"/>
	<path class="st0" d="M3259,4957c-24-13-80-45-124-70s-93-53-108-61c-16-9-26-20-23-25c11-17,99,18,176,69
		C3305,4954,3354,5007,3259,4957z"/>
	<path class="st0" d="M32,4830c-32-14-27-36,11-44c47-11,504-25,796-26c253,0,254,0,229,19c-13,11-35,22-49,25c-13,3-186,10-384,16
		c-198,5-409,12-470,15C105,4837,45,4835,32,4830z"/>
	<path class="st0" d="M11,4611c9-6,79-13,155-15c101-4,122-3,79,4C137,4615-7,4622,11,4611z"/>
	<path class="st0" d="M35,4550c3-5,20-11,38-14c50-8,271-17,266-11c-4,3-277,35-307,35C30,4560,31,4556,35,4550z"/>
	<path class="st0" d="M50,4489c0-5,11-9,25-9s25,2,25,4s-11,6-25,8C61,4495,50,4493,50,4489z"/>
	<path class="st0" d="M22,4399c6-17,121-24,170-10l33,9l-41,1c-23,1-69,4-104,8C29,4412,18,4411,22,4399z"/>
	<path class="st0" d="M3597,4383c18-2,50-2,70,0c21,2,7,4-32,4C3597,4387,3580,4385,3597,4383z"/>
	<path class="st0" d="M12,4329c4-11,32-14,129-15l124-1l-95,7c-52,4-110,11-129,15C14,4341,8,4340,12,4329z"/>
	<path class="st0" d="M2665,4318c28-5,64-12,80-17c40-10,127,1,133,17c3,9-27,12-130,11C2636,4328,2623,4326,2665,4318z"/>
	<path class="st0" d="M4270,3811c0-12,5-21,10-21c6,0,10,6,10,14s-4,18-10,21C4275,3828,4270,3822,4270,3811z"/>
	<path class="st0" d="M2228,3763c45-2,119-2,165,0c45,1,8,3-83,3S2182,3764,2228,3763z"/>
	<path class="st0" d="M2163,3659c28-16,126-23,203-13l69,8l-60,7C2274,3673,2142,3671,2163,3659z"/>
	<path class="st0" d="M2135,3551c-3-5-2-11,2-13c5-2,94-1,198,2l190,5l-130,7C2221,3562,2142,3562,2135,3551z"/>
	<path class="st0" d="M2167,3453c-4-3-7-9-7-13c0-13,140-20,257-13l118,7l-145,12C2214,3461,2175,3462,2167,3453z"/>
	<path class="st0" d="M2168,3339c-10-5-18-18-18-28c0-16,13-19,98-24c158-11,1375-8,1392,3c11,7-3,10-45,10c-33,0-328,7-655,15
		c-548,13-681,19-735,31C2194,3348,2177,3345,2168,3339z"/>
	<path class="st0" d="M4543,3284c-56-13-12-21,135-27c170-7,608-9,601-3C5269,3264,4578,3291,4543,3284z"/>
	<path class="st0" d="M7677,1301c-86-28-103-43-117-100c-14-60-3-86,44-106c41-17,198-45,255-45c38,0,42,2,30,16c-7,9-13,24-14,35
		c-1,10-5,22-9,26c-4,5-58,11-119,14c-62,3-120,9-129,13c-28,13-23,60,7,80c48,32,339,47,430,22c100-26,166-79,143-115
		c-19-31-47-42-141-57c-111-18-127-22-127-36c0-8,28-9,90-5c138,10,183,37,201,118c11,47-1,68-55,96c-47,24-202,52-321,58
		C7754,1319,7725,1317,7677,1301z"/>
	<path class="st0" d="M7812,1218c4-27,47-41,100-32c42,6,51,15,42,38c-5,13-21,16-76,16C7812,1240,7809,1239,7812,1218z"/>
	<path class="st0" d="M187,1003c-12-12-7-50,7-63c11-8,66-11,198-8c101,2,337-1,526-6c257-7,342-6,342,2c0,14,368,17,560,5l115-7
		l-75-13c-70-11-64-12,105-8c99,2,198,9,220,14c52,14,310,13,500-2c83-6,347-11,588-11c403-1,439-2,448-18c8-15,14-16,37-5
		c20,9,164,12,564,12c389,0,540,3,548,11c16,16-141,21-1025,34c-1015,15-1566,27-2240,50C1046,1009,200,1017,187,1003z"/>
	<path class="st0" d="M4218,843c23-2,59-2,80,0c20,2,1,4-43,4S4194,845,4218,843z"/>
	<path class="st0" d="M1911,768c-89-15-63-18,124-13c270,8,333,21,105,21C2038,776,1935,773,1911,768z"/>
</g>
</svg>
